<?xml version="1.0" encoding="utf-8" standalone="no"?>
<!DOCTYPE svg PUBLIC "-//W3C//DTD SVG 1.1//EN"
  "http://www.w3.org/Graphics/SVG/1.1/DTD/svg11.dtd">
<!-- Created with matplotlib (https://matplotlib.org/) -->
<svg height="345.6pt" version="1.1" viewBox="0 0 460.8 345.6" width="460.8pt" xmlns="http://www.w3.org/2000/svg" xmlns:xlink="http://www.w3.org/1999/xlink">
 <defs>
  <style type="text/css">
*{stroke-linecap:butt;stroke-linejoin:round;}
  </style>
 </defs>
 <g id="figure_1">
  <g id="patch_1">
   <path d="M 0 345.6 
L 460.8 345.6 
L 460.8 0 
L 0 0 
z
" style="fill:#ffffff;"/>
  </g>
  <g id="axes_1">
   <g id="patch_2">
    <path d="M 57.6 307.584 
L 414.72 307.584 
L 414.72 41.472 
L 57.6 41.472 
z
" style="fill:#ffffff;"/>
   </g>
   <g id="matplotlib.axis_1">
    <g id="xtick_1">
     <g id="line2d_1">
      <path clip-path="url(#p47a3f44661)" d="M 73.832727 307.584 
L 73.832727 41.472 
" style="fill:none;stroke:#b0b0b0;stroke-linecap:square;stroke-width:0.8;"/>
     </g>
     <g id="line2d_2">
      <defs>
       <path d="M 0 0 
L 0 3.5 
" id="me512afcab1" style="stroke:#000000;stroke-width:0.8;"/>
      </defs>
      <g>
       <use style="stroke:#000000;stroke-width:0.8;" x="73.832727" xlink:href="#me512afcab1" y="307.584"/>
      </g>
     </g>
     <g id="text_1">
      <!-- 0 -->
      <defs>
       <path d="M 31.78125 66.40625 
Q 24.171875 66.40625 20.328125 58.90625 
Q 16.5 51.421875 16.5 36.375 
Q 16.5 21.390625 20.328125 13.890625 
Q 24.171875 6.390625 31.78125 6.390625 
Q 39.453125 6.390625 43.28125 13.890625 
Q 47.125 21.390625 47.125 36.375 
Q 47.125 51.421875 43.28125 58.90625 
Q 39.453125 66.40625 31.78125 66.40625 
z
M 31.78125 74.21875 
Q 44.046875 74.21875 50.515625 64.515625 
Q 56.984375 54.828125 56.984375 36.375 
Q 56.984375 17.96875 50.515625 8.265625 
Q 44.046875 -1.421875 31.78125 -1.421875 
Q 19.53125 -1.421875 13.0625 8.265625 
Q 6.59375 17.96875 6.59375 36.375 
Q 6.59375 54.828125 13.0625 64.515625 
Q 19.53125 74.21875 31.78125 74.21875 
z
" id="DejaVuSans-48"/>
      </defs>
      <g transform="translate(70.651477 322.182437)scale(0.1 -0.1)">
       <use xlink:href="#DejaVuSans-48"/>
      </g>
     </g>
    </g>
    <g id="xtick_2">
     <g id="line2d_3">
      <path clip-path="url(#p47a3f44661)" d="M 127.142176 307.584 
L 127.142176 41.472 
" style="fill:none;stroke:#b0b0b0;stroke-linecap:square;stroke-width:0.8;"/>
     </g>
     <g id="line2d_4">
      <g>
       <use style="stroke:#000000;stroke-width:0.8;" x="127.142176" xlink:href="#me512afcab1" y="307.584"/>
      </g>
     </g>
     <g id="text_2">
      <!-- 100 -->
      <defs>
       <path d="M 12.40625 8.296875 
L 28.515625 8.296875 
L 28.515625 63.921875 
L 10.984375 60.40625 
L 10.984375 69.390625 
L 28.421875 72.90625 
L 38.28125 72.90625 
L 38.28125 8.296875 
L 54.390625 8.296875 
L 54.390625 0 
L 12.40625 0 
z
" id="DejaVuSans-49"/>
      </defs>
      <g transform="translate(117.598426 322.182437)scale(0.1 -0.1)">
       <use xlink:href="#DejaVuSans-49"/>
       <use x="63.623047" xlink:href="#DejaVuSans-48"/>
       <use x="127.246094" xlink:href="#DejaVuSans-48"/>
      </g>
     </g>
    </g>
    <g id="xtick_3">
     <g id="line2d_5">
      <path clip-path="url(#p47a3f44661)" d="M 180.451626 307.584 
L 180.451626 41.472 
" style="fill:none;stroke:#b0b0b0;stroke-linecap:square;stroke-width:0.8;"/>
     </g>
     <g id="line2d_6">
      <g>
       <use style="stroke:#000000;stroke-width:0.8;" x="180.451626" xlink:href="#me512afcab1" y="307.584"/>
      </g>
     </g>
     <g id="text_3">
      <!-- 200 -->
      <defs>
       <path d="M 19.1875 8.296875 
L 53.609375 8.296875 
L 53.609375 0 
L 7.328125 0 
L 7.328125 8.296875 
Q 12.9375 14.109375 22.625 23.890625 
Q 32.328125 33.6875 34.8125 36.53125 
Q 39.546875 41.84375 41.421875 45.53125 
Q 43.3125 49.21875 43.3125 52.78125 
Q 43.3125 58.59375 39.234375 62.25 
Q 35.15625 65.921875 28.609375 65.921875 
Q 23.96875 65.921875 18.8125 64.3125 
Q 13.671875 62.703125 7.8125 59.421875 
L 7.8125 69.390625 
Q 13.765625 71.78125 18.9375 73 
Q 24.125 74.21875 28.421875 74.21875 
Q 39.75 74.21875 46.484375 68.546875 
Q 53.21875 62.890625 53.21875 53.421875 
Q 53.21875 48.921875 51.53125 44.890625 
Q 49.859375 40.875 45.40625 35.40625 
Q 44.1875 33.984375 37.640625 27.21875 
Q 31.109375 20.453125 19.1875 8.296875 
z
" id="DejaVuSans-50"/>
      </defs>
      <g transform="translate(170.907876 322.182437)scale(0.1 -0.1)">
       <use xlink:href="#DejaVuSans-50"/>
       <use x="63.623047" xlink:href="#DejaVuSans-48"/>
       <use x="127.246094" xlink:href="#DejaVuSans-48"/>
      </g>
     </g>
    </g>
    <g id="xtick_4">
     <g id="line2d_7">
      <path clip-path="url(#p47a3f44661)" d="M 233.761075 307.584 
L 233.761075 41.472 
" style="fill:none;stroke:#b0b0b0;stroke-linecap:square;stroke-width:0.8;"/>
     </g>
     <g id="line2d_8">
      <g>
       <use style="stroke:#000000;stroke-width:0.8;" x="233.761075" xlink:href="#me512afcab1" y="307.584"/>
      </g>
     </g>
     <g id="text_4">
      <!-- 300 -->
      <defs>
       <path d="M 40.578125 39.3125 
Q 47.65625 37.796875 51.625 33 
Q 55.609375 28.21875 55.609375 21.1875 
Q 55.609375 10.40625 48.1875 4.484375 
Q 40.765625 -1.421875 27.09375 -1.421875 
Q 22.515625 -1.421875 17.65625 -0.515625 
Q 12.796875 0.390625 7.625 2.203125 
L 7.625 11.71875 
Q 11.71875 9.328125 16.59375 8.109375 
Q 21.484375 6.890625 26.8125 6.890625 
Q 36.078125 6.890625 40.9375 10.546875 
Q 45.796875 14.203125 45.796875 21.1875 
Q 45.796875 27.640625 41.28125 31.265625 
Q 36.765625 34.90625 28.71875 34.90625 
L 20.21875 34.90625 
L 20.21875 43.015625 
L 29.109375 43.015625 
Q 36.375 43.015625 40.234375 45.921875 
Q 44.09375 48.828125 44.09375 54.296875 
Q 44.09375 59.90625 40.109375 62.90625 
Q 36.140625 65.921875 28.71875 65.921875 
Q 24.65625 65.921875 20.015625 65.03125 
Q 15.375 64.15625 9.8125 62.3125 
L 9.8125 71.09375 
Q 15.4375 72.65625 20.34375 73.4375 
Q 25.25 74.21875 29.59375 74.21875 
Q 40.828125 74.21875 47.359375 69.109375 
Q 53.90625 64.015625 53.90625 55.328125 
Q 53.90625 49.265625 50.4375 45.09375 
Q 46.96875 40.921875 40.578125 39.3125 
z
" id="DejaVuSans-51"/>
      </defs>
      <g transform="translate(224.217325 322.182437)scale(0.1 -0.1)">
       <use xlink:href="#DejaVuSans-51"/>
       <use x="63.623047" xlink:href="#DejaVuSans-48"/>
       <use x="127.246094" xlink:href="#DejaVuSans-48"/>
      </g>
     </g>
    </g>
    <g id="xtick_5">
     <g id="line2d_9">
      <path clip-path="url(#p47a3f44661)" d="M 287.070524 307.584 
L 287.070524 41.472 
" style="fill:none;stroke:#b0b0b0;stroke-linecap:square;stroke-width:0.8;"/>
     </g>
     <g id="line2d_10">
      <g>
       <use style="stroke:#000000;stroke-width:0.8;" x="287.070524" xlink:href="#me512afcab1" y="307.584"/>
      </g>
     </g>
     <g id="text_5">
      <!-- 400 -->
      <defs>
       <path d="M 37.796875 64.3125 
L 12.890625 25.390625 
L 37.796875 25.390625 
z
M 35.203125 72.90625 
L 47.609375 72.90625 
L 47.609375 25.390625 
L 58.015625 25.390625 
L 58.015625 17.1875 
L 47.609375 17.1875 
L 47.609375 0 
L 37.796875 0 
L 37.796875 17.1875 
L 4.890625 17.1875 
L 4.890625 26.703125 
z
" id="DejaVuSans-52"/>
      </defs>
      <g transform="translate(277.526774 322.182437)scale(0.1 -0.1)">
       <use xlink:href="#DejaVuSans-52"/>
       <use x="63.623047" xlink:href="#DejaVuSans-48"/>
       <use x="127.246094" xlink:href="#DejaVuSans-48"/>
      </g>
     </g>
    </g>
    <g id="xtick_6">
     <g id="line2d_11">
      <path clip-path="url(#p47a3f44661)" d="M 340.379973 307.584 
L 340.379973 41.472 
" style="fill:none;stroke:#b0b0b0;stroke-linecap:square;stroke-width:0.8;"/>
     </g>
     <g id="line2d_12">
      <g>
       <use style="stroke:#000000;stroke-width:0.8;" x="340.379973" xlink:href="#me512afcab1" y="307.584"/>
      </g>
     </g>
     <g id="text_6">
      <!-- 500 -->
      <defs>
       <path d="M 10.796875 72.90625 
L 49.515625 72.90625 
L 49.515625 64.59375 
L 19.828125 64.59375 
L 19.828125 46.734375 
Q 21.96875 47.46875 24.109375 47.828125 
Q 26.265625 48.1875 28.421875 48.1875 
Q 40.625 48.1875 47.75 41.5 
Q 54.890625 34.8125 54.890625 23.390625 
Q 54.890625 11.625 47.5625 5.09375 
Q 40.234375 -1.421875 26.90625 -1.421875 
Q 22.3125 -1.421875 17.546875 -0.640625 
Q 12.796875 0.140625 7.71875 1.703125 
L 7.71875 11.625 
Q 12.109375 9.234375 16.796875 8.0625 
Q 21.484375 6.890625 26.703125 6.890625 
Q 35.15625 6.890625 40.078125 11.328125 
Q 45.015625 15.765625 45.015625 23.390625 
Q 45.015625 31 40.078125 35.4375 
Q 35.15625 39.890625 26.703125 39.890625 
Q 22.75 39.890625 18.8125 39.015625 
Q 14.890625 38.140625 10.796875 36.28125 
z
" id="DejaVuSans-53"/>
      </defs>
      <g transform="translate(330.836223 322.182437)scale(0.1 -0.1)">
       <use xlink:href="#DejaVuSans-53"/>
       <use x="63.623047" xlink:href="#DejaVuSans-48"/>
       <use x="127.246094" xlink:href="#DejaVuSans-48"/>
      </g>
     </g>
    </g>
    <g id="xtick_7">
     <g id="line2d_13">
      <path clip-path="url(#p47a3f44661)" d="M 393.689422 307.584 
L 393.689422 41.472 
" style="fill:none;stroke:#b0b0b0;stroke-linecap:square;stroke-width:0.8;"/>
     </g>
     <g id="line2d_14">
      <g>
       <use style="stroke:#000000;stroke-width:0.8;" x="393.689422" xlink:href="#me512afcab1" y="307.584"/>
      </g>
     </g>
     <g id="text_7">
      <!-- 600 -->
      <defs>
       <path d="M 33.015625 40.375 
Q 26.375 40.375 22.484375 35.828125 
Q 18.609375 31.296875 18.609375 23.390625 
Q 18.609375 15.53125 22.484375 10.953125 
Q 26.375 6.390625 33.015625 6.390625 
Q 39.65625 6.390625 43.53125 10.953125 
Q 47.40625 15.53125 47.40625 23.390625 
Q 47.40625 31.296875 43.53125 35.828125 
Q 39.65625 40.375 33.015625 40.375 
z
M 52.59375 71.296875 
L 52.59375 62.3125 
Q 48.875 64.0625 45.09375 64.984375 
Q 41.3125 65.921875 37.59375 65.921875 
Q 27.828125 65.921875 22.671875 59.328125 
Q 17.53125 52.734375 16.796875 39.40625 
Q 19.671875 43.65625 24.015625 45.921875 
Q 28.375 48.1875 33.59375 48.1875 
Q 44.578125 48.1875 50.953125 41.515625 
Q 57.328125 34.859375 57.328125 23.390625 
Q 57.328125 12.15625 50.6875 5.359375 
Q 44.046875 -1.421875 33.015625 -1.421875 
Q 20.359375 -1.421875 13.671875 8.265625 
Q 6.984375 17.96875 6.984375 36.375 
Q 6.984375 53.65625 15.1875 63.9375 
Q 23.390625 74.21875 37.203125 74.21875 
Q 40.921875 74.21875 44.703125 73.484375 
Q 48.484375 72.75 52.59375 71.296875 
z
" id="DejaVuSans-54"/>
      </defs>
      <g transform="translate(384.145672 322.182437)scale(0.1 -0.1)">
       <use xlink:href="#DejaVuSans-54"/>
       <use x="63.623047" xlink:href="#DejaVuSans-48"/>
       <use x="127.246094" xlink:href="#DejaVuSans-48"/>
      </g>
     </g>
    </g>
    <g id="text_8">
     <!-- Generations -->
     <defs>
      <path d="M 59.515625 10.40625 
L 59.515625 29.984375 
L 43.40625 29.984375 
L 43.40625 38.09375 
L 69.28125 38.09375 
L 69.28125 6.78125 
Q 63.578125 2.734375 56.6875 0.65625 
Q 49.8125 -1.421875 42 -1.421875 
Q 24.90625 -1.421875 15.25 8.5625 
Q 5.609375 18.5625 5.609375 36.375 
Q 5.609375 54.25 15.25 64.234375 
Q 24.90625 74.21875 42 74.21875 
Q 49.125 74.21875 55.546875 72.453125 
Q 61.96875 70.703125 67.390625 67.28125 
L 67.390625 56.78125 
Q 61.921875 61.421875 55.765625 63.765625 
Q 49.609375 66.109375 42.828125 66.109375 
Q 29.4375 66.109375 22.71875 58.640625 
Q 16.015625 51.171875 16.015625 36.375 
Q 16.015625 21.625 22.71875 14.15625 
Q 29.4375 6.6875 42.828125 6.6875 
Q 48.046875 6.6875 52.140625 7.59375 
Q 56.25 8.5 59.515625 10.40625 
z
" id="DejaVuSans-71"/>
      <path d="M 56.203125 29.59375 
L 56.203125 25.203125 
L 14.890625 25.203125 
Q 15.484375 15.921875 20.484375 11.0625 
Q 25.484375 6.203125 34.421875 6.203125 
Q 39.59375 6.203125 44.453125 7.46875 
Q 49.3125 8.734375 54.109375 11.28125 
L 54.109375 2.78125 
Q 49.265625 0.734375 44.1875 -0.34375 
Q 39.109375 -1.421875 33.890625 -1.421875 
Q 20.796875 -1.421875 13.15625 6.1875 
Q 5.515625 13.8125 5.515625 26.8125 
Q 5.515625 40.234375 12.765625 48.109375 
Q 20.015625 56 32.328125 56 
Q 43.359375 56 49.78125 48.890625 
Q 56.203125 41.796875 56.203125 29.59375 
z
M 47.21875 32.234375 
Q 47.125 39.59375 43.09375 43.984375 
Q 39.0625 48.390625 32.421875 48.390625 
Q 24.90625 48.390625 20.390625 44.140625 
Q 15.875 39.890625 15.1875 32.171875 
z
" id="DejaVuSans-101"/>
      <path d="M 54.890625 33.015625 
L 54.890625 0 
L 45.90625 0 
L 45.90625 32.71875 
Q 45.90625 40.484375 42.875 44.328125 
Q 39.84375 48.1875 33.796875 48.1875 
Q 26.515625 48.1875 22.3125 43.546875 
Q 18.109375 38.921875 18.109375 30.90625 
L 18.109375 0 
L 9.078125 0 
L 9.078125 54.6875 
L 18.109375 54.6875 
L 18.109375 46.1875 
Q 21.34375 51.125 25.703125 53.5625 
Q 30.078125 56 35.796875 56 
Q 45.21875 56 50.046875 50.171875 
Q 54.890625 44.34375 54.890625 33.015625 
z
" id="DejaVuSans-110"/>
      <path d="M 41.109375 46.296875 
Q 39.59375 47.171875 37.8125 47.578125 
Q 36.03125 48 33.890625 48 
Q 26.265625 48 22.1875 43.046875 
Q 18.109375 38.09375 18.109375 28.8125 
L 18.109375 0 
L 9.078125 0 
L 9.078125 54.6875 
L 18.109375 54.6875 
L 18.109375 46.1875 
Q 20.953125 51.171875 25.484375 53.578125 
Q 30.03125 56 36.53125 56 
Q 37.453125 56 38.578125 55.875 
Q 39.703125 55.765625 41.0625 55.515625 
z
" id="DejaVuSans-114"/>
      <path d="M 34.28125 27.484375 
Q 23.390625 27.484375 19.1875 25 
Q 14.984375 22.515625 14.984375 16.5 
Q 14.984375 11.71875 18.140625 8.90625 
Q 21.296875 6.109375 26.703125 6.109375 
Q 34.1875 6.109375 38.703125 11.40625 
Q 43.21875 16.703125 43.21875 25.484375 
L 43.21875 27.484375 
z
M 52.203125 31.203125 
L 52.203125 0 
L 43.21875 0 
L 43.21875 8.296875 
Q 40.140625 3.328125 35.546875 0.953125 
Q 30.953125 -1.421875 24.3125 -1.421875 
Q 15.921875 -1.421875 10.953125 3.296875 
Q 6 8.015625 6 15.921875 
Q 6 25.140625 12.171875 29.828125 
Q 18.359375 34.515625 30.609375 34.515625 
L 43.21875 34.515625 
L 43.21875 35.40625 
Q 43.21875 41.609375 39.140625 45 
Q 35.0625 48.390625 27.6875 48.390625 
Q 23 48.390625 18.546875 47.265625 
Q 14.109375 46.140625 10.015625 43.890625 
L 10.015625 52.203125 
Q 14.9375 54.109375 19.578125 55.046875 
Q 24.21875 56 28.609375 56 
Q 40.484375 56 46.34375 49.84375 
Q 52.203125 43.703125 52.203125 31.203125 
z
" id="DejaVuSans-97"/>
      <path d="M 18.3125 70.21875 
L 18.3125 54.6875 
L 36.8125 54.6875 
L 36.8125 47.703125 
L 18.3125 47.703125 
L 18.3125 18.015625 
Q 18.3125 11.328125 20.140625 9.421875 
Q 21.96875 7.515625 27.59375 7.515625 
L 36.8125 7.515625 
L 36.8125 0 
L 27.59375 0 
Q 17.1875 0 13.234375 3.875 
Q 9.28125 7.765625 9.28125 18.015625 
L 9.28125 47.703125 
L 2.6875 47.703125 
L 2.6875 54.6875 
L 9.28125 54.6875 
L 9.28125 70.21875 
z
" id="DejaVuSans-116"/>
      <path d="M 9.421875 54.6875 
L 18.40625 54.6875 
L 18.40625 0 
L 9.421875 0 
z
M 9.421875 75.984375 
L 18.40625 75.984375 
L 18.40625 64.59375 
L 9.421875 64.59375 
z
" id="DejaVuSans-105"/>
      <path d="M 30.609375 48.390625 
Q 23.390625 48.390625 19.1875 42.75 
Q 14.984375 37.109375 14.984375 27.296875 
Q 14.984375 17.484375 19.15625 11.84375 
Q 23.34375 6.203125 30.609375 6.203125 
Q 37.796875 6.203125 41.984375 11.859375 
Q 46.1875 17.53125 46.1875 27.296875 
Q 46.1875 37.015625 41.984375 42.703125 
Q 37.796875 48.390625 30.609375 48.390625 
z
M 30.609375 56 
Q 42.328125 56 49.015625 48.375 
Q 55.71875 40.765625 55.71875 27.296875 
Q 55.71875 13.875 49.015625 6.21875 
Q 42.328125 -1.421875 30.609375 -1.421875 
Q 18.84375 -1.421875 12.171875 6.21875 
Q 5.515625 13.875 5.515625 27.296875 
Q 5.515625 40.765625 12.171875 48.375 
Q 18.84375 56 30.609375 56 
z
" id="DejaVuSans-111"/>
      <path d="M 44.28125 53.078125 
L 44.28125 44.578125 
Q 40.484375 46.53125 36.375 47.5 
Q 32.28125 48.484375 27.875 48.484375 
Q 21.1875 48.484375 17.84375 46.4375 
Q 14.5 44.390625 14.5 40.28125 
Q 14.5 37.15625 16.890625 35.375 
Q 19.28125 33.59375 26.515625 31.984375 
L 29.59375 31.296875 
Q 39.15625 29.25 43.1875 25.515625 
Q 47.21875 21.78125 47.21875 15.09375 
Q 47.21875 7.46875 41.1875 3.015625 
Q 35.15625 -1.421875 24.609375 -1.421875 
Q 20.21875 -1.421875 15.453125 -0.5625 
Q 10.6875 0.296875 5.421875 2 
L 5.421875 11.28125 
Q 10.40625 8.6875 15.234375 7.390625 
Q 20.0625 6.109375 24.8125 6.109375 
Q 31.15625 6.109375 34.5625 8.28125 
Q 37.984375 10.453125 37.984375 14.40625 
Q 37.984375 18.0625 35.515625 20.015625 
Q 33.0625 21.96875 24.703125 23.78125 
L 21.578125 24.515625 
Q 13.234375 26.265625 9.515625 29.90625 
Q 5.8125 33.546875 5.8125 39.890625 
Q 5.8125 47.609375 11.28125 51.796875 
Q 16.75 56 26.8125 56 
Q 31.78125 56 36.171875 55.265625 
Q 40.578125 54.546875 44.28125 53.078125 
z
" id="DejaVuSans-115"/>
     </defs>
     <g transform="translate(205.662344 335.860562)scale(0.1 -0.1)">
      <use xlink:href="#DejaVuSans-71"/>
      <use x="77.490234" xlink:href="#DejaVuSans-101"/>
      <use x="139.013672" xlink:href="#DejaVuSans-110"/>
      <use x="202.392578" xlink:href="#DejaVuSans-101"/>
      <use x="263.916016" xlink:href="#DejaVuSans-114"/>
      <use x="305.029297" xlink:href="#DejaVuSans-97"/>
      <use x="366.308594" xlink:href="#DejaVuSans-116"/>
      <use x="405.517578" xlink:href="#DejaVuSans-105"/>
      <use x="433.300781" xlink:href="#DejaVuSans-111"/>
      <use x="494.482422" xlink:href="#DejaVuSans-110"/>
      <use x="557.861328" xlink:href="#DejaVuSans-115"/>
     </g>
    </g>
   </g>
   <g id="matplotlib.axis_2">
    <g id="ytick_1">
     <g id="line2d_15">
      <path clip-path="url(#p47a3f44661)" d="M 57.6 300.825278 
L 414.72 300.825278 
" style="fill:none;stroke:#b0b0b0;stroke-linecap:square;stroke-width:0.8;"/>
     </g>
     <g id="line2d_16">
      <defs>
       <path d="M 0 0 
L -3.5 0 
" id="m70f34c1cf7" style="stroke:#000000;stroke-width:0.8;"/>
      </defs>
      <g>
       <use style="stroke:#000000;stroke-width:0.8;" x="57.6" xlink:href="#m70f34c1cf7" y="300.825278"/>
      </g>
     </g>
     <g id="text_9">
      <!-- 0.60 -->
      <defs>
       <path d="M 10.6875 12.40625 
L 21 12.40625 
L 21 0 
L 10.6875 0 
z
" id="DejaVuSans-46"/>
      </defs>
      <g transform="translate(28.334375 304.624497)scale(0.1 -0.1)">
       <use xlink:href="#DejaVuSans-48"/>
       <use x="63.623047" xlink:href="#DejaVuSans-46"/>
       <use x="95.410156" xlink:href="#DejaVuSans-54"/>
       <use x="159.033203" xlink:href="#DejaVuSans-48"/>
      </g>
     </g>
    </g>
    <g id="ytick_2">
     <g id="line2d_17">
      <path clip-path="url(#p47a3f44661)" d="M 57.6 269.304288 
L 414.72 269.304288 
" style="fill:none;stroke:#b0b0b0;stroke-linecap:square;stroke-width:0.8;"/>
     </g>
     <g id="line2d_18">
      <g>
       <use style="stroke:#000000;stroke-width:0.8;" x="57.6" xlink:href="#m70f34c1cf7" y="269.304288"/>
      </g>
     </g>
     <g id="text_10">
      <!-- 0.65 -->
      <g transform="translate(28.334375 273.103506)scale(0.1 -0.1)">
       <use xlink:href="#DejaVuSans-48"/>
       <use x="63.623047" xlink:href="#DejaVuSans-46"/>
       <use x="95.410156" xlink:href="#DejaVuSans-54"/>
       <use x="159.033203" xlink:href="#DejaVuSans-53"/>
      </g>
     </g>
    </g>
    <g id="ytick_3">
     <g id="line2d_19">
      <path clip-path="url(#p47a3f44661)" d="M 57.6 237.783297 
L 414.72 237.783297 
" style="fill:none;stroke:#b0b0b0;stroke-linecap:square;stroke-width:0.8;"/>
     </g>
     <g id="line2d_20">
      <g>
       <use style="stroke:#000000;stroke-width:0.8;" x="57.6" xlink:href="#m70f34c1cf7" y="237.783297"/>
      </g>
     </g>
     <g id="text_11">
      <!-- 0.70 -->
      <defs>
       <path d="M 8.203125 72.90625 
L 55.078125 72.90625 
L 55.078125 68.703125 
L 28.609375 0 
L 18.3125 0 
L 43.21875 64.59375 
L 8.203125 64.59375 
z
" id="DejaVuSans-55"/>
      </defs>
      <g transform="translate(28.334375 241.582516)scale(0.1 -0.1)">
       <use xlink:href="#DejaVuSans-48"/>
       <use x="63.623047" xlink:href="#DejaVuSans-46"/>
       <use x="95.410156" xlink:href="#DejaVuSans-55"/>
       <use x="159.033203" xlink:href="#DejaVuSans-48"/>
      </g>
     </g>
    </g>
    <g id="ytick_4">
     <g id="line2d_21">
      <path clip-path="url(#p47a3f44661)" d="M 57.6 206.262307 
L 414.72 206.262307 
" style="fill:none;stroke:#b0b0b0;stroke-linecap:square;stroke-width:0.8;"/>
     </g>
     <g id="line2d_22">
      <g>
       <use style="stroke:#000000;stroke-width:0.8;" x="57.6" xlink:href="#m70f34c1cf7" y="206.262307"/>
      </g>
     </g>
     <g id="text_12">
      <!-- 0.75 -->
      <g transform="translate(28.334375 210.061526)scale(0.1 -0.1)">
       <use xlink:href="#DejaVuSans-48"/>
       <use x="63.623047" xlink:href="#DejaVuSans-46"/>
       <use x="95.410156" xlink:href="#DejaVuSans-55"/>
       <use x="159.033203" xlink:href="#DejaVuSans-53"/>
      </g>
     </g>
    </g>
    <g id="ytick_5">
     <g id="line2d_23">
      <path clip-path="url(#p47a3f44661)" d="M 57.6 174.741317 
L 414.72 174.741317 
" style="fill:none;stroke:#b0b0b0;stroke-linecap:square;stroke-width:0.8;"/>
     </g>
     <g id="line2d_24">
      <g>
       <use style="stroke:#000000;stroke-width:0.8;" x="57.6" xlink:href="#m70f34c1cf7" y="174.741317"/>
      </g>
     </g>
     <g id="text_13">
      <!-- 0.80 -->
      <defs>
       <path d="M 31.78125 34.625 
Q 24.75 34.625 20.71875 30.859375 
Q 16.703125 27.09375 16.703125 20.515625 
Q 16.703125 13.921875 20.71875 10.15625 
Q 24.75 6.390625 31.78125 6.390625 
Q 38.8125 6.390625 42.859375 10.171875 
Q 46.921875 13.96875 46.921875 20.515625 
Q 46.921875 27.09375 42.890625 30.859375 
Q 38.875 34.625 31.78125 34.625 
z
M 21.921875 38.8125 
Q 15.578125 40.375 12.03125 44.71875 
Q 8.5 49.078125 8.5 55.328125 
Q 8.5 64.0625 14.71875 69.140625 
Q 20.953125 74.21875 31.78125 74.21875 
Q 42.671875 74.21875 48.875 69.140625 
Q 55.078125 64.0625 55.078125 55.328125 
Q 55.078125 49.078125 51.53125 44.71875 
Q 48 40.375 41.703125 38.8125 
Q 48.828125 37.15625 52.796875 32.3125 
Q 56.78125 27.484375 56.78125 20.515625 
Q 56.78125 9.90625 50.3125 4.234375 
Q 43.84375 -1.421875 31.78125 -1.421875 
Q 19.734375 -1.421875 13.25 4.234375 
Q 6.78125 9.90625 6.78125 20.515625 
Q 6.78125 27.484375 10.78125 32.3125 
Q 14.796875 37.15625 21.921875 38.8125 
z
M 18.3125 54.390625 
Q 18.3125 48.734375 21.84375 45.5625 
Q 25.390625 42.390625 31.78125 42.390625 
Q 38.140625 42.390625 41.71875 45.5625 
Q 45.3125 48.734375 45.3125 54.390625 
Q 45.3125 60.0625 41.71875 63.234375 
Q 38.140625 66.40625 31.78125 66.40625 
Q 25.390625 66.40625 21.84375 63.234375 
Q 18.3125 60.0625 18.3125 54.390625 
z
" id="DejaVuSans-56"/>
      </defs>
      <g transform="translate(28.334375 178.540535)scale(0.1 -0.1)">
       <use xlink:href="#DejaVuSans-48"/>
       <use x="63.623047" xlink:href="#DejaVuSans-46"/>
       <use x="95.410156" xlink:href="#DejaVuSans-56"/>
       <use x="159.033203" xlink:href="#DejaVuSans-48"/>
      </g>
     </g>
    </g>
    <g id="ytick_6">
     <g id="line2d_25">
      <path clip-path="url(#p47a3f44661)" d="M 57.6 143.220326 
L 414.72 143.220326 
" style="fill:none;stroke:#b0b0b0;stroke-linecap:square;stroke-width:0.8;"/>
     </g>
     <g id="line2d_26">
      <g>
       <use style="stroke:#000000;stroke-width:0.8;" x="57.6" xlink:href="#m70f34c1cf7" y="143.220326"/>
      </g>
     </g>
     <g id="text_14">
      <!-- 0.85 -->
      <g transform="translate(28.334375 147.019545)scale(0.1 -0.1)">
       <use xlink:href="#DejaVuSans-48"/>
       <use x="63.623047" xlink:href="#DejaVuSans-46"/>
       <use x="95.410156" xlink:href="#DejaVuSans-56"/>
       <use x="159.033203" xlink:href="#DejaVuSans-53"/>
      </g>
     </g>
    </g>
    <g id="ytick_7">
     <g id="line2d_27">
      <path clip-path="url(#p47a3f44661)" d="M 57.6 111.699336 
L 414.72 111.699336 
" style="fill:none;stroke:#b0b0b0;stroke-linecap:square;stroke-width:0.8;"/>
     </g>
     <g id="line2d_28">
      <g>
       <use style="stroke:#000000;stroke-width:0.8;" x="57.6" xlink:href="#m70f34c1cf7" y="111.699336"/>
      </g>
     </g>
     <g id="text_15">
      <!-- 0.90 -->
      <defs>
       <path d="M 10.984375 1.515625 
L 10.984375 10.5 
Q 14.703125 8.734375 18.5 7.8125 
Q 22.3125 6.890625 25.984375 6.890625 
Q 35.75 6.890625 40.890625 13.453125 
Q 46.046875 20.015625 46.78125 33.40625 
Q 43.953125 29.203125 39.59375 26.953125 
Q 35.25 24.703125 29.984375 24.703125 
Q 19.046875 24.703125 12.671875 31.3125 
Q 6.296875 37.9375 6.296875 49.421875 
Q 6.296875 60.640625 12.9375 67.421875 
Q 19.578125 74.21875 30.609375 74.21875 
Q 43.265625 74.21875 49.921875 64.515625 
Q 56.59375 54.828125 56.59375 36.375 
Q 56.59375 19.140625 48.40625 8.859375 
Q 40.234375 -1.421875 26.421875 -1.421875 
Q 22.703125 -1.421875 18.890625 -0.6875 
Q 15.09375 0.046875 10.984375 1.515625 
z
M 30.609375 32.421875 
Q 37.25 32.421875 41.125 36.953125 
Q 45.015625 41.5 45.015625 49.421875 
Q 45.015625 57.28125 41.125 61.84375 
Q 37.25 66.40625 30.609375 66.40625 
Q 23.96875 66.40625 20.09375 61.84375 
Q 16.21875 57.28125 16.21875 49.421875 
Q 16.21875 41.5 20.09375 36.953125 
Q 23.96875 32.421875 30.609375 32.421875 
z
" id="DejaVuSans-57"/>
      </defs>
      <g transform="translate(28.334375 115.498555)scale(0.1 -0.1)">
       <use xlink:href="#DejaVuSans-48"/>
       <use x="63.623047" xlink:href="#DejaVuSans-46"/>
       <use x="95.410156" xlink:href="#DejaVuSans-57"/>
       <use x="159.033203" xlink:href="#DejaVuSans-48"/>
      </g>
     </g>
    </g>
    <g id="ytick_8">
     <g id="line2d_29">
      <path clip-path="url(#p47a3f44661)" d="M 57.6 80.178346 
L 414.72 80.178346 
" style="fill:none;stroke:#b0b0b0;stroke-linecap:square;stroke-width:0.8;"/>
     </g>
     <g id="line2d_30">
      <g>
       <use style="stroke:#000000;stroke-width:0.8;" x="57.6" xlink:href="#m70f34c1cf7" y="80.178346"/>
      </g>
     </g>
     <g id="text_16">
      <!-- 0.95 -->
      <g transform="translate(28.334375 83.977564)scale(0.1 -0.1)">
       <use xlink:href="#DejaVuSans-48"/>
       <use x="63.623047" xlink:href="#DejaVuSans-46"/>
       <use x="95.410156" xlink:href="#DejaVuSans-57"/>
       <use x="159.033203" xlink:href="#DejaVuSans-53"/>
      </g>
     </g>
    </g>
    <g id="ytick_9">
     <g id="line2d_31">
      <path clip-path="url(#p47a3f44661)" d="M 57.6 48.657355 
L 414.72 48.657355 
" style="fill:none;stroke:#b0b0b0;stroke-linecap:square;stroke-width:0.8;"/>
     </g>
     <g id="line2d_32">
      <g>
       <use style="stroke:#000000;stroke-width:0.8;" x="57.6" xlink:href="#m70f34c1cf7" y="48.657355"/>
      </g>
     </g>
     <g id="text_17">
      <!-- 1.00 -->
      <g transform="translate(28.334375 52.456574)scale(0.1 -0.1)">
       <use xlink:href="#DejaVuSans-49"/>
       <use x="63.623047" xlink:href="#DejaVuSans-46"/>
       <use x="95.410156" xlink:href="#DejaVuSans-48"/>
       <use x="159.033203" xlink:href="#DejaVuSans-48"/>
      </g>
     </g>
    </g>
    <g id="text_18">
     <!-- Fitness -->
     <defs>
      <path d="M 9.8125 72.90625 
L 51.703125 72.90625 
L 51.703125 64.59375 
L 19.671875 64.59375 
L 19.671875 43.109375 
L 48.578125 43.109375 
L 48.578125 34.8125 
L 19.671875 34.8125 
L 19.671875 0 
L 9.8125 0 
z
" id="DejaVuSans-70"/>
     </defs>
     <g transform="translate(22.254687 192.202219)rotate(-90)scale(0.1 -0.1)">
      <use xlink:href="#DejaVuSans-70"/>
      <use x="57.410156" xlink:href="#DejaVuSans-105"/>
      <use x="85.193359" xlink:href="#DejaVuSans-116"/>
      <use x="124.402344" xlink:href="#DejaVuSans-110"/>
      <use x="187.78125" xlink:href="#DejaVuSans-101"/>
      <use x="249.304688" xlink:href="#DejaVuSans-115"/>
      <use x="301.404297" xlink:href="#DejaVuSans-115"/>
     </g>
    </g>
   </g>
   <g id="line2d_33">
    <path clip-path="url(#p47a3f44661)" d="M 73.832727 230.503215 
L 74.365822 174.722068 
L 74.898916 158.021611 
L 75.432011 146.252394 
L 75.965105 156.018346 
L 76.4982 142.731863 
L 77.031294 137.496294 
L 77.564389 138.338521 
L 78.097483 135.534321 
L 78.630578 130.759016 
L 79.163672 132.030202 
L 79.696767 139.267038 
L 80.229861 133.731006 
L 80.762956 134.923459 
L 81.29605 133.306387 
L 81.829145 130.142699 
L 82.362239 128.953988 
L 82.895334 137.313971 
L 83.428428 131.149712 
L 83.961523 129.540023 
L 84.494617 138.719252 
L 85.027712 133.05015 
L 85.560806 131.661548 
L 86.093901 141.136377 
L 86.626995 147.890308 
L 87.16009 147.704779 
L 87.693184 153.106423 
L 88.226279 152.776013 
L 88.759373 142.366312 
L 89.292468 139.405915 
L 89.825562 143.818082 
L 90.358657 152.740853 
L 90.891751 153.61493 
L 91.424845 159.921227 
L 91.95794 152.725207 
L 92.491034 150.592633 
L 93.024129 151.086706 
L 94.090318 137.640051 
L 94.623412 141.922199 
L 95.156507 144.52609 
L 95.689601 155.495546 
L 96.222696 145.227901 
L 96.75579 152.829668 
L 97.288885 150.572749 
L 97.821979 145.227897 
L 98.355074 137.873463 
L 99.954357 150.269611 
L 100.487452 146.693338 
L 101.020546 139.453226 
L 101.553641 143.123453 
L 102.086735 149.8881 
L 102.61983 145.971158 
L 103.152924 148.361761 
L 103.686019 147.12036 
L 104.219113 145.509701 
L 104.752208 135.323868 
L 105.285302 132.918163 
L 106.351491 143.779002 
L 106.884586 152.625441 
L 107.41768 142.10753 
L 107.950775 138.619219 
L 108.483869 139.723544 
L 109.016964 139.471087 
L 109.550058 128.326716 
L 110.083153 143.785148 
L 110.616247 141.859111 
L 111.149342 143.366431 
L 111.682436 148.335701 
L 112.215531 124.104342 
L 112.748625 141.195753 
L 113.28172 144.257988 
L 113.814814 139.02603 
L 114.347909 142.644787 
L 114.881003 137.813791 
L 115.414098 139.386242 
L 115.947192 138.823158 
L 116.480287 129.213476 
L 117.013381 145.224822 
L 117.546476 145.695826 
L 118.07957 147.116574 
L 118.612665 143.710801 
L 119.145759 133.305868 
L 119.678854 135.287084 
L 120.211948 141.236316 
L 120.745043 151.53546 
L 121.278137 141.422652 
L 121.811232 142.393643 
L 122.344326 140.88077 
L 122.877421 143.138091 
L 123.410515 135.798353 
L 123.943609 139.497103 
L 124.476704 148.190085 
L 125.009798 152.144198 
L 125.542893 138.181036 
L 126.075987 135.266656 
L 126.609082 136.563872 
L 127.142176 147.072678 
L 127.675271 141.832193 
L 128.208365 148.422802 
L 128.74146 140.284839 
L 129.274554 142.867015 
L 129.807649 128.872217 
L 130.340743 148.834125 
L 130.873838 138.491102 
L 131.406932 150.895619 
L 131.940027 142.937516 
L 132.473121 148.485919 
L 133.006216 141.040267 
L 133.53931 144.213465 
L 134.072405 149.379944 
L 134.605499 140.581193 
L 135.138594 125.606463 
L 135.671688 142.286362 
L 136.204783 140.781214 
L 136.737877 148.482344 
L 137.270972 143.146332 
L 137.804066 146.833762 
L 138.337161 146.018212 
L 138.870255 151.058362 
L 139.40335 142.448273 
L 139.936444 135.837233 
L 140.469539 146.194833 
L 141.002633 139.885986 
L 141.535728 148.778833 
L 142.068822 138.588896 
L 142.601917 147.20771 
L 143.135011 147.107084 
L 143.668106 146.374037 
L 144.2012 139.230498 
L 144.734295 136.063555 
L 145.267389 142.106423 
L 145.800484 135.000832 
L 146.333578 131.782572 
L 146.866673 141.752686 
L 147.399767 146.254287 
L 147.932862 142.252516 
L 148.465956 133.549003 
L 148.999051 144.264789 
L 149.532145 145.878318 
L 150.06524 138.873307 
L 150.598334 145.564701 
L 151.131429 143.474308 
L 151.664523 143.538452 
L 152.197618 151.700498 
L 152.730712 148.75311 
L 153.263807 144.682591 
L 153.796901 134.697116 
L 154.329996 152.384257 
L 154.86309 143.009505 
L 155.396185 148.039761 
L 155.929279 146.715972 
L 156.462373 141.199518 
L 156.995468 145.830434 
L 157.528562 135.09848 
L 158.061657 141.544848 
L 158.594751 144.273365 
L 159.127846 146.154859 
L 159.66094 152.913017 
L 160.194035 139.769179 
L 160.727129 148.893198 
L 161.260224 150.8287 
L 161.793318 140.774251 
L 162.326413 154.060694 
L 162.859507 135.338123 
L 163.392602 150.322046 
L 163.925696 134.250249 
L 164.458791 145.939713 
L 165.52498 143.809953 
L 166.058074 145.064947 
L 166.591169 136.572992 
L 167.124263 152.053182 
L 167.657358 151.68375 
L 168.190452 156.659167 
L 168.723547 147.53666 
L 169.256641 134.595518 
L 169.789736 150.704956 
L 170.32283 133.858478 
L 170.855925 150.680026 
L 171.389019 134.717677 
L 171.922114 145.404427 
L 172.455208 142.449845 
L 172.988303 141.053163 
L 173.521397 143.351856 
L 174.054492 137.956894 
L 174.587586 149.409057 
L 175.120681 154.138346 
L 175.653775 146.317842 
L 176.18687 150.348899 
L 176.719964 144.555502 
L 177.253059 134.39869 
L 177.786153 141.672437 
L 178.319248 142.626884 
L 178.852342 142.367775 
L 179.385437 148.457405 
L 179.918531 139.967338 
L 180.451626 141.847146 
L 180.98472 141.31013 
L 181.517815 147.773719 
L 182.050909 143.792064 
L 182.584004 148.649399 
L 183.117098 142.497077 
L 183.650193 134.911834 
L 184.183287 144.490602 
L 184.716382 139.174373 
L 185.249476 146.923553 
L 186.315665 134.01053 
L 186.84876 155.549921 
L 187.381854 148.476393 
L 187.914948 134.726795 
L 188.448043 145.637309 
L 188.981137 146.231565 
L 190.047326 132.672069 
L 190.580421 136.390453 
L 191.113515 137.344336 
L 191.64661 143.317686 
L 192.179704 147.63877 
L 192.712799 137.110405 
L 193.245893 137.866153 
L 193.778988 141.096743 
L 194.312082 138.32362 
L 194.845177 138.31389 
L 195.378271 140.138157 
L 195.911366 134.914539 
L 196.44446 138.508333 
L 196.977555 135.990853 
L 197.510649 144.211877 
L 198.043744 145.808469 
L 198.576838 143.134299 
L 199.109933 132.764676 
L 199.643027 155.403019 
L 200.176122 143.759039 
L 200.709216 144.61463 
L 201.242311 136.975376 
L 201.775405 133.707872 
L 202.3085 144.416393 
L 202.841594 142.689018 
L 203.374689 135.023789 
L 203.907783 141.706605 
L 204.440878 131.841096 
L 204.973972 136.936244 
L 205.507067 135.863885 
L 206.040161 139.574601 
L 206.573256 140.47492 
L 207.10635 135.299363 
L 207.639445 144.443364 
L 208.172539 140.156502 
L 208.705634 145.819564 
L 209.238728 136.596013 
L 209.771823 145.567128 
L 210.304917 148.47901 
L 210.838012 136.037918 
L 211.371106 144.311209 
L 211.904201 148.256805 
L 212.437295 138.619198 
L 212.97039 139.987264 
L 213.503484 140.626352 
L 214.036579 143.575747 
L 214.569673 144.299042 
L 215.102768 139.915582 
L 215.635862 144.979406 
L 216.168957 143.717798 
L 216.702051 144.259775 
L 217.235146 138.391682 
L 217.76824 141.518815 
L 218.301335 147.409635 
L 218.834429 141.584902 
L 219.367524 141.182307 
L 219.900618 153.220767 
L 220.433712 138.144288 
L 220.966807 145.125032 
L 221.499901 149.269831 
L 222.032996 144.480891 
L 222.56609 137.488442 
L 223.099185 139.274072 
L 223.632279 147.653019 
L 224.165374 142.821454 
L 224.698468 145.896091 
L 225.231563 131.454988 
L 225.764657 149.950295 
L 226.297752 138.210727 
L 226.830846 135.706156 
L 227.363941 135.317506 
L 227.897035 140.945558 
L 228.43013 139.252694 
L 228.963224 145.110402 
L 229.496319 138.236851 
L 230.029413 135.854387 
L 230.562508 141.559776 
L 231.095602 137.474412 
L 231.628697 141.291359 
L 232.161791 142.696277 
L 232.694886 134.98203 
L 233.22798 144.480522 
L 233.761075 146.506986 
L 234.294169 137.715185 
L 234.827264 140.877298 
L 235.360358 154.279851 
L 235.893453 156.058848 
L 236.426547 145.370916 
L 236.959642 138.729198 
L 237.492736 145.999663 
L 238.025831 139.843556 
L 238.558925 151.551811 
L 239.09202 140.051523 
L 239.625114 144.820347 
L 240.158209 139.04437 
L 240.691303 141.555222 
L 241.224398 142.749829 
L 241.757492 135.676733 
L 242.290587 143.464361 
L 242.823681 138.407649 
L 243.356776 151.048399 
L 243.88987 158.553492 
L 244.422965 135.048277 
L 244.956059 139.553079 
L 245.489154 131.880492 
L 246.022248 140.488305 
L 246.555343 133.134354 
L 247.088437 141.554527 
L 247.621532 135.134583 
L 248.154626 144.03955 
L 248.687721 140.439409 
L 249.220815 134.89098 
L 249.75391 135.532829 
L 250.287004 139.717784 
L 250.820099 151.185922 
L 251.353193 142.237036 
L 251.886288 140.11456 
L 252.419382 153.806905 
L 252.952476 136.203861 
L 253.485571 134.816296 
L 254.018665 144.868239 
L 254.55176 147.415539 
L 255.084854 147.320579 
L 255.617949 147.537465 
L 256.151043 145.697373 
L 256.684138 145.794298 
L 257.217232 132.933145 
L 257.750327 152.99878 
L 258.283421 141.888708 
L 258.816516 153.117186 
L 259.34961 145.284965 
L 259.882705 139.102839 
L 260.415799 145.910877 
L 260.948894 133.305127 
L 261.481988 137.467763 
L 262.015083 136.123805 
L 262.548177 138.833912 
L 263.081272 137.478611 
L 263.614366 126.688255 
L 264.147461 142.412608 
L 264.680555 142.478666 
L 265.21365 153.024937 
L 265.746744 140.284958 
L 266.279839 148.609341 
L 266.812933 143.643891 
L 267.346028 134.298097 
L 267.879122 146.16013 
L 268.412217 153.058724 
L 269.478406 136.323819 
L 270.0115 149.05898 
L 271.077689 134.609075 
L 271.610784 135.066907 
L 272.143878 142.073251 
L 272.676973 142.970806 
L 273.210067 133.674062 
L 273.743162 138.606573 
L 274.276256 140.032462 
L 274.809351 140.992648 
L 275.342445 124.064039 
L 275.87554 144.450343 
L 276.408634 149.651521 
L 276.941729 138.919925 
L 277.474823 143.27484 
L 278.007918 139.88183 
L 278.541012 153.994945 
L 279.074107 139.692044 
L 279.607201 132.923642 
L 280.140296 144.436716 
L 280.67339 141.36182 
L 281.206485 148.595246 
L 281.739579 140.909278 
L 282.272674 149.556548 
L 282.805768 150.37344 
L 283.338863 150.87237 
L 284.405052 136.673173 
L 284.938146 147.373564 
L 285.47124 147.350612 
L 286.004335 138.882522 
L 286.537429 159.121083 
L 287.070524 151.923784 
L 287.603618 136.056971 
L 288.136713 155.230348 
L 288.669807 142.567801 
L 289.202902 142.775466 
L 289.735996 151.372787 
L 290.269091 147.013928 
L 290.802185 146.989494 
L 291.33528 140.175286 
L 291.868374 139.534877 
L 292.401469 140.241701 
L 292.934563 139.306673 
L 293.467658 147.37276 
L 294.000752 142.121696 
L 294.533847 153.96002 
L 295.600036 148.463552 
L 296.13313 136.88016 
L 296.666225 146.701314 
L 297.199319 142.932953 
L 297.732414 151.204626 
L 298.265508 136.002562 
L 298.798603 153.450737 
L 299.331697 156.244125 
L 299.864792 142.340172 
L 300.397886 145.255753 
L 300.930981 143.968172 
L 301.464075 143.559306 
L 301.99717 138.145784 
L 302.530264 144.212644 
L 303.063359 135.519775 
L 303.596453 135.034732 
L 304.129548 146.856732 
L 304.662642 153.829475 
L 305.195737 151.384553 
L 305.728831 147.813761 
L 306.261926 140.38638 
L 306.79502 142.210807 
L 307.328115 146.972703 
L 307.861209 147.777284 
L 308.394304 138.185843 
L 308.927398 143.847827 
L 309.460493 140.181555 
L 309.993587 146.207246 
L 310.526682 139.025604 
L 311.059776 143.985498 
L 311.592871 143.575428 
L 312.125965 145.351045 
L 312.65906 136.601617 
L 313.192154 132.091823 
L 313.725249 141.145335 
L 314.258343 146.672171 
L 314.791438 143.596992 
L 315.324532 148.159153 
L 315.857627 132.245151 
L 316.390721 147.842578 
L 317.45691 143.34193 
L 317.990004 139.090435 
L 318.523099 136.908922 
L 319.056193 139.783747 
L 320.122382 155.609072 
L 320.655477 145.902838 
L 321.188571 144.740119 
L 321.721666 144.301452 
L 322.25476 136.853778 
L 322.787855 141.241968 
L 323.320949 147.787886 
L 323.854044 137.889507 
L 324.387138 151.431975 
L 324.920233 149.868129 
L 325.453327 153.064062 
L 325.986422 146.226091 
L 326.519516 137.34404 
L 327.052611 140.43742 
L 327.585705 145.334282 
L 328.1188 129.570292 
L 328.651894 142.513916 
L 329.184989 146.162254 
L 329.718083 147.252781 
L 330.251178 141.070422 
L 330.784272 136.7823 
L 331.317367 136.253633 
L 331.850461 144.554216 
L 332.383556 134.767881 
L 332.91665 136.949585 
L 333.449745 137.014237 
L 334.515934 148.907092 
L 335.049028 141.813833 
L 335.582123 141.970977 
L 336.115217 148.411993 
L 336.648312 151.783775 
L 337.181406 146.190139 
L 337.714501 142.326367 
L 338.247595 142.173782 
L 339.313784 143.500249 
L 339.846879 143.732288 
L 340.379973 144.19471 
L 340.913068 159.273028 
L 341.446162 134.603313 
L 341.979257 149.255614 
L 342.512351 144.784067 
L 343.045446 136.502669 
L 343.57854 141.227356 
L 344.111635 140.811358 
L 344.644729 157.891619 
L 345.177824 143.18664 
L 345.710918 142.72475 
L 346.244013 136.069369 
L 346.777107 137.697967 
L 347.310202 145.791512 
L 347.843296 140.982601 
L 348.376391 140.946106 
L 348.909485 145.087276 
L 349.442579 141.925373 
L 349.975674 144.271288 
L 350.508768 139.141329 
L 351.041863 140.535179 
L 352.108052 142.159047 
L 352.641146 139.004604 
L 353.174241 144.998694 
L 353.707335 134.949015 
L 354.24043 154.336799 
L 354.773524 133.828606 
L 355.306619 148.940576 
L 355.839713 140.388364 
L 356.372808 147.984195 
L 356.905902 145.315776 
L 357.972091 146.475677 
L 358.505186 137.076043 
L 359.03828 153.224035 
L 359.571375 148.12976 
L 360.104469 147.921806 
L 360.637564 150.525969 
L 361.170658 137.662466 
L 361.703753 144.10474 
L 362.236847 138.478011 
L 362.769942 142.474662 
L 363.303036 145.329019 
L 363.836131 133.82691 
L 364.369225 140.10385 
L 364.90232 147.968491 
L 365.435414 138.305031 
L 365.968509 135.721519 
L 366.501603 136.367674 
L 367.034698 136.146746 
L 367.567792 133.496292 
L 368.100887 133.767721 
L 368.633981 140.84746 
L 369.167076 140.918843 
L 369.70017 146.590567 
L 370.233265 137.217784 
L 370.766359 142.507166 
L 371.299454 152.032118 
L 371.832548 138.090626 
L 372.365643 145.65058 
L 372.898737 157.702137 
L 373.431832 154.788933 
L 373.964926 154.650469 
L 374.498021 129.648327 
L 375.031115 153.148852 
L 375.56421 141.679196 
L 376.097304 140.963437 
L 376.630399 145.236752 
L 377.163493 135.888461 
L 377.696588 151.945729 
L 378.229682 152.884608 
L 378.762777 148.947541 
L 379.295871 140.209814 
L 379.828966 149.828917 
L 380.36206 148.281961 
L 380.895155 145.406753 
L 381.428249 154.073512 
L 381.961343 135.476624 
L 382.494438 147.348927 
L 383.027532 155.26167 
L 383.560627 144.806703 
L 384.093721 151.793078 
L 384.626816 135.246908 
L 385.15991 132.155523 
L 386.226099 154.723316 
L 386.759194 141.360241 
L 387.292288 153.605096 
L 387.825383 144.772475 
L 388.358477 154.880826 
L 388.891572 143.062036 
L 389.424666 152.98768 
L 389.957761 144.22462 
L 390.490855 138.301879 
L 391.557044 154.59836 
L 392.090139 146.389175 
L 392.623233 143.265928 
L 393.156328 142.72065 
L 393.689422 145.004975 
L 394.222517 143.898358 
L 394.755611 151.793627 
L 395.288706 145.638663 
L 395.8218 146.646659 
L 396.354895 151.84233 
L 396.887989 142.021725 
L 397.421084 161.810655 
L 397.954178 145.557654 
L 398.487273 148.749727 
L 398.487273 148.749727 
" style="fill:none;stroke:#0000ff;stroke-linecap:square;stroke-width:1.5;"/>
   </g>
   <g id="line2d_34">
    <path clip-path="url(#p47a3f44661)" d="M 73.832727 295.488 
L 74.365822 224.801524 
L 75.432011 177.059899 
L 75.965105 203.225861 
L 76.4982 176.046698 
L 77.031294 162.769335 
L 77.564389 168.621739 
L 78.097483 158.146674 
L 78.630578 155.99317 
L 79.163672 157.045703 
L 79.696767 168.430697 
L 80.229861 168.792281 
L 80.762956 161.991528 
L 81.29605 165.658236 
L 81.829145 155.384505 
L 82.362239 155.888826 
L 82.895334 173.700081 
L 83.428428 165.318534 
L 83.961523 161.32863 
L 84.494617 180.830521 
L 85.560806 168.842718 
L 86.093901 195.129448 
L 86.626995 209.97689 
L 87.16009 203.758899 
L 87.693184 215.811202 
L 88.226279 220.121093 
L 88.759373 197.272158 
L 89.292468 194.989073 
L 90.358657 216.838279 
L 90.891751 215.359211 
L 91.424845 231.638871 
L 91.95794 217.200312 
L 92.491034 223.793323 
L 93.024129 216.013996 
L 93.557223 210.026958 
L 94.090318 194.227146 
L 94.623412 199.960552 
L 95.156507 208.803862 
L 95.689601 224.735547 
L 96.222696 211.070835 
L 96.75579 218.781749 
L 97.288885 222.233245 
L 97.821979 214.655112 
L 98.355074 199.562741 
L 98.888168 203.23876 
L 99.421263 215.49954 
L 99.954357 214.337274 
L 101.020546 200.105801 
L 101.553641 208.168362 
L 102.086735 219.372405 
L 102.61983 219.868297 
L 103.152924 213.799427 
L 103.686019 218.585998 
L 104.219113 212.97579 
L 104.752208 191.392164 
L 105.285302 188.745467 
L 106.351491 214.548912 
L 106.884586 226.945008 
L 107.41768 207.978798 
L 107.950775 198.556484 
L 108.483869 206.938027 
L 109.016964 201.09546 
L 109.550058 185.562167 
L 110.083153 204.838402 
L 110.616247 195.264722 
L 111.149342 205.705749 
L 111.682436 218.507212 
L 112.215531 175.387093 
L 112.748625 205.105759 
L 113.28172 208.237271 
L 113.814814 197.741316 
L 114.347909 205.08938 
L 114.881003 203.146207 
L 115.414098 199.578836 
L 115.947192 199.55485 
L 116.480287 183.74406 
L 117.013381 215.470137 
L 117.546476 211.246216 
L 118.07957 213.859319 
L 118.612665 210.662007 
L 119.145759 185.427831 
L 119.678854 196.311372 
L 120.211948 198.726745 
L 120.745043 216.243482 
L 121.278137 204.720061 
L 121.811232 206.964914 
L 122.344326 201.901407 
L 122.877421 209.581019 
L 123.410515 190.82017 
L 124.476704 220.605501 
L 125.009798 222.662303 
L 125.542893 201.610107 
L 126.075987 194.944328 
L 126.609082 199.491505 
L 127.142176 212.475965 
L 127.675271 211.127265 
L 128.208365 214.767436 
L 128.74146 204.377775 
L 129.274554 208.696531 
L 129.807649 187.802535 
L 130.340743 225.6136 
L 130.873838 204.76262 
L 131.406932 216.150513 
L 131.940027 201.193141 
L 132.473121 212.129097 
L 133.006216 202.810458 
L 133.53931 208.379798 
L 134.072405 211.750575 
L 134.605499 201.270191 
L 135.138594 178.340007 
L 135.671688 214.05642 
L 136.204783 206.790691 
L 136.737877 215.05302 
L 137.270972 206.634766 
L 137.804066 207.440202 
L 138.337161 211.566791 
L 138.870255 223.264498 
L 139.40335 202.990988 
L 139.936444 193.326032 
L 140.469539 217.466685 
L 141.002633 208.943983 
L 141.535728 217.588359 
L 142.068822 206.453016 
L 142.601917 219.353051 
L 143.135011 217.484298 
L 143.668106 214.867843 
L 144.2012 202.325284 
L 144.734295 195.782669 
L 145.267389 203.847451 
L 145.800484 194.128872 
L 146.333578 190.65928 
L 146.866673 204.64645 
L 147.399767 203.641644 
L 147.932862 203.815391 
L 148.465956 195.957316 
L 148.999051 216.529979 
L 149.532145 211.52848 
L 150.06524 204.048688 
L 150.598334 202.447174 
L 151.131429 209.087631 
L 151.664523 207.894131 
L 152.197618 221.785083 
L 152.730712 213.946683 
L 153.263807 211.105276 
L 153.796901 192.512441 
L 154.329996 221.45044 
L 154.86309 206.880452 
L 155.396185 211.61281 
L 155.929279 213.130521 
L 156.462373 203.934681 
L 156.995468 210.497439 
L 157.528562 192.333928 
L 158.061657 205.30507 
L 158.594751 211.298298 
L 159.127846 211.792091 
L 159.66094 223.140036 
L 160.194035 197.781057 
L 160.727129 213.080611 
L 161.260224 218.367722 
L 161.793318 204.299597 
L 162.326413 222.94046 
L 162.859507 193.487881 
L 163.392602 217.114391 
L 163.925696 194.955827 
L 164.458791 214.316042 
L 164.991885 212.628063 
L 165.52498 205.962897 
L 166.058074 215.980138 
L 166.591169 203.092597 
L 167.124263 221.287103 
L 167.657358 220.693263 
L 168.190452 226.308542 
L 168.723547 216.441928 
L 169.256641 193.721252 
L 169.789736 219.462795 
L 170.32283 190.424572 
L 170.855925 216.424328 
L 171.389019 192.675021 
L 171.922114 211.667436 
L 172.455208 204.622309 
L 172.988303 204.587501 
L 173.521397 202.01352 
L 174.054492 194.326074 
L 174.587586 217.41516 
L 175.120681 220.642305 
L 175.653775 214.008578 
L 176.18687 220.371597 
L 176.719964 211.623809 
L 177.253059 195.585271 
L 177.786153 203.21227 
L 178.319248 204.778555 
L 178.852342 204.297544 
L 179.385437 214.337316 
L 179.918531 199.297692 
L 180.98472 207.943131 
L 181.517815 216.601338 
L 182.050909 205.38714 
L 182.584004 218.182675 
L 183.650193 193.056104 
L 184.183287 205.745214 
L 184.716382 195.595052 
L 185.249476 207.763982 
L 186.315665 191.313116 
L 186.84876 224.481967 
L 187.381854 212.219838 
L 187.914948 188.920419 
L 188.448043 211.422954 
L 188.981137 205.690908 
L 189.514232 194.389185 
L 190.047326 186.479167 
L 190.580421 193.685086 
L 191.113515 198.402192 
L 191.64661 210.258024 
L 192.179704 214.299943 
L 192.712799 196.953615 
L 193.778988 205.602936 
L 194.312082 197.841014 
L 194.845177 197.262608 
L 195.378271 206.350644 
L 195.911366 192.444075 
L 196.44446 198.926145 
L 196.977555 196.580612 
L 197.510649 213.140456 
L 198.043744 206.427464 
L 198.576838 210.020346 
L 199.109933 192.77188 
L 199.643027 227.497785 
L 200.176122 207.577892 
L 200.709216 209.780647 
L 201.242311 202.816488 
L 201.775405 194.11413 
L 202.3085 204.266904 
L 202.841594 207.305799 
L 203.374689 198.577517 
L 203.907783 203.180049 
L 204.440878 183.88618 
L 204.973972 203.525288 
L 205.507067 199.944724 
L 206.573256 206.196004 
L 207.10635 195.438142 
L 207.639445 215.441543 
L 208.172539 201.333782 
L 208.705634 215.736307 
L 209.238728 202.39164 
L 210.304917 224.01101 
L 210.838012 202.33107 
L 211.904201 218.446631 
L 212.437295 194.834886 
L 212.97039 203.186162 
L 214.036579 209.190036 
L 215.102768 204.640329 
L 215.635862 208.999455 
L 216.168957 206.362975 
L 216.702051 211.753782 
L 217.235146 204.172439 
L 217.76824 204.405886 
L 218.301335 213.468842 
L 218.834429 205.271876 
L 219.367524 203.520212 
L 219.900618 223.767223 
L 220.433712 201.470384 
L 220.966807 207.806619 
L 221.499901 218.876643 
L 222.032996 210.915588 
L 222.56609 192.866782 
L 223.632279 215.980839 
L 224.165374 205.15133 
L 224.698468 214.333838 
L 225.231563 186.045492 
L 225.764657 218.660338 
L 226.297752 198.003828 
L 226.830846 196.726107 
L 227.363941 191.382952 
L 227.897035 203.820072 
L 228.43013 201.641192 
L 228.963224 212.069002 
L 230.029413 194.108537 
L 230.562508 210.48315 
L 231.095602 206.213618 
L 231.628697 206.564494 
L 232.161791 206.086485 
L 232.694886 195.280363 
L 233.22798 206.202355 
L 233.761075 212.989206 
L 234.294169 203.457282 
L 234.827264 199.364691 
L 235.360358 224.72401 
L 235.893453 229.301074 
L 236.426547 210.075998 
L 236.959642 199.031552 
L 237.492736 207.936981 
L 238.025831 204.400446 
L 238.558925 222.569196 
L 239.09202 208.281287 
L 239.625114 220.553544 
L 240.158209 212.151311 
L 240.691303 209.194366 
L 241.224398 213.90579 
L 241.757492 204.25532 
L 242.290587 213.564603 
L 242.823681 206.377154 
L 243.356776 217.428637 
L 243.88987 231.789286 
L 244.422965 196.594046 
L 244.956059 199.781154 
L 245.489154 186.744994 
L 246.022248 204.361545 
L 246.555343 188.140498 
L 247.088437 207.959566 
L 247.621532 199.041001 
L 248.154626 209.867996 
L 249.220815 194.391023 
L 249.75391 193.96717 
L 250.287004 204.507028 
L 250.820099 222.677028 
L 251.353193 207.28117 
L 251.886288 202.141788 
L 252.419382 224.465745 
L 252.952476 193.069734 
L 253.485571 194.404126 
L 254.018665 214.392565 
L 254.55176 209.269853 
L 255.084854 210.621063 
L 255.617949 211.464048 
L 256.151043 211.828458 
L 256.684138 207.901116 
L 257.217232 186.561584 
L 257.750327 219.797143 
L 258.283421 209.026527 
L 258.816516 221.274453 
L 259.34961 209.272972 
L 259.882705 201.690793 
L 260.415799 206.268134 
L 260.948894 186.167957 
L 261.481988 196.666809 
L 262.015083 187.161825 
L 262.548177 196.492808 
L 263.081272 198.069323 
L 263.614366 179.73598 
L 264.147461 208.971545 
L 264.680555 207.599098 
L 265.21365 222.721403 
L 265.746744 205.055269 
L 266.279839 216.121404 
L 267.346028 198.593121 
L 267.879122 215.61874 
L 268.412217 227.522803 
L 269.478406 192.919347 
L 270.0115 215.52469 
L 270.544595 202.637717 
L 271.077689 193.627682 
L 271.610784 193.944841 
L 272.143878 206.043952 
L 272.676973 202.35405 
L 273.210067 187.369413 
L 273.743162 198.151908 
L 274.276256 203.545584 
L 274.809351 206.040878 
L 275.342445 174.161307 
L 275.87554 214.287126 
L 276.408634 219.99549 
L 276.941729 196.5308 
L 277.474823 205.515982 
L 278.007918 202.291673 
L 278.541012 214.667523 
L 279.074107 197.776023 
L 279.607201 188.932013 
L 280.140296 215.322651 
L 280.67339 206.26358 
L 281.206485 209.846205 
L 281.739579 200.54619 
L 282.272674 212.55664 
L 282.805768 217.765435 
L 283.338863 218.884369 
L 283.871957 206.543747 
L 284.405052 190.809883 
L 284.938146 214.161665 
L 285.47124 211.245195 
L 286.004335 193.997388 
L 286.537429 227.473048 
L 287.070524 217.681009 
L 287.603618 194.991289 
L 288.136713 225.775349 
L 288.669807 206.774904 
L 289.202902 204.710992 
L 289.735996 223.536942 
L 291.33528 199.65938 
L 291.868374 196.817218 
L 292.401469 204.111219 
L 292.934563 201.047331 
L 293.467658 210.56031 
L 294.000752 201.399008 
L 294.533847 225.077921 
L 295.066941 218.949814 
L 295.600036 219.177187 
L 296.13313 195.198721 
L 296.666225 213.652213 
L 297.199319 205.440986 
L 297.732414 218.970734 
L 298.265508 193.853985 
L 298.798603 222.03886 
L 299.331697 225.398043 
L 299.864792 205.501003 
L 300.397886 210.884532 
L 300.930981 205.090744 
L 301.464075 208.854367 
L 301.99717 198.296788 
L 302.530264 207.34187 
L 303.063359 191.853289 
L 303.596453 190.654655 
L 304.129548 214.235023 
L 304.662642 226.930098 
L 305.195737 222.030064 
L 305.728831 220.195166 
L 306.261926 201.760769 
L 306.79502 201.427129 
L 307.328115 215.797516 
L 307.861209 210.738226 
L 308.394304 192.75981 
L 308.927398 206.652974 
L 309.460493 202.884411 
L 309.993587 215.41589 
L 310.526682 198.753903 
L 311.059776 206.618082 
L 311.592871 208.67141 
L 312.125965 209.108925 
L 312.65906 195.450015 
L 313.192154 185.391536 
L 314.258343 216.779708 
L 314.791438 210.595241 
L 315.324532 220.356426 
L 315.857627 191.788066 
L 316.390721 224.553938 
L 316.923815 217.124931 
L 317.45691 203.101885 
L 317.990004 202.354457 
L 318.523099 203.122991 
L 319.056193 199.248802 
L 319.589288 209.572845 
L 320.122382 223.214761 
L 320.655477 208.17714 
L 321.188571 211.691538 
L 321.721666 209.56817 
L 322.25476 191.140961 
L 322.787855 206.950354 
L 323.320949 213.322761 
L 323.854044 197.878754 
L 324.387138 223.819025 
L 324.920233 222.372979 
L 325.453327 222.267056 
L 325.986422 211.686314 
L 326.519516 189.294239 
L 327.052611 204.408379 
L 327.585705 209.307772 
L 328.1188 188.153867 
L 328.651894 207.998687 
L 329.184989 207.479829 
L 329.718083 216.710354 
L 330.251178 206.196707 
L 330.784272 199.862706 
L 331.317367 201.081173 
L 331.850461 214.809063 
L 332.383556 191.247508 
L 332.91665 198.514845 
L 333.449745 199.798348 
L 334.515934 216.661982 
L 335.049028 201.09503 
L 335.582123 206.835197 
L 336.115217 214.143218 
L 336.648312 219.102288 
L 337.181406 214.329206 
L 337.714501 203.763717 
L 338.247595 202.461054 
L 338.78069 208.950378 
L 339.313784 206.11732 
L 339.846879 208.986542 
L 340.379973 210.874562 
L 340.913068 228.663534 
L 341.446162 189.844852 
L 341.979257 218.259962 
L 342.512351 216.811183 
L 343.045446 200.927435 
L 343.57854 202.528945 
L 344.111635 203.036573 
L 344.644729 227.908137 
L 345.177824 205.846062 
L 345.710918 210.50197 
L 346.244013 194.733083 
L 346.777107 200.354648 
L 347.310202 212.29075 
L 347.843296 205.691787 
L 348.376391 206.921051 
L 348.909485 212.503474 
L 349.442579 203.205762 
L 349.975674 209.584472 
L 350.508768 203.688489 
L 351.041863 202.831444 
L 351.574957 199.459141 
L 352.108052 206.684553 
L 352.641146 202.40399 
L 353.174241 209.013867 
L 353.707335 188.785902 
L 354.24043 225.044275 
L 354.773524 191.405174 
L 355.306619 218.790391 
L 355.839713 208.054508 
L 356.372808 212.132181 
L 356.905902 207.210731 
L 357.438997 215.905535 
L 358.505186 195.922648 
L 359.03828 223.235568 
L 359.571375 212.06115 
L 360.104469 220.569009 
L 360.637564 224.689718 
L 361.170658 197.377331 
L 361.703753 210.585379 
L 362.236847 197.055594 
L 362.769942 201.179176 
L 363.303036 211.323428 
L 363.836131 190.623395 
L 364.369225 200.178208 
L 364.90232 205.949409 
L 365.435414 193.610593 
L 365.968509 186.331743 
L 366.501603 189.584227 
L 367.034698 196.218966 
L 367.567792 189.985513 
L 368.100887 187.930371 
L 368.633981 200.264908 
L 369.70017 210.723569 
L 370.233265 195.745721 
L 370.766359 199.080345 
L 371.299454 221.176038 
L 371.832548 194.109853 
L 372.898737 229.941786 
L 373.431832 229.036159 
L 373.964926 224.992668 
L 374.498021 183.757291 
L 375.031115 225.882036 
L 375.56421 205.511487 
L 376.097304 200.737783 
L 376.630399 211.344527 
L 377.163493 198.340606 
L 377.696588 222.917543 
L 378.229682 223.259833 
L 378.762777 214.241721 
L 379.295871 202.517315 
L 379.828966 220.512217 
L 380.36206 217.339669 
L 380.895155 204.844413 
L 381.428249 228.176239 
L 381.961343 198.791439 
L 382.494438 217.91598 
L 383.027532 226.012375 
L 383.560627 211.856379 
L 384.093721 218.799441 
L 384.626816 191.160188 
L 385.15991 190.541012 
L 385.693005 217.950559 
L 386.226099 230.789475 
L 386.759194 206.027056 
L 387.292288 219.80074 
L 387.825383 210.496657 
L 388.358477 223.094892 
L 388.891572 208.539369 
L 389.424666 229.5376 
L 389.957761 204.759288 
L 390.490855 194.943188 
L 391.02395 214.835209 
L 391.557044 226.086785 
L 392.090139 211.442689 
L 392.623233 207.1377 
L 393.156328 205.647314 
L 393.689422 215.914162 
L 394.222517 208.811893 
L 394.755611 223.822398 
L 395.288706 213.90514 
L 395.8218 213.954618 
L 396.354895 219.961855 
L 396.887989 206.35105 
L 397.421084 235.791792 
L 397.954178 210.407775 
L 398.487273 215.16959 
L 398.487273 215.16959 
" style="fill:none;stroke:#008000;stroke-dasharray:9.6,2.4,1.5,2.4;stroke-dashoffset:0;stroke-width:1.5;"/>
   </g>
   <g id="line2d_35">
    <path clip-path="url(#p47a3f44661)" d="M 73.832727 165.51843 
L 74.365822 124.642611 
L 74.898916 113.113317 
L 75.432011 115.444889 
L 75.965105 108.810831 
L 76.4982 109.417028 
L 77.031294 112.223254 
L 77.564389 108.055304 
L 78.097483 112.921968 
L 78.630578 105.524861 
L 79.163672 107.014702 
L 79.696767 110.103379 
L 80.229861 98.669731 
L 80.762956 107.855389 
L 81.29605 100.954539 
L 81.829145 104.900893 
L 82.362239 102.019151 
L 82.895334 100.92786 
L 83.428428 96.98089 
L 83.961523 97.751417 
L 84.494617 96.607983 
L 85.027712 91.718484 
L 85.560806 94.480378 
L 86.093901 87.143306 
L 86.626995 85.803725 
L 87.16009 91.650658 
L 87.693184 90.401643 
L 88.226279 85.430933 
L 88.759373 87.460467 
L 89.292468 83.822756 
L 89.825562 81.689619 
L 90.358657 88.643428 
L 90.891751 91.870649 
L 91.424845 88.203582 
L 91.95794 88.250103 
L 92.491034 77.391942 
L 93.024129 86.159416 
L 93.557223 79.422716 
L 94.090318 81.052956 
L 94.623412 83.883846 
L 95.156507 80.248318 
L 95.689601 86.255546 
L 96.222696 79.384967 
L 96.75579 86.877587 
L 97.288885 78.912254 
L 97.821979 75.800683 
L 98.355074 76.184185 
L 98.888168 81.296368 
L 99.421263 78.612112 
L 99.954357 86.201948 
L 100.487452 85.907432 
L 101.020546 78.800651 
L 101.553641 78.078543 
L 102.086735 80.403796 
L 102.61983 72.07402 
L 103.152924 82.924094 
L 103.686019 75.654722 
L 104.219113 78.043613 
L 104.752208 79.255571 
L 105.285302 77.090858 
L 105.818397 73.402366 
L 106.351491 73.009093 
L 106.884586 78.305875 
L 107.41768 76.236263 
L 107.950775 78.681955 
L 108.483869 72.509061 
L 109.016964 77.846715 
L 109.550058 71.091264 
L 110.083153 82.731894 
L 110.616247 88.453501 
L 111.149342 81.027112 
L 111.682436 78.16419 
L 112.215531 72.821591 
L 112.748625 77.285747 
L 113.28172 80.278705 
L 113.814814 80.310743 
L 114.347909 80.200194 
L 114.881003 72.481375 
L 115.414098 79.193648 
L 115.947192 78.091466 
L 116.480287 74.682891 
L 117.013381 74.979507 
L 117.546476 80.145436 
L 118.07957 80.373829 
L 118.612665 76.759596 
L 119.145759 81.183905 
L 119.678854 74.262797 
L 120.211948 83.745887 
L 120.745043 86.827437 
L 121.278137 78.125243 
L 121.811232 77.822373 
L 122.344326 79.860134 
L 122.877421 76.695162 
L 123.410515 80.776536 
L 123.943609 73.728943 
L 124.476704 75.774668 
L 125.009798 81.626093 
L 125.542893 74.751966 
L 126.075987 75.588985 
L 126.609082 73.636239 
L 127.142176 81.669392 
L 127.675271 72.537121 
L 128.208365 82.078169 
L 128.74146 76.191904 
L 129.274554 77.037498 
L 129.807649 69.941898 
L 130.340743 72.05465 
L 130.873838 72.219585 
L 131.406932 85.640724 
L 131.940027 84.681891 
L 132.473121 84.842741 
L 133.006216 79.270077 
L 133.53931 80.047132 
L 134.072405 87.009312 
L 135.138594 72.872919 
L 135.671688 70.516305 
L 136.204783 74.771738 
L 136.737877 81.911668 
L 137.270972 79.657898 
L 137.804066 86.227322 
L 138.337161 80.469633 
L 138.870255 78.852226 
L 139.40335 81.905558 
L 141.002633 70.82799 
L 141.535728 79.969307 
L 142.068822 70.724777 
L 142.601917 75.062369 
L 143.135011 76.729869 
L 143.668106 77.880231 
L 144.2012 76.135712 
L 144.734295 76.344442 
L 145.267389 80.365395 
L 145.800484 75.872791 
L 146.333578 72.905865 
L 146.866673 78.858921 
L 147.399767 88.866929 
L 148.465956 71.140689 
L 148.999051 71.9996 
L 149.532145 80.228156 
L 150.06524 73.697927 
L 150.598334 88.682228 
L 151.131429 77.860986 
L 151.664523 79.182772 
L 152.730712 83.559537 
L 153.263807 78.259906 
L 153.796901 76.881792 
L 154.329996 83.318074 
L 154.86309 79.138559 
L 155.396185 84.466712 
L 155.929279 80.301422 
L 156.462373 78.464355 
L 156.995468 81.163429 
L 157.528562 77.863032 
L 158.061657 77.784626 
L 158.594751 77.248431 
L 159.127846 80.517628 
L 159.66094 82.685998 
L 160.194035 81.757301 
L 160.727129 84.705784 
L 161.260224 83.289678 
L 161.793318 77.248905 
L 162.326413 85.180928 
L 162.859507 77.188365 
L 163.392602 83.529702 
L 163.925696 73.544671 
L 164.458791 77.563384 
L 164.991885 77.284361 
L 165.52498 81.657008 
L 166.058074 74.149756 
L 166.591169 70.053388 
L 167.124263 82.819261 
L 167.657358 82.674238 
L 168.190452 87.009792 
L 168.723547 78.631392 
L 169.256641 75.469783 
L 169.789736 81.947116 
L 170.32283 77.292384 
L 170.855925 84.935724 
L 171.389019 76.760333 
L 171.922114 79.141417 
L 172.455208 80.277381 
L 172.988303 77.518826 
L 173.521397 84.690192 
L 174.054492 81.587714 
L 174.587586 81.402954 
L 175.120681 87.634387 
L 175.653775 78.627106 
L 176.18687 80.326201 
L 176.719964 77.487196 
L 177.253059 73.212108 
L 177.786153 80.132603 
L 178.319248 80.475212 
L 178.852342 80.438007 
L 179.385437 82.577494 
L 179.918531 80.636985 
L 180.451626 79.76735 
L 180.98472 74.677129 
L 181.517815 78.9461 
L 182.050909 82.196987 
L 182.584004 79.116123 
L 183.117098 78.964626 
L 183.650193 76.767564 
L 184.183287 83.23599 
L 184.716382 82.753694 
L 185.249476 86.083125 
L 186.315665 76.707944 
L 186.84876 86.617875 
L 187.381854 84.732949 
L 187.914948 80.533171 
L 188.448043 79.851664 
L 188.981137 86.772222 
L 189.514232 83.874564 
L 190.047326 78.864971 
L 190.580421 79.095819 
L 191.113515 76.28648 
L 191.64661 76.377348 
L 192.179704 80.977597 
L 193.245893 74.121954 
L 194.312082 78.806226 
L 194.845177 79.365171 
L 195.378271 73.92567 
L 195.911366 77.385003 
L 196.44446 78.090522 
L 196.977555 75.401095 
L 197.510649 75.283298 
L 198.043744 85.189474 
L 198.576838 76.248252 
L 199.109933 72.757473 
L 199.643027 83.308254 
L 200.176122 79.940187 
L 200.709216 79.448613 
L 201.242311 71.134264 
L 201.775405 73.301613 
L 202.3085 84.565883 
L 203.374689 71.470061 
L 203.907783 80.233162 
L 204.440878 79.796012 
L 204.973972 70.347199 
L 205.507067 71.783046 
L 206.040161 76.051877 
L 206.573256 74.753836 
L 207.10635 75.160585 
L 207.639445 73.445185 
L 208.172539 78.979222 
L 208.705634 75.90282 
L 209.238728 70.800386 
L 209.771823 76.753002 
L 210.838012 69.744767 
L 211.371106 77.765893 
L 211.904201 78.066979 
L 212.437295 82.403509 
L 212.97039 76.788366 
L 213.503484 75.193056 
L 214.036579 77.961458 
L 214.569673 81.868704 
L 215.102768 75.190836 
L 215.635862 80.959356 
L 216.168957 81.072622 
L 217.235146 72.610925 
L 217.76824 78.631744 
L 218.301335 81.350427 
L 218.834429 77.897929 
L 219.367524 78.844403 
L 219.900618 82.674311 
L 220.433712 74.818191 
L 220.966807 82.443446 
L 221.499901 79.663019 
L 222.032996 78.046194 
L 222.56609 82.110103 
L 223.099185 75.122329 
L 223.632279 79.3252 
L 224.165374 80.491579 
L 224.698468 77.458344 
L 225.231563 76.864484 
L 225.764657 81.240252 
L 226.297752 78.417627 
L 226.830846 74.686205 
L 227.363941 79.25206 
L 228.43013 76.864196 
L 228.963224 78.151803 
L 229.496319 74.296668 
L 230.029413 77.600238 
L 230.562508 72.636401 
L 231.095602 68.735207 
L 231.628697 76.018224 
L 232.161791 79.306068 
L 232.694886 74.683697 
L 233.22798 82.758688 
L 233.761075 80.024766 
L 234.294169 71.973088 
L 234.827264 82.389906 
L 235.360358 83.835691 
L 235.893453 82.816622 
L 236.959642 78.426844 
L 237.492736 84.062346 
L 238.025831 75.286665 
L 238.558925 80.534425 
L 239.09202 71.82176 
L 240.158209 65.937429 
L 240.691303 73.916077 
L 241.224398 71.593867 
L 241.757492 67.098146 
L 242.290587 73.36412 
L 242.823681 70.438144 
L 243.356776 84.668161 
L 243.88987 85.317699 
L 244.422965 73.502507 
L 244.956059 79.325003 
L 245.489154 77.015989 
L 246.022248 76.615065 
L 246.555343 78.128211 
L 247.088437 75.149489 
L 247.621532 71.228164 
L 248.154626 78.211104 
L 248.687721 78.131305 
L 249.220815 75.390937 
L 249.75391 77.098488 
L 250.287004 74.928541 
L 250.820099 79.694816 
L 251.353193 77.192902 
L 251.886288 78.087332 
L 252.419382 83.148066 
L 253.485571 75.228466 
L 254.018665 75.343914 
L 254.55176 85.561225 
L 255.084854 84.020095 
L 255.617949 83.610881 
L 256.151043 79.566289 
L 256.684138 83.687481 
L 257.217232 79.304705 
L 257.750327 86.200417 
L 258.283421 74.750889 
L 258.816516 84.95992 
L 259.34961 81.296958 
L 259.882705 76.514886 
L 260.415799 85.553619 
L 260.948894 80.442297 
L 261.481988 78.268716 
L 262.015083 85.085785 
L 263.614366 73.640531 
L 264.147461 75.85367 
L 264.680555 77.358234 
L 265.21365 83.328471 
L 265.746744 75.514648 
L 266.279839 81.097278 
L 266.812933 80.117661 
L 267.346028 70.003073 
L 267.879122 76.70152 
L 268.412217 78.594646 
L 268.945311 78.488841 
L 269.478406 79.728292 
L 270.0115 82.59327 
L 270.544595 81.435466 
L 271.077689 75.590467 
L 271.610784 76.188974 
L 272.143878 78.10255 
L 272.676973 83.587562 
L 273.210067 79.978712 
L 273.743162 79.061238 
L 274.276256 76.51934 
L 274.809351 75.944417 
L 275.342445 73.966772 
L 275.87554 74.613559 
L 276.408634 79.307551 
L 276.941729 81.30905 
L 277.474823 81.033697 
L 278.007918 77.471987 
L 278.541012 93.322368 
L 279.074107 81.608065 
L 279.607201 76.91527 
L 280.140296 73.550782 
L 280.67339 76.460061 
L 281.206485 87.344287 
L 281.739579 81.272366 
L 282.272674 86.556457 
L 282.805768 82.981446 
L 283.338863 82.860372 
L 283.871957 82.147363 
L 284.405052 82.536463 
L 284.938146 80.585463 
L 285.47124 83.456029 
L 286.004335 83.767655 
L 286.537429 90.769118 
L 287.070524 86.16656 
L 287.603618 77.122652 
L 288.136713 84.685347 
L 288.669807 78.360698 
L 289.202902 80.83994 
L 289.735996 79.208632 
L 290.269091 78.734166 
L 290.802185 85.547076 
L 291.33528 80.691191 
L 291.868374 82.252536 
L 292.401469 76.372183 
L 292.934563 77.566014 
L 293.467658 84.18521 
L 294.000752 82.844384 
L 294.533847 82.84212 
L 295.066941 83.511347 
L 295.600036 77.749918 
L 296.13313 78.5616 
L 296.666225 79.750415 
L 297.199319 80.424919 
L 297.732414 83.438519 
L 298.265508 78.15114 
L 298.798603 84.862613 
L 299.331697 87.090206 
L 299.864792 79.179342 
L 300.397886 79.626973 
L 300.930981 82.8456 
L 301.464075 78.264246 
L 301.99717 77.994781 
L 302.530264 81.083417 
L 303.063359 79.186262 
L 303.596453 79.414808 
L 304.129548 79.47844 
L 304.662642 80.728853 
L 305.195737 80.739042 
L 305.728831 75.432356 
L 306.79502 82.994486 
L 307.328115 78.14789 
L 307.861209 84.816341 
L 308.394304 83.611877 
L 308.927398 81.042679 
L 309.460493 77.478698 
L 309.993587 76.998601 
L 311.059776 81.352913 
L 311.592871 78.479447 
L 312.125965 81.593166 
L 312.65906 77.753219 
L 313.725249 79.973135 
L 314.258343 76.564634 
L 314.791438 76.598743 
L 315.324532 75.961879 
L 315.857627 72.702236 
L 316.390721 71.131218 
L 316.923815 74.178176 
L 317.45691 83.581976 
L 317.990004 75.826413 
L 318.523099 70.694854 
L 319.056193 80.318692 
L 320.122382 88.003383 
L 320.655477 83.628536 
L 321.188571 77.788701 
L 321.721666 79.034735 
L 322.25476 82.566595 
L 322.787855 75.533583 
L 323.320949 82.25301 
L 323.854044 77.90026 
L 324.387138 79.044926 
L 324.920233 77.363279 
L 325.453327 83.861069 
L 325.986422 80.765868 
L 326.519516 85.393841 
L 327.052611 76.466461 
L 327.585705 81.360791 
L 328.1188 70.986717 
L 328.651894 77.029146 
L 329.184989 84.84468 
L 329.718083 77.795209 
L 330.784272 73.701894 
L 331.317367 71.426093 
L 331.850461 74.299369 
L 332.383556 78.288255 
L 332.91665 75.384324 
L 333.449745 74.230126 
L 333.982839 76.644511 
L 334.515934 81.152202 
L 335.049028 82.532637 
L 335.582123 77.106758 
L 336.115217 82.680768 
L 336.648312 84.465262 
L 337.181406 78.051072 
L 337.714501 80.889017 
L 338.247595 81.88651 
L 338.78069 76.666625 
L 339.313784 80.883179 
L 339.846879 78.478034 
L 340.379973 77.514859 
L 340.913068 89.882522 
L 341.446162 79.361774 
L 341.979257 80.251266 
L 342.512351 72.75695 
L 343.045446 72.077902 
L 343.57854 79.925766 
L 344.111635 78.586143 
L 344.644729 87.875101 
L 345.177824 80.527218 
L 345.710918 74.947531 
L 346.244013 77.405654 
L 346.777107 75.041286 
L 347.310202 79.292274 
L 347.843296 76.273415 
L 348.376391 74.971161 
L 349.442579 80.644983 
L 349.975674 78.958103 
L 350.508768 74.594168 
L 351.041863 78.238914 
L 351.574957 83.197725 
L 352.108052 77.633541 
L 352.641146 75.605218 
L 353.174241 80.983521 
L 353.707335 81.112128 
L 354.24043 83.629324 
L 354.773524 76.252037 
L 355.306619 79.090761 
L 355.839713 72.722221 
L 356.372808 83.836209 
L 356.905902 83.42082 
L 357.438997 75.830663 
L 357.972091 87.954656 
L 358.505186 78.229437 
L 359.03828 83.212503 
L 359.571375 84.19837 
L 360.104469 75.274603 
L 360.637564 76.362221 
L 361.170658 77.947601 
L 361.703753 77.624102 
L 362.236847 79.900429 
L 362.769942 83.770148 
L 363.303036 79.334611 
L 363.836131 77.030424 
L 364.369225 80.029493 
L 364.90232 89.987573 
L 365.435414 82.999469 
L 365.968509 85.111295 
L 366.501603 83.151122 
L 367.034698 76.074527 
L 367.567792 77.00707 
L 368.100887 79.60507 
L 368.633981 81.430013 
L 369.167076 76.169587 
L 369.70017 82.457565 
L 370.233265 78.689846 
L 370.766359 85.933987 
L 371.299454 82.888199 
L 371.832548 82.071399 
L 372.365643 80.371028 
L 372.898737 85.462488 
L 373.431832 80.541706 
L 373.964926 84.30827 
L 374.498021 75.539364 
L 375.031115 80.415669 
L 375.56421 77.846906 
L 376.097304 81.189091 
L 376.630399 79.128977 
L 377.163493 73.436317 
L 377.696588 80.973914 
L 378.229682 82.509383 
L 378.762777 83.653362 
L 379.295871 77.902312 
L 379.828966 79.145617 
L 380.36206 79.224253 
L 380.895155 85.969093 
L 381.428249 79.970786 
L 381.961343 72.16181 
L 382.494438 76.781873 
L 383.027532 84.510965 
L 383.560627 77.757027 
L 384.093721 84.786715 
L 385.15991 73.770035 
L 385.693005 69.830656 
L 386.226099 78.657156 
L 386.759194 76.693425 
L 387.292288 87.409451 
L 387.825383 79.048293 
L 388.358477 86.66676 
L 388.891572 77.584703 
L 389.424666 76.43776 
L 389.957761 83.689953 
L 390.490855 81.660571 
L 391.02395 77.644912 
L 391.557044 83.109935 
L 392.623233 79.394155 
L 393.156328 79.793985 
L 393.689422 74.095789 
L 394.222517 78.984823 
L 394.755611 79.764855 
L 395.288706 77.372186 
L 395.8218 79.338699 
L 396.354895 83.722806 
L 396.887989 77.692399 
L 397.421084 87.829517 
L 397.954178 80.707532 
L 398.487273 82.329863 
L 398.487273 82.329863 
" style="fill:none;stroke:#008000;stroke-dasharray:9.6,2.4,1.5,2.4;stroke-dashoffset:0;stroke-width:1.5;"/>
   </g>
   <g id="line2d_36">
    <path clip-path="url(#p47a3f44661)" d="M 73.832727 125.441968 
L 74.365822 109.876615 
L 74.898916 109.876615 
L 75.432011 109.076607 
L 75.965105 105.109889 
L 76.4982 98.238902 
L 77.031294 98.238902 
L 77.564389 95.556936 
L 78.097483 95.556936 
L 78.630578 91.790115 
L 79.163672 86.789844 
L 80.229861 86.789844 
L 80.762956 81.911838 
L 81.29605 80.161395 
L 82.895334 80.161395 
L 83.428428 77.197622 
L 83.961523 62.933283 
L 84.494617 62.933283 
L 85.027712 59.179085 
L 85.560806 59.179085 
L 86.093901 58.049937 
L 86.626995 58.049937 
L 87.16009 57.827292 
L 97.288885 57.827292 
L 97.821979 57.613249 
L 150.598334 57.533941 
L 151.131429 56.684623 
L 171.922114 56.583962 
L 172.455208 54.635264 
L 395.288706 54.527262 
L 395.8218 54.336708 
L 397.954178 54.336708 
L 398.487273 53.568 
L 398.487273 53.568 
" style="fill:none;stroke:#ff0000;stroke-linecap:square;stroke-width:1.5;"/>
   </g>
   <g id="patch_3">
    <path d="M 57.6 307.584 
L 57.6 41.472 
" style="fill:none;stroke:#000000;stroke-linecap:square;stroke-linejoin:miter;stroke-width:0.8;"/>
   </g>
   <g id="patch_4">
    <path d="M 414.72 307.584 
L 414.72 41.472 
" style="fill:none;stroke:#000000;stroke-linecap:square;stroke-linejoin:miter;stroke-width:0.8;"/>
   </g>
   <g id="patch_5">
    <path d="M 57.6 307.584 
L 414.72 307.584 
" style="fill:none;stroke:#000000;stroke-linecap:square;stroke-linejoin:miter;stroke-width:0.8;"/>
   </g>
   <g id="patch_6">
    <path d="M 57.6 41.472 
L 414.72 41.472 
" style="fill:none;stroke:#000000;stroke-linecap:square;stroke-linejoin:miter;stroke-width:0.8;"/>
   </g>
   <g id="text_19">
    <!-- Population's average and best fitness -->
    <defs>
     <path d="M 19.671875 64.796875 
L 19.671875 37.40625 
L 32.078125 37.40625 
Q 38.96875 37.40625 42.71875 40.96875 
Q 46.484375 44.53125 46.484375 51.125 
Q 46.484375 57.671875 42.71875 61.234375 
Q 38.96875 64.796875 32.078125 64.796875 
z
M 9.8125 72.90625 
L 32.078125 72.90625 
Q 44.34375 72.90625 50.609375 67.359375 
Q 56.890625 61.8125 56.890625 51.125 
Q 56.890625 40.328125 50.609375 34.8125 
Q 44.34375 29.296875 32.078125 29.296875 
L 19.671875 29.296875 
L 19.671875 0 
L 9.8125 0 
z
" id="DejaVuSans-80"/>
     <path d="M 18.109375 8.203125 
L 18.109375 -20.796875 
L 9.078125 -20.796875 
L 9.078125 54.6875 
L 18.109375 54.6875 
L 18.109375 46.390625 
Q 20.953125 51.265625 25.265625 53.625 
Q 29.59375 56 35.59375 56 
Q 45.5625 56 51.78125 48.09375 
Q 58.015625 40.1875 58.015625 27.296875 
Q 58.015625 14.40625 51.78125 6.484375 
Q 45.5625 -1.421875 35.59375 -1.421875 
Q 29.59375 -1.421875 25.265625 0.953125 
Q 20.953125 3.328125 18.109375 8.203125 
z
M 48.6875 27.296875 
Q 48.6875 37.203125 44.609375 42.84375 
Q 40.53125 48.484375 33.40625 48.484375 
Q 26.265625 48.484375 22.1875 42.84375 
Q 18.109375 37.203125 18.109375 27.296875 
Q 18.109375 17.390625 22.1875 11.75 
Q 26.265625 6.109375 33.40625 6.109375 
Q 40.53125 6.109375 44.609375 11.75 
Q 48.6875 17.390625 48.6875 27.296875 
z
" id="DejaVuSans-112"/>
     <path d="M 8.5 21.578125 
L 8.5 54.6875 
L 17.484375 54.6875 
L 17.484375 21.921875 
Q 17.484375 14.15625 20.5 10.265625 
Q 23.53125 6.390625 29.59375 6.390625 
Q 36.859375 6.390625 41.078125 11.03125 
Q 45.3125 15.671875 45.3125 23.6875 
L 45.3125 54.6875 
L 54.296875 54.6875 
L 54.296875 0 
L 45.3125 0 
L 45.3125 8.40625 
Q 42.046875 3.421875 37.71875 1 
Q 33.40625 -1.421875 27.6875 -1.421875 
Q 18.265625 -1.421875 13.375 4.4375 
Q 8.5 10.296875 8.5 21.578125 
z
M 31.109375 56 
z
" id="DejaVuSans-117"/>
     <path d="M 9.421875 75.984375 
L 18.40625 75.984375 
L 18.40625 0 
L 9.421875 0 
z
" id="DejaVuSans-108"/>
     <path d="M 17.921875 72.90625 
L 17.921875 45.796875 
L 9.625 45.796875 
L 9.625 72.90625 
z
" id="DejaVuSans-39"/>
     <path id="DejaVuSans-32"/>
     <path d="M 2.984375 54.6875 
L 12.5 54.6875 
L 29.59375 8.796875 
L 46.6875 54.6875 
L 56.203125 54.6875 
L 35.6875 0 
L 23.484375 0 
z
" id="DejaVuSans-118"/>
     <path d="M 45.40625 27.984375 
Q 45.40625 37.75 41.375 43.109375 
Q 37.359375 48.484375 30.078125 48.484375 
Q 22.859375 48.484375 18.828125 43.109375 
Q 14.796875 37.75 14.796875 27.984375 
Q 14.796875 18.265625 18.828125 12.890625 
Q 22.859375 7.515625 30.078125 7.515625 
Q 37.359375 7.515625 41.375 12.890625 
Q 45.40625 18.265625 45.40625 27.984375 
z
M 54.390625 6.78125 
Q 54.390625 -7.171875 48.1875 -13.984375 
Q 42 -20.796875 29.203125 -20.796875 
Q 24.46875 -20.796875 20.265625 -20.09375 
Q 16.0625 -19.390625 12.109375 -17.921875 
L 12.109375 -9.1875 
Q 16.0625 -11.328125 19.921875 -12.34375 
Q 23.78125 -13.375 27.78125 -13.375 
Q 36.625 -13.375 41.015625 -8.765625 
Q 45.40625 -4.15625 45.40625 5.171875 
L 45.40625 9.625 
Q 42.625 4.78125 38.28125 2.390625 
Q 33.9375 0 27.875 0 
Q 17.828125 0 11.671875 7.65625 
Q 5.515625 15.328125 5.515625 27.984375 
Q 5.515625 40.671875 11.671875 48.328125 
Q 17.828125 56 27.875 56 
Q 33.9375 56 38.28125 53.609375 
Q 42.625 51.21875 45.40625 46.390625 
L 45.40625 54.6875 
L 54.390625 54.6875 
z
" id="DejaVuSans-103"/>
     <path d="M 45.40625 46.390625 
L 45.40625 75.984375 
L 54.390625 75.984375 
L 54.390625 0 
L 45.40625 0 
L 45.40625 8.203125 
Q 42.578125 3.328125 38.25 0.953125 
Q 33.9375 -1.421875 27.875 -1.421875 
Q 17.96875 -1.421875 11.734375 6.484375 
Q 5.515625 14.40625 5.515625 27.296875 
Q 5.515625 40.1875 11.734375 48.09375 
Q 17.96875 56 27.875 56 
Q 33.9375 56 38.25 53.625 
Q 42.578125 51.265625 45.40625 46.390625 
z
M 14.796875 27.296875 
Q 14.796875 17.390625 18.875 11.75 
Q 22.953125 6.109375 30.078125 6.109375 
Q 37.203125 6.109375 41.296875 11.75 
Q 45.40625 17.390625 45.40625 27.296875 
Q 45.40625 37.203125 41.296875 42.84375 
Q 37.203125 48.484375 30.078125 48.484375 
Q 22.953125 48.484375 18.875 42.84375 
Q 14.796875 37.203125 14.796875 27.296875 
z
" id="DejaVuSans-100"/>
     <path d="M 48.6875 27.296875 
Q 48.6875 37.203125 44.609375 42.84375 
Q 40.53125 48.484375 33.40625 48.484375 
Q 26.265625 48.484375 22.1875 42.84375 
Q 18.109375 37.203125 18.109375 27.296875 
Q 18.109375 17.390625 22.1875 11.75 
Q 26.265625 6.109375 33.40625 6.109375 
Q 40.53125 6.109375 44.609375 11.75 
Q 48.6875 17.390625 48.6875 27.296875 
z
M 18.109375 46.390625 
Q 20.953125 51.265625 25.265625 53.625 
Q 29.59375 56 35.59375 56 
Q 45.5625 56 51.78125 48.09375 
Q 58.015625 40.1875 58.015625 27.296875 
Q 58.015625 14.40625 51.78125 6.484375 
Q 45.5625 -1.421875 35.59375 -1.421875 
Q 29.59375 -1.421875 25.265625 0.953125 
Q 20.953125 3.328125 18.109375 8.203125 
L 18.109375 0 
L 9.078125 0 
L 9.078125 75.984375 
L 18.109375 75.984375 
z
" id="DejaVuSans-98"/>
     <path d="M 37.109375 75.984375 
L 37.109375 68.5 
L 28.515625 68.5 
Q 23.6875 68.5 21.796875 66.546875 
Q 19.921875 64.59375 19.921875 59.515625 
L 19.921875 54.6875 
L 34.71875 54.6875 
L 34.71875 47.703125 
L 19.921875 47.703125 
L 19.921875 0 
L 10.890625 0 
L 10.890625 47.703125 
L 2.296875 47.703125 
L 2.296875 54.6875 
L 10.890625 54.6875 
L 10.890625 58.5 
Q 10.890625 67.625 15.140625 71.796875 
Q 19.390625 75.984375 28.609375 75.984375 
z
" id="DejaVuSans-102"/>
    </defs>
    <g transform="translate(123.315 35.472)scale(0.12 -0.12)">
     <use xlink:href="#DejaVuSans-80"/>
     <use x="60.255859" xlink:href="#DejaVuSans-111"/>
     <use x="121.4375" xlink:href="#DejaVuSans-112"/>
     <use x="184.914062" xlink:href="#DejaVuSans-117"/>
     <use x="248.292969" xlink:href="#DejaVuSans-108"/>
     <use x="276.076172" xlink:href="#DejaVuSans-97"/>
     <use x="337.355469" xlink:href="#DejaVuSans-116"/>
     <use x="376.564453" xlink:href="#DejaVuSans-105"/>
     <use x="404.347656" xlink:href="#DejaVuSans-111"/>
     <use x="465.529297" xlink:href="#DejaVuSans-110"/>
     <use x="528.908203" xlink:href="#DejaVuSans-39"/>
     <use x="556.398438" xlink:href="#DejaVuSans-115"/>
     <use x="608.498047" xlink:href="#DejaVuSans-32"/>
     <use x="640.285156" xlink:href="#DejaVuSans-97"/>
     <use x="701.564453" xlink:href="#DejaVuSans-118"/>
     <use x="760.744141" xlink:href="#DejaVuSans-101"/>
     <use x="822.267578" xlink:href="#DejaVuSans-114"/>
     <use x="863.380859" xlink:href="#DejaVuSans-97"/>
     <use x="924.660156" xlink:href="#DejaVuSans-103"/>
     <use x="988.136719" xlink:href="#DejaVuSans-101"/>
     <use x="1049.660156" xlink:href="#DejaVuSans-32"/>
     <use x="1081.447266" xlink:href="#DejaVuSans-97"/>
     <use x="1142.726562" xlink:href="#DejaVuSans-110"/>
     <use x="1206.105469" xlink:href="#DejaVuSans-100"/>
     <use x="1269.582031" xlink:href="#DejaVuSans-32"/>
     <use x="1301.369141" xlink:href="#DejaVuSans-98"/>
     <use x="1364.845703" xlink:href="#DejaVuSans-101"/>
     <use x="1426.369141" xlink:href="#DejaVuSans-115"/>
     <use x="1478.46875" xlink:href="#DejaVuSans-116"/>
     <use x="1517.677734" xlink:href="#DejaVuSans-32"/>
     <use x="1549.464844" xlink:href="#DejaVuSans-102"/>
     <use x="1584.669922" xlink:href="#DejaVuSans-105"/>
     <use x="1612.453125" xlink:href="#DejaVuSans-116"/>
     <use x="1651.662109" xlink:href="#DejaVuSans-110"/>
     <use x="1715.041016" xlink:href="#DejaVuSans-101"/>
     <use x="1776.564453" xlink:href="#DejaVuSans-115"/>
     <use x="1828.664062" xlink:href="#DejaVuSans-115"/>
    </g>
   </g>
   <g id="legend_1">
    <g id="patch_7">
     <path d="M 334.779375 302.584 
L 407.72 302.584 
Q 409.72 302.584 409.72 300.584 
L 409.72 242.8715 
Q 409.72 240.8715 407.72 240.8715 
L 334.779375 240.8715 
Q 332.779375 240.8715 332.779375 242.8715 
L 332.779375 300.584 
Q 332.779375 302.584 334.779375 302.584 
z
" style="fill:#ffffff;opacity:0.8;stroke:#cccccc;stroke-linejoin:miter;"/>
    </g>
    <g id="line2d_37">
     <path d="M 336.779375 248.969937 
L 356.779375 248.969937 
" style="fill:none;stroke:#0000ff;stroke-linecap:square;stroke-width:1.5;"/>
    </g>
    <g id="line2d_38"/>
    <g id="text_20">
     <!-- average -->
     <g transform="translate(364.779375 252.469937)scale(0.1 -0.1)">
      <use xlink:href="#DejaVuSans-97"/>
      <use x="61.279297" xlink:href="#DejaVuSans-118"/>
      <use x="120.458984" xlink:href="#DejaVuSans-101"/>
      <use x="181.982422" xlink:href="#DejaVuSans-114"/>
      <use x="223.095703" xlink:href="#DejaVuSans-97"/>
      <use x="284.375" xlink:href="#DejaVuSans-103"/>
      <use x="347.851562" xlink:href="#DejaVuSans-101"/>
     </g>
    </g>
    <g id="line2d_39">
     <path d="M 336.779375 263.648062 
L 356.779375 263.648062 
" style="fill:none;stroke:#008000;stroke-dasharray:9.6,2.4,1.5,2.4;stroke-dashoffset:0;stroke-width:1.5;"/>
    </g>
    <g id="line2d_40"/>
    <g id="text_21">
     <!-- -1 sd -->
     <defs>
      <path d="M 4.890625 31.390625 
L 31.203125 31.390625 
L 31.203125 23.390625 
L 4.890625 23.390625 
z
" id="DejaVuSans-45"/>
     </defs>
     <g transform="translate(364.779375 267.148062)scale(0.1 -0.1)">
      <use xlink:href="#DejaVuSans-45"/>
      <use x="36.083984" xlink:href="#DejaVuSans-49"/>
      <use x="99.707031" xlink:href="#DejaVuSans-32"/>
      <use x="131.494141" xlink:href="#DejaVuSans-115"/>
      <use x="183.59375" xlink:href="#DejaVuSans-100"/>
     </g>
    </g>
    <g id="line2d_41">
     <path d="M 336.779375 278.326187 
L 356.779375 278.326187 
" style="fill:none;stroke:#008000;stroke-dasharray:9.6,2.4,1.5,2.4;stroke-dashoffset:0;stroke-width:1.5;"/>
    </g>
    <g id="line2d_42"/>
    <g id="text_22">
     <!-- +1 sd -->
     <defs>
      <path d="M 46 62.703125 
L 46 35.5 
L 73.1875 35.5 
L 73.1875 27.203125 
L 46 27.203125 
L 46 0 
L 37.796875 0 
L 37.796875 27.203125 
L 10.59375 27.203125 
L 10.59375 35.5 
L 37.796875 35.5 
L 37.796875 62.703125 
z
" id="DejaVuSans-43"/>
     </defs>
     <g transform="translate(364.779375 281.826187)scale(0.1 -0.1)">
      <use xlink:href="#DejaVuSans-43"/>
      <use x="83.789062" xlink:href="#DejaVuSans-49"/>
      <use x="147.412109" xlink:href="#DejaVuSans-32"/>
      <use x="179.199219" xlink:href="#DejaVuSans-115"/>
      <use x="231.298828" xlink:href="#DejaVuSans-100"/>
     </g>
    </g>
    <g id="line2d_43">
     <path d="M 336.779375 293.004312 
L 356.779375 293.004312 
" style="fill:none;stroke:#ff0000;stroke-linecap:square;stroke-width:1.5;"/>
    </g>
    <g id="line2d_44"/>
    <g id="text_23">
     <!-- best -->
     <g transform="translate(364.779375 296.504312)scale(0.1 -0.1)">
      <use xlink:href="#DejaVuSans-98"/>
      <use x="63.476562" xlink:href="#DejaVuSans-101"/>
      <use x="125" xlink:href="#DejaVuSans-115"/>
      <use x="177.099609" xlink:href="#DejaVuSans-116"/>
     </g>
    </g>
   </g>
  </g>
 </g>
 <defs>
  <clipPath id="p47a3f44661">
   <rect height="266.112" width="357.12" x="57.6" y="41.472"/>
  </clipPath>
 </defs>
</svg>
