<?xml version="1.0" encoding="UTF-8" standalone="no"?>
<!DOCTYPE svg PUBLIC "-//W3C//DTD SVG 1.1//EN"
 "http://www.w3.org/Graphics/SVG/1.1/DTD/svg11.dtd">
<!-- Generated by graphviz version 2.38.0 (20140413.2041)
 -->
<!-- Title: %3 Pages: 1 -->
<svg width="455pt" height="376pt"
 viewBox="0.00 0.00 455.00 376.48" xmlns="http://www.w3.org/2000/svg" xmlns:xlink="http://www.w3.org/1999/xlink">
<g id="graph0" class="graph" transform="scale(1 1) rotate(0) translate(4 372.475)">
<title>%3</title>
<polygon fill="white" stroke="none" points="-4,4 -4,-372.475 451,-372.475 451,4 -4,4"/>
<!-- Cylinders -->
<g id="node1" class="node"><title>Cylinders</title>
<polygon fill="lightgray" stroke="black" points="52,-368.475 0,-368.475 0,-350.475 52,-350.475 52,-368.475"/>
<text text-anchor="middle" x="26" y="-357.275" font-family="Times New Roman,serif" font-size="9.00">Cylinders</text>
</g>
<!-- Displacement -->
<g id="node2" class="node"><title>Displacement</title>
<polygon fill="lightgray" stroke="black" points="386,-119.953 320,-119.953 320,-101.953 386,-101.953 386,-119.953"/>
<text text-anchor="middle" x="353" y="-108.753" font-family="Times New Roman,serif" font-size="9.00">Displacement</text>
</g>
<!-- MPG -->
<g id="node10" class="node"><title>MPG</title>
<ellipse fill="lightblue" stroke="black" cx="232" cy="-26.8701" rx="26.7407" ry="26.7407"/>
<text text-anchor="middle" x="232" y="-24.6701" font-family="Times New Roman,serif" font-size="9.00">MPG</text>
</g>
<!-- Displacement&#45;&gt;MPG -->
<g id="edge1" class="edge"><title>Displacement&#45;&gt;MPG</title>
<path fill="none" stroke="green" stroke-width="0.390321" stroke-dasharray="1,5" d="M340.956,-101.783C322.882,-89.5222 288.159,-65.9668 262.753,-48.732"/>
<polygon fill="green" stroke="green" stroke-width="0.390321" points="264.438,-45.6459 254.198,-42.9284 260.508,-51.4388 264.438,-45.6459"/>
</g>
<!-- 488 -->
<g id="node12" class="node"><title>488</title>
<ellipse fill="white" stroke="black" cx="353" cy="-26.8701" rx="21.4286" ry="21.4286"/>
<text text-anchor="middle" x="353" y="-24.6701" font-family="Times New Roman,serif" font-size="9.00">488</text>
</g>
<!-- Displacement&#45;&gt;488 -->
<g id="edge5" class="edge"><title>Displacement&#45;&gt;488</title>
<path fill="none" stroke="green" stroke-width="0.340643" stroke-dasharray="1,5" d="M353,-101.783C353,-91.7008 353,-73.9815 353,-58.4196"/>
<polygon fill="green" stroke="green" stroke-width="0.340643" points="356.5,-58.1109 353,-48.1109 349.5,-58.111 356.5,-58.1109"/>
</g>
<!-- Horsepower -->
<g id="node3" class="node"><title>Horsepower</title>
<polygon fill="lightgray" stroke="black" points="132,-368.475 70,-368.475 70,-350.475 132,-350.475 132,-368.475"/>
<text text-anchor="middle" x="101" y="-357.275" font-family="Times New Roman,serif" font-size="9.00">Horsepower</text>
</g>
<!-- 35573 -->
<g id="node15" class="node"><title>35573</title>
<ellipse fill="white" stroke="black" cx="101" cy="-286.898" rx="27.6545" ry="27.6545"/>
<text text-anchor="middle" x="101" y="-284.698" font-family="Times New Roman,serif" font-size="9.00">35573</text>
</g>
<!-- Horsepower&#45;&gt;35573 -->
<g id="edge19" class="edge"><title>Horsepower&#45;&gt;35573</title>
<path fill="none" stroke="green" stroke-width="0.389887" d="M101,-350.379C101,-343.93 101,-334.405 101,-324.726"/>
<polygon fill="green" stroke="green" stroke-width="0.389887" points="104.5,-324.706 101,-314.706 97.5001,-324.706 104.5,-324.706"/>
</g>
<!-- Weight -->
<g id="node4" class="node"><title>Weight</title>
<polygon fill="lightgray" stroke="black" points="302,-119.953 260,-119.953 260,-101.953 302,-101.953 302,-119.953"/>
<text text-anchor="middle" x="281" y="-108.753" font-family="Times New Roman,serif" font-size="9.00">Weight</text>
</g>
<!-- Weight&#45;&gt;MPG -->
<g id="edge2" class="edge"><title>Weight&#45;&gt;MPG</title>
<path fill="none" stroke="red" stroke-width="0.140517" d="M276.123,-101.783C270.214,-91.8846 259.911,-74.6249 250.746,-59.2725"/>
<polygon fill="red" stroke="red" stroke-width="0.140517" points="253.654,-57.3162 245.523,-50.5238 247.644,-60.9042 253.654,-57.3162"/>
</g>
<!-- Acceleration -->
<g id="node5" class="node"><title>Acceleration</title>
<polygon fill="lightgray" stroke="black" points="144,-119.953 82,-119.953 82,-101.953 144,-101.953 144,-119.953"/>
<text text-anchor="middle" x="113" y="-108.753" font-family="Times New Roman,serif" font-size="9.00">Acceleration</text>
</g>
<!-- Acceleration&#45;&gt;MPG -->
<g id="edge3" class="edge"><title>Acceleration&#45;&gt;MPG</title>
<path fill="none" stroke="green" stroke-width="0.229684" stroke-dasharray="1,5" d="M124.845,-101.783C142.62,-89.5222 176.769,-65.9668 201.755,-48.732"/>
<polygon fill="green" stroke="green" stroke-width="0.229684" points="203.925,-51.4875 210.169,-42.9284 199.95,-45.7253 203.925,-51.4875"/>
</g>
<!-- Model Year -->
<g id="node6" class="node"><title>Model Year</title>
<polygon fill="lightgray" stroke="black" points="224.5,-368.475 165.5,-368.475 165.5,-350.475 224.5,-350.475 224.5,-368.475"/>
<text text-anchor="middle" x="195" y="-357.275" font-family="Times New Roman,serif" font-size="9.00">Model Year</text>
</g>
<!-- 781 -->
<g id="node13" class="node"><title>781</title>
<ellipse fill="white" stroke="black" cx="183" cy="-110.953" rx="21.4286" ry="21.4286"/>
<text text-anchor="middle" x="183" y="-108.753" font-family="Times New Roman,serif" font-size="9.00">781</text>
</g>
<!-- Model Year&#45;&gt;781 -->
<g id="edge6" class="edge"><title>Model Year&#45;&gt;781</title>
<path fill="none" stroke="green" stroke-width="0.391703" stroke-dasharray="1,5" d="M190.3,-350.374C185.612,-341.789 178.728,-327.676 176,-314.475 163.547,-254.226 171.374,-181.788 177.585,-141.927"/>
<polygon fill="green" stroke="green" stroke-width="0.391703" points="181.04,-142.486 179.196,-132.053 174.131,-141.359 181.04,-142.486"/>
</g>
<!-- Model Year&#45;&gt;35573 -->
<g id="edge15" class="edge"><title>Model Year&#45;&gt;35573</title>
<path fill="none" stroke="red" stroke-width="0.144897" d="M184.217,-350.379C171.253,-340.645 148.961,-323.908 130.711,-310.205"/>
<polygon fill="red" stroke="red" stroke-width="0.144897" points="132.756,-307.364 122.658,-304.159 128.553,-312.962 132.756,-307.364"/>
</g>
<!-- 8088 -->
<g id="node16" class="node"><title>8088</title>
<ellipse fill="white" stroke="black" cx="316" cy="-195.744" rx="25" ry="25"/>
<text text-anchor="middle" x="316" y="-193.544" font-family="Times New Roman,serif" font-size="9.00">8088</text>
</g>
<!-- Model Year&#45;&gt;8088 -->
<g id="edge8" class="edge"><title>Model Year&#45;&gt;8088</title>
<path fill="none" stroke="red" stroke-width="0.289595" d="M224.779,-353.612C248.109,-348.18 279.46,-336.993 297,-314.475 315.451,-290.789 319.095,-256.158 318.786,-230.583"/>
<polygon fill="red" stroke="red" stroke-width="0.289595" points="322.284,-230.462 318.462,-220.58 315.288,-230.689 322.284,-230.462"/>
</g>
<!-- 8923 -->
<g id="node17" class="node"><title>8923</title>
<ellipse fill="white" stroke="black" cx="210" cy="-286.898" rx="25" ry="25"/>
<text text-anchor="middle" x="210" y="-284.698" font-family="Times New Roman,serif" font-size="9.00">8923</text>
</g>
<!-- Model Year&#45;&gt;8923 -->
<g id="edge12" class="edge"><title>Model Year&#45;&gt;8923</title>
<path fill="none" stroke="red" stroke-width="0.22607" d="M196.721,-350.379C198.264,-343.116 200.637,-331.954 202.952,-321.062"/>
<polygon fill="red" stroke="red" stroke-width="0.22607" points="206.38,-321.764 205.036,-311.255 199.533,-320.309 206.38,-321.764"/>
</g>
<!-- USA -->
<g id="node7" class="node"><title>USA</title>
<polygon fill="lightgray" stroke="black" points="287.5,-295.898 252.5,-295.898 252.5,-277.898 287.5,-277.898 287.5,-295.898"/>
<text text-anchor="middle" x="270" y="-284.698" font-family="Times New Roman,serif" font-size="9.00">USA</text>
</g>
<!-- USA&#45;&gt;781 -->
<g id="edge7" class="edge"><title>USA&#45;&gt;781</title>
<path fill="none" stroke="green" stroke-width="0.387304" d="M269.852,-277.881C269.157,-257.966 265.283,-205.186 244,-168.167 235.31,-153.052 221.197,-139.662 208.734,-129.745"/>
<polygon fill="green" stroke="green" stroke-width="0.387304" points="210.536,-126.718 200.456,-123.456 206.302,-132.292 210.536,-126.718"/>
</g>
<!-- 8573 -->
<g id="node18" class="node"><title>8573</title>
<ellipse fill="white" stroke="black" cx="210" cy="-195.744" rx="25" ry="25"/>
<text text-anchor="middle" x="210" y="-193.544" font-family="Times New Roman,serif" font-size="9.00">8573</text>
</g>
<!-- USA&#45;&gt;8573 -->
<g id="edge11" class="edge"><title>USA&#45;&gt;8573</title>
<path fill="none" stroke="green" stroke-width="1.03633" d="M264.463,-277.67C256.535,-265.89 241.554,-243.63 229.308,-225.433"/>
<polygon fill="green" stroke="green" stroke-width="1.03633" points="232.046,-223.233 223.559,-216.891 226.238,-227.141 232.046,-223.233"/>
</g>
<!-- Europe -->
<g id="node8" class="node"><title>Europe</title>
<polygon fill="lightgray" stroke="black" points="390.5,-368.475 347.5,-368.475 347.5,-350.475 390.5,-350.475 390.5,-368.475"/>
<text text-anchor="middle" x="369" y="-357.275" font-family="Times New Roman,serif" font-size="9.00">Europe</text>
</g>
<!-- 1158 -->
<g id="node11" class="node"><title>1158</title>
<ellipse fill="white" stroke="black" cx="369" cy="-286.898" rx="25" ry="25"/>
<text text-anchor="middle" x="369" y="-284.698" font-family="Times New Roman,serif" font-size="9.00">1158</text>
</g>
<!-- Europe&#45;&gt;1158 -->
<g id="edge14" class="edge"><title>Europe&#45;&gt;1158</title>
<path fill="none" stroke="green" stroke-width="0.356331" stroke-dasharray="1,5" d="M369,-350.379C369,-343.3 369,-332.516 369,-321.89"/>
<polygon fill="green" stroke="green" stroke-width="0.356331" points="372.5,-321.875 369,-311.875 365.5,-321.875 372.5,-321.875"/>
</g>
<!-- Japan -->
<g id="node9" class="node"><title>Japan</title>
<polygon fill="lightgray" stroke="black" points="447,-368.475 409,-368.475 409,-350.475 447,-350.475 447,-368.475"/>
<text text-anchor="middle" x="428" y="-357.275" font-family="Times New Roman,serif" font-size="9.00">Japan</text>
</g>
<!-- 781&#45;&gt;MPG -->
<g id="edge4" class="edge"><title>781&#45;&gt;MPG</title>
<path fill="none" stroke="green" stroke-width="0.569457" stroke-dasharray="1,5" d="M193.632,-92.1425C199.407,-82.4691 206.714,-70.2285 213.398,-59.0312"/>
<polygon fill="green" stroke="green" stroke-width="0.569457" points="216.464,-60.7242 218.584,-50.3438 210.453,-57.1362 216.464,-60.7242"/>
</g>
<!-- 35629 -->
<g id="node14" class="node"><title>35629</title>
<ellipse fill="white" stroke="black" cx="101" cy="-195.744" rx="27.6545" ry="27.6545"/>
<text text-anchor="middle" x="101" y="-193.544" font-family="Times New Roman,serif" font-size="9.00">35629</text>
</g>
<!-- 35629&#45;&gt;781 -->
<g id="edge18" class="edge"><title>35629&#45;&gt;781</title>
<path fill="none" stroke="green" stroke-width="0.28619" d="M120.019,-175.542C132.358,-163.083 148.469,-146.817 161.307,-133.855"/>
<polygon fill="green" stroke="green" stroke-width="0.28619" points="163.884,-136.227 168.435,-126.659 158.911,-131.301 163.884,-136.227"/>
</g>
<!-- 35573&#45;&gt;781 -->
<g id="edge16" class="edge"><title>35573&#45;&gt;781</title>
<path fill="none" stroke="red" stroke-width="0.105716" d="M84.0714,-264.75C66.367,-239.88 43.7585,-198.189 64,-168.167 87.8531,-132.788 115.324,-152.196 153,-132.167 154.525,-131.356 156.068,-130.486 157.609,-129.579"/>
<polygon fill="red" stroke="red" stroke-width="0.105716" points="159.655,-132.427 166.248,-124.134 155.922,-126.505 159.655,-132.427"/>
</g>
<!-- 35573&#45;&gt;35629 -->
<g id="edge17" class="edge"><title>35573&#45;&gt;35629</title>
<path fill="none" stroke="green" stroke-width="0.253158" d="M101,-259.149C101,-251.127 101,-242.182 101,-233.627"/>
<polygon fill="green" stroke="green" stroke-width="0.253158" points="104.5,-233.474 101,-223.474 97.5001,-233.474 104.5,-233.474"/>
</g>
<!-- 8088&#45;&gt;MPG -->
<g id="edge9" class="edge"><title>8088&#45;&gt;MPG</title>
<path fill="none" stroke="red" stroke-width="0.137462" d="M295.991,-180.941C281.163,-169.6 261.735,-152.183 251,-132.167 239.763,-111.215 235.028,-84.852 233.095,-63.8734"/>
<polygon fill="red" stroke="red" stroke-width="0.137462" points="236.575,-63.4643 232.338,-53.7536 229.594,-63.987 236.575,-63.4643"/>
</g>
<!-- 8923&#45;&gt;8573 -->
<g id="edge13" class="edge"><title>8923&#45;&gt;8573</title>
<path fill="none" stroke="green" stroke-width="0.494751" d="M210,-262.006C210,-252.413 210,-241.176 210,-230.757"/>
<polygon fill="green" stroke="green" stroke-width="0.494751" points="213.5,-230.701 210,-220.701 206.5,-230.701 213.5,-230.701"/>
</g>
<!-- 8573&#45;&gt;781 -->
<g id="edge10" class="edge"><title>8573&#45;&gt;781</title>
<path fill="none" stroke="red" stroke-width="0.215944" stroke-dasharray="1,5" d="M202.479,-171.682C199.366,-162.137 195.722,-150.962 192.432,-140.876"/>
<polygon fill="red" stroke="red" stroke-width="0.215944" points="195.723,-139.677 189.295,-131.255 189.068,-141.847 195.723,-139.677"/>
</g>
</g>
</svg>
