<?xml version="1.0" encoding="UTF-8" standalone="no"?>
<!DOCTYPE svg PUBLIC "-//W3C//DTD SVG 1.1//EN"
 "http://www.w3.org/Graphics/SVG/1.1/DTD/svg11.dtd">
<!-- Generated by graphviz version 2.38.0 (20140413.2041)
 -->
<!-- Title: %3 Pages: 1 -->
<svg width="666pt" height="501pt"
 viewBox="0.00 0.00 665.75 500.54" xmlns="http://www.w3.org/2000/svg" xmlns:xlink="http://www.w3.org/1999/xlink">
<g id="graph0" class="graph" transform="scale(1 1) rotate(0) translate(4 496.541)">
<title>%3</title>
<polygon fill="white" stroke="none" points="-4,4 -4,-496.541 661.749,-496.541 661.749,4 -4,4"/>
<!-- Cylinders -->
<g id="node1" class="node"><title>Cylinders</title>
<polygon fill="lightgray" stroke="black" points="200,-391.295 148,-391.295 148,-373.295 200,-373.295 200,-391.295"/>
<text text-anchor="middle" x="174" y="-380.095" font-family="Times New Roman,serif" font-size="9.00">Cylinders</text>
</g>
<!-- 264 -->
<g id="node13" class="node"><title>264</title>
<ellipse fill="white" stroke="black" cx="161" cy="-293.969" rx="21.4286" ry="21.4286"/>
<text text-anchor="middle" x="161" y="-291.769" font-family="Times New Roman,serif" font-size="9.00">264</text>
</g>
<!-- Cylinders&#45;&gt;264 -->
<g id="edge1" class="edge"><title>Cylinders&#45;&gt;264</title>
<path fill="none" stroke="red" stroke-width="0.235077" d="M172.754,-373.018C171.101,-362.044 168.095,-342.086 165.537,-325.099"/>
<polygon fill="red" stroke="red" stroke-width="0.235077" points="168.969,-324.38 164.018,-315.013 162.047,-325.423 168.969,-324.38"/>
</g>
<!-- Displacement -->
<g id="node2" class="node"><title>Displacement</title>
<polygon fill="lightgray" stroke="black" points="396,-476.792 330,-476.792 330,-458.792 396,-458.792 396,-476.792"/>
<text text-anchor="middle" x="363" y="-465.592" font-family="Times New Roman,serif" font-size="9.00">Displacement</text>
</g>
<!-- 13217 -->
<g id="node11" class="node"><title>13217</title>
<ellipse fill="white" stroke="black" cx="478" cy="-293.969" rx="27.6545" ry="27.6545"/>
<text text-anchor="middle" x="478" y="-291.769" font-family="Times New Roman,serif" font-size="9.00">13217</text>
</g>
<!-- Displacement&#45;&gt;13217 -->
<g id="edge20" class="edge"><title>Displacement&#45;&gt;13217</title>
<path fill="none" stroke="red" stroke-width="0.139805" d="M376.844,-458.678C403.004,-443.288 457.336,-411.032 460,-407.044 474.715,-385.018 478.94,-355.225 479.634,-331.893"/>
<polygon fill="red" stroke="red" stroke-width="0.139805" points="483.135,-331.711 479.729,-321.679 476.136,-331.645 483.135,-331.711"/>
</g>
<!-- 2604 -->
<g id="node15" class="node"><title>2604</title>
<ellipse fill="white" stroke="black" cx="243" cy="-382.295" rx="25" ry="25"/>
<text text-anchor="middle" x="243" y="-380.095" font-family="Times New Roman,serif" font-size="9.00">2604</text>
</g>
<!-- Displacement&#45;&gt;2604 -->
<g id="edge6" class="edge"><title>Displacement&#45;&gt;2604</title>
<path fill="none" stroke="green" stroke-width="0.183994" d="M351.123,-458.757C334.319,-447.361 302.681,-425.802 276,-407.044 274.398,-405.917 272.755,-404.756 271.099,-403.58"/>
<polygon fill="green" stroke="green" stroke-width="0.183994" points="273.015,-400.647 262.843,-397.683 268.946,-406.343 273.015,-400.647"/>
</g>
<!-- 1874 -->
<g id="node17" class="node"><title>1874</title>
<ellipse fill="white" stroke="black" cx="532" cy="-382.295" rx="25" ry="25"/>
<text text-anchor="middle" x="532" y="-380.095" font-family="Times New Roman,serif" font-size="9.00">1874</text>
</g>
<!-- Displacement&#45;&gt;1874 -->
<g id="edge5" class="edge"><title>Displacement&#45;&gt;1874</title>
<path fill="none" stroke="green" stroke-width="0.332749" stroke-dasharray="1,5" d="M376.387,-458.649C384.524,-453.845 395.201,-447.795 405,-443.044 443.023,-424.607 455.28,-426.093 493,-407.044 496.308,-405.373 499.709,-403.521 503.057,-401.608"/>
<polygon fill="green" stroke="green" stroke-width="0.332749" points="504.88,-404.597 511.702,-396.491 501.314,-398.573 504.88,-404.597"/>
</g>
<!-- 1430 -->
<g id="node20" class="node"><title>1430</title>
<ellipse fill="white" stroke="black" cx="309" cy="-293.969" rx="25" ry="25"/>
<text text-anchor="middle" x="309" y="-291.769" font-family="Times New Roman,serif" font-size="9.00">1430</text>
</g>
<!-- Displacement&#45;&gt;1430 -->
<g id="edge3" class="edge"><title>Displacement&#45;&gt;1430</title>
<path fill="none" stroke="red" stroke-width="0.498042" stroke-dasharray="1,5" d="M362.519,-458.605C361.231,-440.099 356.879,-393.83 344,-357.546 339.878,-345.933 333.71,-333.943 327.694,-323.605"/>
<polygon fill="red" stroke="red" stroke-width="0.498042" points="330.664,-321.752 322.503,-314.996 324.67,-325.367 330.664,-321.752"/>
</g>
<!-- 3831 -->
<g id="node21" class="node"><title>3831</title>
<ellipse fill="white" stroke="black" cx="310" cy="-382.295" rx="25" ry="25"/>
<text text-anchor="middle" x="310" y="-380.095" font-family="Times New Roman,serif" font-size="9.00">3831</text>
</g>
<!-- Displacement&#45;&gt;3831 -->
<g id="edge16" class="edge"><title>Displacement&#45;&gt;3831</title>
<path fill="none" stroke="green" stroke-width="0.432749" d="M357.918,-458.786C351.185,-448.179 338.942,-428.891 328.517,-412.467"/>
<polygon fill="green" stroke="green" stroke-width="0.432749" points="331.273,-410.278 322.959,-403.711 325.363,-414.029 331.273,-410.278"/>
</g>
<!-- Horsepower -->
<g id="node3" class="node"><title>Horsepower</title>
<polygon fill="lightgray" stroke="black" points="476,-476.792 414,-476.792 414,-458.792 476,-458.792 476,-476.792"/>
<text text-anchor="middle" x="445" y="-465.592" font-family="Times New Roman,serif" font-size="9.00">Horsepower</text>
</g>
<!-- Weight -->
<g id="node4" class="node"><title>Weight</title>
<polygon fill="lightgray" stroke="black" points="394,-302.969 352,-302.969 352,-284.969 394,-284.969 394,-302.969"/>
<text text-anchor="middle" x="373" y="-291.769" font-family="Times New Roman,serif" font-size="9.00">Weight</text>
</g>
<!-- MPG -->
<g id="node10" class="node"><title>MPG</title>
<ellipse fill="lightblue" stroke="black" cx="366" cy="-203.522" rx="26.7407" ry="26.7407"/>
<text text-anchor="middle" x="366" y="-201.322" font-family="Times New Roman,serif" font-size="9.00">MPG</text>
</g>
<!-- Weight&#45;&gt;MPG -->
<g id="edge14" class="edge"><title>Weight&#45;&gt;MPG</title>
<path fill="none" stroke="red" stroke-width="0.141703" d="M372.354,-284.807C371.56,-274.774 370.159,-257.078 368.875,-240.849"/>
<polygon fill="red" stroke="red" stroke-width="0.141703" points="372.333,-240.184 368.055,-230.491 365.355,-240.736 372.333,-240.184"/>
</g>
<!-- Acceleration -->
<g id="node5" class="node"><title>Acceleration</title>
<polygon fill="lightgray" stroke="black" points="62,-391.295 0,-391.295 0,-373.295 62,-373.295 62,-391.295"/>
<text text-anchor="middle" x="31" y="-380.095" font-family="Times New Roman,serif" font-size="9.00">Acceleration</text>
</g>
<!-- Acceleration&#45;&gt;264 -->
<g id="edge23" class="edge"><title>Acceleration&#45;&gt;264</title>
<path fill="none" stroke="red" stroke-width="0.200073" d="M43.4649,-373.018C64.4531,-359.081 107.268,-330.65 135.019,-312.222"/>
<polygon fill="red" stroke="red" stroke-width="0.200073" points="137.058,-315.069 143.453,-306.621 133.186,-309.237 137.058,-315.069"/>
</g>
<!-- 1357 -->
<g id="node16" class="node"><title>1357</title>
<ellipse fill="white" stroke="black" cx="441" cy="-24.7487" rx="25" ry="25"/>
<text text-anchor="middle" x="441" y="-22.5487" font-family="Times New Roman,serif" font-size="9.00">1357</text>
</g>
<!-- Acceleration&#45;&gt;1357 -->
<g id="edge8" class="edge"><title>Acceleration&#45;&gt;1357</title>
<path fill="none" stroke="red" stroke-width="0.337936" d="M30.2365,-373.27C28.7556,-353.375 27.405,-300.9 50,-266.392 137.962,-132.052 329.616,-60.1233 407.293,-35.571"/>
<polygon fill="red" stroke="red" stroke-width="0.337936" points="408.53,-38.8518 417.046,-32.5491 406.459,-32.1654 408.53,-38.8518"/>
</g>
<!-- 3474 -->
<g id="node18" class="node"><title>3474</title>
<ellipse fill="white" stroke="black" cx="84" cy="-293.969" rx="25" ry="25"/>
<text text-anchor="middle" x="84" y="-291.769" font-family="Times New Roman,serif" font-size="9.00">3474</text>
</g>
<!-- Acceleration&#45;&gt;3474 -->
<g id="edge12" class="edge"><title>Acceleration&#45;&gt;3474</title>
<path fill="none" stroke="green" stroke-width="0.709148" d="M36.0819,-373.018C42.9656,-361.806 55.6084,-341.213 66.1797,-323.995"/>
<polygon fill="green" stroke="green" stroke-width="0.709148" points="69.2281,-325.719 71.4775,-315.366 63.2626,-322.056 69.2281,-325.719"/>
</g>
<!-- Model Year -->
<g id="node6" class="node"><title>Model Year</title>
<polygon fill="lightgray" stroke="black" points="450.5,-391.295 391.5,-391.295 391.5,-373.295 450.5,-373.295 450.5,-391.295"/>
<text text-anchor="middle" x="421" y="-380.095" font-family="Times New Roman,serif" font-size="9.00">Model Year</text>
</g>
<!-- Model Year&#45;&gt;13217 -->
<g id="edge18" class="edge"><title>Model Year&#45;&gt;13217</title>
<path fill="none" stroke="red" stroke-width="0.16066" stroke-dasharray="1,5" d="M426.465,-373.018C433.584,-362.237 446.429,-342.783 457.514,-325.996"/>
<polygon fill="red" stroke="red" stroke-width="0.16066" points="460.521,-327.793 463.11,-317.52 454.679,-323.936 460.521,-327.793"/>
</g>
<!-- Model Year&#45;&gt;1357 -->
<g id="edge9" class="edge"><title>Model Year&#45;&gt;1357</title>
<path fill="none" stroke="red" stroke-width="0.430367" stroke-dasharray="1,5" d="M421.455,-373.201C423.804,-331.441 434.615,-139.255 439.071,-60.0328"/>
<polygon fill="red" stroke="red" stroke-width="0.430367" points="442.589,-59.8122 439.657,-49.6314 435.6,-59.419 442.589,-59.8122"/>
</g>
<!-- Model Year&#45;&gt;1430 -->
<g id="edge15" class="edge"><title>Model Year&#45;&gt;1430</title>
<path fill="none" stroke="green" stroke-width="0.554219" d="M410.377,-373.21C395.343,-361.756 367.013,-340.128 343,-321.546 340.722,-319.784 338.362,-317.952 335.996,-316.11"/>
<polygon fill="green" stroke="green" stroke-width="0.554219" points="338.074,-313.292 328.036,-309.902 333.769,-318.812 338.074,-313.292"/>
</g>
<!-- USA -->
<g id="node7" class="node"><title>USA</title>
<polygon fill="lightgray" stroke="black" points="529.5,-476.792 494.5,-476.792 494.5,-458.792 529.5,-458.792 529.5,-476.792"/>
<text text-anchor="middle" x="512" y="-465.592" font-family="Times New Roman,serif" font-size="9.00">USA</text>
</g>
<!-- Europe -->
<g id="node8" class="node"><title>Europe</title>
<polygon fill="lightgray" stroke="black" points="590.5,-476.792 547.5,-476.792 547.5,-458.792 590.5,-458.792 590.5,-476.792"/>
<text text-anchor="middle" x="569" y="-465.592" font-family="Times New Roman,serif" font-size="9.00">Europe</text>
</g>
<!-- Japan -->
<g id="node9" class="node"><title>Japan</title>
<polygon fill="lightgray" stroke="black" points="550,-212.522 512,-212.522 512,-194.522 550,-194.522 550,-212.522"/>
<text text-anchor="middle" x="531" y="-201.322" font-family="Times New Roman,serif" font-size="9.00">Japan</text>
</g>
<!-- Japan&#45;&gt;1357 -->
<g id="edge2" class="edge"><title>Japan&#45;&gt;1357</title>
<path fill="none" stroke="red" stroke-width="0.317475" stroke-dasharray="1,5" d="M527.269,-194.506C518.364,-175.451 495.037,-126.01 474,-85.4975 468.868,-75.615 463.058,-64.9372 457.758,-55.3795"/>
<polygon fill="red" stroke="red" stroke-width="0.317475" points="460.801,-53.6494 452.872,-46.6216 454.688,-57.0598 460.801,-53.6494"/>
</g>
<!-- 54333 -->
<g id="node19" class="node"><title>54333</title>
<ellipse fill="white" stroke="black" cx="554" cy="-113.075" rx="27.6545" ry="27.6545"/>
<text text-anchor="middle" x="554" y="-110.875" font-family="Times New Roman,serif" font-size="9.00">54333</text>
</g>
<!-- Japan&#45;&gt;54333 -->
<g id="edge24" class="edge"><title>Japan&#45;&gt;54333</title>
<path fill="none" stroke="green" stroke-width="0.248558" d="M533.123,-194.359C535.756,-184.231 540.421,-166.293 544.674,-149.938"/>
<polygon fill="green" stroke="green" stroke-width="0.248558" points="548.117,-150.603 547.247,-140.044 541.343,-148.841 548.117,-150.603"/>
</g>
<!-- 40962 -->
<g id="node12" class="node"><title>40962</title>
<ellipse fill="white" stroke="black" cx="366" cy="-113.075" rx="27.6545" ry="27.6545"/>
<text text-anchor="middle" x="366" y="-110.875" font-family="Times New Roman,serif" font-size="9.00">40962</text>
</g>
<!-- MPG&#45;&gt;40962 -->
<g id="edge21" class="edge"><title>MPG&#45;&gt;40962</title>
<path fill="none" stroke="green" stroke-width="0.121093" d="M366,-176.463C366,-168.493 366,-159.571 366,-151.021"/>
<polygon fill="green" stroke="green" stroke-width="0.121093" points="369.5,-150.867 366,-140.867 362.5,-150.867 369.5,-150.867"/>
</g>
<!-- 13217&#45;&gt;1357 -->
<g id="edge19" class="edge"><title>13217&#45;&gt;1357</title>
<path fill="none" stroke="red" stroke-width="0.370919" d="M474.317,-266.37C467.548,-217.484 453.142,-113.441 445.687,-59.6001"/>
<polygon fill="red" stroke="red" stroke-width="0.370919" points="449.132,-58.9579 444.293,-49.5325 442.198,-59.918 449.132,-58.9579"/>
</g>
<!-- 40962&#45;&gt;1357 -->
<g id="edge22" class="edge"><title>40962&#45;&gt;1357</title>
<path fill="none" stroke="red" stroke-width="0.180047" d="M383.774,-91.6166C394.177,-79.6427 407.411,-64.4099 418.532,-51.6097"/>
<polygon fill="red" stroke="red" stroke-width="0.180047" points="421.222,-53.8495 425.139,-44.0051 415.938,-49.2586 421.222,-53.8495"/>
</g>
<!-- 3403 -->
<g id="node14" class="node"><title>3403</title>
<ellipse fill="white" stroke="black" cx="296" cy="-203.522" rx="25" ry="25"/>
<text text-anchor="middle" x="296" y="-201.322" font-family="Times New Roman,serif" font-size="9.00">3403</text>
</g>
<!-- 2604&#45;&gt;264 -->
<g id="edge13" class="edge"><title>2604&#45;&gt;264</title>
<path fill="none" stroke="green" stroke-width="0.418355" d="M226.406,-363.826C213.692,-350.44 196.054,-331.872 182.298,-317.39"/>
<polygon fill="green" stroke="green" stroke-width="0.418355" points="184.536,-314.664 175.111,-309.824 179.46,-319.485 184.536,-314.664"/>
</g>
<!-- 2604&#45;&gt;1430 -->
<g id="edge7" class="edge"><title>2604&#45;&gt;1430</title>
<path fill="none" stroke="red" stroke-width="0.192916" d="M257.648,-362.136C266.62,-350.401 278.245,-335.195 288.166,-322.22"/>
<polygon fill="red" stroke="red" stroke-width="0.192916" points="291.1,-324.144 294.393,-314.074 285.539,-319.892 291.1,-324.144"/>
</g>
<!-- 54333&#45;&gt;1357 -->
<g id="edge25" class="edge"><title>54333&#45;&gt;1357</title>
<path fill="none" stroke="red" stroke-width="0.147827" d="M532.48,-95.6342C514.214,-81.68 487.906,-61.5824 468.187,-46.5181"/>
<polygon fill="red" stroke="red" stroke-width="0.147827" points="470.253,-43.6921 460.182,-40.4027 466.004,-49.2547 470.253,-43.6921"/>
</g>
<!-- 1430&#45;&gt;MPG -->
<g id="edge4" class="edge"><title>1430&#45;&gt;MPG</title>
<path fill="none" stroke="green" stroke-width="0.136981" d="M322.22,-272.455C329.366,-261.368 338.33,-247.457 346.283,-235.116"/>
<polygon fill="green" stroke="green" stroke-width="0.136981" points="349.38,-236.772 351.855,-226.47 343.496,-232.98 349.38,-236.772"/>
</g>
<!-- 1430&#45;&gt;3403 -->
<g id="edge11" class="edge"><title>1430&#45;&gt;3403</title>
<path fill="none" stroke="green" stroke-width="0.234442" d="M305.516,-269.267C304.117,-259.749 302.479,-248.602 300.96,-238.266"/>
<polygon fill="green" stroke="green" stroke-width="0.234442" points="304.41,-237.674 299.493,-228.29 297.485,-238.692 304.41,-237.674"/>
</g>
<!-- 3831&#45;&gt;1430 -->
<g id="edge17" class="edge"><title>3831&#45;&gt;1430</title>
<path fill="none" stroke="green" stroke-width="0.351851" d="M309.721,-357.248C309.621,-348.549 309.505,-338.551 309.396,-329.149"/>
<polygon fill="green" stroke="green" stroke-width="0.351851" points="312.893,-328.845 309.277,-318.887 305.893,-328.927 312.893,-328.845"/>
</g>
<!-- 3066 -->
<g id="node22" class="node"><title>3066</title>
<ellipse fill="white" stroke="black" cx="105" cy="-382.295" rx="25" ry="25"/>
<text text-anchor="middle" x="105" y="-380.095" font-family="Times New Roman,serif" font-size="9.00">3066</text>
</g>
<!-- 3066&#45;&gt;264 -->
<g id="edge10" class="edge"><title>3066&#45;&gt;264</title>
<path fill="none" stroke="red" stroke-width="0.477705" d="M118.271,-360.837C126.102,-348.765 136.083,-333.38 144.428,-320.516"/>
<polygon fill="red" stroke="red" stroke-width="0.477705" points="147.392,-322.378 149.898,-312.084 141.519,-318.569 147.392,-322.378"/>
</g>
<!-- 3645 -->
<g id="node23" class="node"><title>3645</title>
<ellipse fill="white" stroke="black" cx="633" cy="-467.792" rx="25" ry="25"/>
<text text-anchor="middle" x="633" y="-465.592" font-family="Times New Roman,serif" font-size="9.00">3645</text>
</g>
</g>
</svg>
