<?xml version="1.0" encoding="UTF-8" standalone="no"?>
<!DOCTYPE svg PUBLIC "-//W3C//DTD SVG 1.1//EN"
 "http://www.w3.org/Graphics/SVG/1.1/DTD/svg11.dtd">
<!-- Generated by graphviz version 2.38.0 (20140413.2041)
 -->
<!-- Title: %3 Pages: 1 -->
<svg width="599pt" height="458pt"
 viewBox="0.00 0.00 599.25 457.73" xmlns="http://www.w3.org/2000/svg" xmlns:xlink="http://www.w3.org/1999/xlink">
<g id="graph0" class="graph" transform="scale(1 1) rotate(0) translate(4 453.73)">
<title>%3</title>
<polygon fill="white" stroke="none" points="-4,4 -4,-453.73 595.249,-453.73 595.249,4 -4,4"/>
<!-- Cylinders -->
<g id="node1" class="node"><title>Cylinders</title>
<polygon fill="lightgray" stroke="black" points="72.7487,-449.73 20.7487,-449.73 20.7487,-431.73 72.7487,-431.73 72.7487,-449.73"/>
<text text-anchor="middle" x="46.7487" y="-438.53" font-family="Times New Roman,serif" font-size="9.00">Cylinders</text>
</g>
<!-- 6829 -->
<g id="node14" class="node"><title>6829</title>
<ellipse fill="white" stroke="black" cx="24.7487" cy="-368.86" rx="25" ry="25"/>
<text text-anchor="middle" x="24.7487" y="-366.66" font-family="Times New Roman,serif" font-size="9.00">6829</text>
</g>
<!-- Cylinders&#45;&gt;6829 -->
<g id="edge15" class="edge"><title>Cylinders&#45;&gt;6829</title>
<path fill="none" stroke="green" stroke-width="0.445093" d="M44.2251,-431.715C41.9438,-424.47 38.4283,-413.305 35.0087,-402.445"/>
<polygon fill="green" stroke="green" stroke-width="0.445093" points="38.2752,-401.165 31.9333,-392.678 31.5983,-403.267 38.2752,-401.165"/>
</g>
<!-- 668 -->
<g id="node17" class="node"><title>668</title>
<ellipse fill="white" stroke="black" cx="88.7487" cy="-281.241" rx="21.4286" ry="21.4286"/>
<text text-anchor="middle" x="88.7487" y="-279.041" font-family="Times New Roman,serif" font-size="9.00">668</text>
</g>
<!-- Cylinders&#45;&gt;668 -->
<g id="edge7" class="edge"><title>Cylinders&#45;&gt;668</title>
<path fill="none" stroke="green" stroke-width="0.246433" stroke-dasharray="1,5" d="M48.9794,-431.626C51.4034,-422.802 55.3811,-408.271 58.7487,-395.73 66.403,-367.226 74.9978,-334.653 81.0195,-311.736"/>
<polygon fill="green" stroke="green" stroke-width="0.246433" points="84.4383,-312.497 83.5925,-301.936 77.6678,-310.719 84.4383,-312.497"/>
</g>
<!-- Displacement -->
<g id="node2" class="node"><title>Displacement</title>
<polygon fill="lightgray" stroke="black" points="316.749,-449.73 250.749,-449.73 250.749,-431.73 316.749,-431.73 316.749,-449.73"/>
<text text-anchor="middle" x="283.749" y="-438.53" font-family="Times New Roman,serif" font-size="9.00">Displacement</text>
</g>
<!-- Horsepower -->
<g id="node3" class="node"><title>Horsepower</title>
<polygon fill="lightgray" stroke="black" points="396.749,-449.73 334.749,-449.73 334.749,-431.73 396.749,-431.73 396.749,-449.73"/>
<text text-anchor="middle" x="365.749" y="-438.53" font-family="Times New Roman,serif" font-size="9.00">Horsepower</text>
</g>
<!-- Weight -->
<g id="node4" class="node"><title>Weight</title>
<polygon fill="lightgray" stroke="black" points="153.749,-449.73 111.749,-449.73 111.749,-431.73 153.749,-431.73 153.749,-449.73"/>
<text text-anchor="middle" x="132.749" y="-438.53" font-family="Times New Roman,serif" font-size="9.00">Weight</text>
</g>
<!-- MPG -->
<g id="node10" class="node"><title>MPG</title>
<ellipse fill="lightblue" stroke="black" cx="132.749" cy="-368.86" rx="26.7407" ry="26.7407"/>
<text text-anchor="middle" x="132.749" y="-366.66" font-family="Times New Roman,serif" font-size="9.00">MPG</text>
</g>
<!-- Weight&#45;&gt;MPG -->
<g id="edge1" class="edge"><title>Weight&#45;&gt;MPG</title>
<path fill="none" stroke="red" stroke-width="0.176817" d="M132.749,-431.715C132.749,-425.224 132.749,-415.586 132.749,-405.84"/>
<polygon fill="red" stroke="red" stroke-width="0.176817" points="136.249,-405.771 132.749,-395.771 129.249,-405.772 136.249,-405.771"/>
</g>
<!-- Acceleration -->
<g id="node5" class="node"><title>Acceleration</title>
<polygon fill="lightgray" stroke="black" points="476.749,-449.73 414.749,-449.73 414.749,-431.73 476.749,-431.73 476.749,-449.73"/>
<text text-anchor="middle" x="445.749" y="-438.53" font-family="Times New Roman,serif" font-size="9.00">Acceleration</text>
</g>
<!-- Model Year -->
<g id="node6" class="node"><title>Model Year</title>
<polygon fill="lightgray" stroke="black" points="232.249,-449.73 173.249,-449.73 173.249,-431.73 232.249,-431.73 232.249,-449.73"/>
<text text-anchor="middle" x="202.749" y="-438.53" font-family="Times New Roman,serif" font-size="9.00">Model Year</text>
</g>
<!-- Model Year&#45;&gt;MPG -->
<g id="edge10" class="edge"><title>Model Year&#45;&gt;MPG</title>
<path fill="none" stroke="green" stroke-width="0.143847" d="M194.719,-431.715C185.953,-422.966 171.46,-408.5 158.694,-395.757"/>
<polygon fill="green" stroke="green" stroke-width="0.143847" points="160.983,-393.097 151.433,-388.509 156.038,-398.051 160.983,-393.097"/>
</g>
<!-- 6889 -->
<g id="node13" class="node"><title>6889</title>
<ellipse fill="white" stroke="black" cx="202.749" cy="-368.86" rx="25" ry="25"/>
<text text-anchor="middle" x="202.749" y="-366.66" font-family="Times New Roman,serif" font-size="9.00">6889</text>
</g>
<!-- Model Year&#45;&gt;6889 -->
<g id="edge13" class="edge"><title>Model Year&#45;&gt;6889</title>
<path fill="none" stroke="green" stroke-width="0.212766" d="M202.749,-431.715C202.749,-424.833 202.749,-414.414 202.749,-404.079"/>
<polygon fill="green" stroke="green" stroke-width="0.212766" points="206.249,-403.905 202.749,-393.905 199.249,-403.905 206.249,-403.905"/>
</g>
<!-- 6367 -->
<g id="node19" class="node"><title>6367</title>
<ellipse fill="white" stroke="black" cx="213.749" cy="-195.744" rx="25" ry="25"/>
<text text-anchor="middle" x="213.749" y="-193.544" font-family="Times New Roman,serif" font-size="9.00">6367</text>
</g>
<!-- Model Year&#45;&gt;6367 -->
<g id="edge12" class="edge"><title>Model Year&#45;&gt;6367</title>
<path fill="none" stroke="green" stroke-width="0.147976" stroke-dasharray="1,5" d="M211.715,-431.669C220.025,-423.542 231.821,-410.165 236.749,-395.73 256.064,-339.145 239.061,-268.813 225.81,-228.721"/>
<polygon fill="green" stroke="green" stroke-width="0.147976" points="229.102,-227.53 222.547,-219.207 222.481,-229.801 229.102,-227.53"/>
</g>
<!-- USA -->
<g id="node7" class="node"><title>USA</title>
<polygon fill="lightgray" stroke="black" points="530.249,-449.73 495.249,-449.73 495.249,-431.73 530.249,-431.73 530.249,-449.73"/>
<text text-anchor="middle" x="512.749" y="-438.53" font-family="Times New Roman,serif" font-size="9.00">USA</text>
</g>
<!-- Europe -->
<g id="node8" class="node"><title>Europe</title>
<polygon fill="lightgray" stroke="black" points="591.249,-449.73 548.249,-449.73 548.249,-431.73 591.249,-431.73 591.249,-449.73"/>
<text text-anchor="middle" x="569.749" y="-438.53" font-family="Times New Roman,serif" font-size="9.00">Europe</text>
</g>
<!-- Japan -->
<g id="node9" class="node"><title>Japan</title>
<polygon fill="lightgray" stroke="black" points="173.749,-119.246 135.749,-119.246 135.749,-101.246 173.749,-101.246 173.749,-119.246"/>
<text text-anchor="middle" x="154.749" y="-108.046" font-family="Times New Roman,serif" font-size="9.00">Japan</text>
</g>
<!-- 3728 -->
<g id="node16" class="node"><title>3728</title>
<ellipse fill="white" stroke="black" cx="154.749" cy="-24.7487" rx="25" ry="25"/>
<text text-anchor="middle" x="154.749" y="-22.5487" font-family="Times New Roman,serif" font-size="9.00">3728</text>
</g>
<!-- Japan&#45;&gt;3728 -->
<g id="edge2" class="edge"><title>Japan&#45;&gt;3728</title>
<path fill="none" stroke="red" stroke-width="0.443976" stroke-dasharray="1,5" d="M154.749,-101.24C154.749,-91.6887 154.749,-75.0995 154.749,-59.9004"/>
<polygon fill="red" stroke="red" stroke-width="0.443976" points="158.249,-59.7037 154.749,-49.7037 151.249,-59.7038 158.249,-59.7037"/>
</g>
<!-- MPG&#45;&gt;668 -->
<g id="edge3" class="edge"><title>MPG&#45;&gt;668</title>
<path fill="none" stroke="red" stroke-width="0.192614" d="M120.726,-344.464C115.16,-333.633 108.513,-320.699 102.724,-309.436"/>
<polygon fill="red" stroke="red" stroke-width="0.192614" points="105.791,-307.746 98.1069,-300.451 99.5648,-310.945 105.791,-307.746"/>
</g>
<!-- 6528 -->
<g id="node11" class="node"><title>6528</title>
<ellipse fill="white" stroke="black" cx="24.7487" cy="-195.744" rx="25" ry="25"/>
<text text-anchor="middle" x="24.7487" y="-193.544" font-family="Times New Roman,serif" font-size="9.00">6528</text>
</g>
<!-- 4285 -->
<g id="node18" class="node"><title>4285</title>
<ellipse fill="white" stroke="black" cx="77.7487" cy="-110.246" rx="25" ry="25"/>
<text text-anchor="middle" x="77.7487" y="-108.046" font-family="Times New Roman,serif" font-size="9.00">4285</text>
</g>
<!-- 6528&#45;&gt;4285 -->
<g id="edge9" class="edge"><title>6528&#45;&gt;4285</title>
<path fill="none" stroke="red" stroke-width="0.248132" stroke-dasharray="1,5" d="M37.5786,-174.531C44.1054,-164.249 52.1558,-151.566 59.3317,-140.261"/>
<polygon fill="red" stroke="red" stroke-width="0.248132" points="62.4492,-141.88 64.8534,-131.562 56.5393,-138.129 62.4492,-141.88"/>
</g>
<!-- 6944 -->
<g id="node12" class="node"><title>6944</title>
<ellipse fill="white" stroke="black" cx="162.749" cy="-281.241" rx="25" ry="25"/>
<text text-anchor="middle" x="162.749" y="-279.041" font-family="Times New Roman,serif" font-size="9.00">6944</text>
</g>
<!-- 6944&#45;&gt;6367 -->
<g id="edge17" class="edge"><title>6944&#45;&gt;6367</title>
<path fill="none" stroke="red" stroke-width="0.404319" d="M175.355,-259.601C181.593,-249.389 189.228,-236.89 196.041,-225.735"/>
<polygon fill="red" stroke="red" stroke-width="0.404319" points="199.061,-227.505 201.287,-217.146 193.088,-223.856 199.061,-227.505"/>
</g>
<!-- 6889&#45;&gt;6944 -->
<g id="edge16" class="edge"><title>6889&#45;&gt;6944</title>
<path fill="none" stroke="green" stroke-width="0.407385" d="M192.655,-346.255C187.965,-336.216 182.303,-324.096 177.173,-313.115"/>
<polygon fill="green" stroke="green" stroke-width="0.407385" points="180.243,-311.418 172.839,-303.839 173.901,-314.381 180.243,-311.418"/>
</g>
<!-- 6889&#45;&gt;6367 -->
<g id="edge14" class="edge"><title>6889&#45;&gt;6367</title>
<path fill="none" stroke="red" stroke-width="0.144624" stroke-dasharray="1,5" d="M204.278,-344.067C206.169,-314.65 209.401,-264.375 211.556,-230.856"/>
<polygon fill="red" stroke="red" stroke-width="0.144624" points="215.066,-230.814 212.215,-220.61 208.08,-230.365 215.066,-230.814"/>
</g>
<!-- 4400 -->
<g id="node15" class="node"><title>4400</title>
<ellipse fill="white" stroke="black" cx="24.7487" cy="-281.241" rx="25" ry="25"/>
<text text-anchor="middle" x="24.7487" y="-279.041" font-family="Times New Roman,serif" font-size="9.00">4400</text>
</g>
<!-- 6829&#45;&gt;4400 -->
<g id="edge18" class="edge"><title>6829&#45;&gt;4400</title>
<path fill="none" stroke="green" stroke-width="0.333856" d="M24.7487,-344.01C24.7487,-335.454 24.7487,-325.632 24.7487,-316.374"/>
<polygon fill="green" stroke="green" stroke-width="0.333856" points="28.2488,-316.26 24.7487,-306.26 21.2488,-316.26 28.2488,-316.26"/>
</g>
<!-- 6829&#45;&gt;668 -->
<g id="edge11" class="edge"><title>6829&#45;&gt;668</title>
<path fill="none" stroke="green" stroke-width="0.222323" d="M39.2713,-348.432C48.4683,-336.128 60.4438,-320.107 70.3093,-306.909"/>
<polygon fill="green" stroke="green" stroke-width="0.222323" points="73.2535,-308.816 76.4373,-298.711 67.6467,-304.625 73.2535,-308.816"/>
</g>
<!-- 4400&#45;&gt;6528 -->
<g id="edge8" class="edge"><title>4400&#45;&gt;6528</title>
<path fill="none" stroke="green" stroke-width="0.268717" d="M24.7487,-256.09C24.7487,-248.146 24.7487,-239.162 24.7487,-230.631"/>
<polygon fill="green" stroke="green" stroke-width="0.268717" points="28.2488,-230.552 24.7487,-220.552 21.2488,-230.552 28.2488,-230.552"/>
</g>
<!-- 4400&#45;&gt;4285 -->
<g id="edge5" class="edge"><title>4400&#45;&gt;4285</title>
<path fill="none" stroke="red" stroke-width="0.349323" d="M38.3852,-260.347C45.4821,-249.107 53.7065,-234.533 58.7487,-220.492 67.4716,-196.203 72.269,-167.393 74.8603,-145.459"/>
<polygon fill="red" stroke="red" stroke-width="0.349323" points="78.364,-145.613 75.9626,-135.294 71.4048,-144.858 78.364,-145.613"/>
</g>
<!-- 4285&#45;&gt;3728 -->
<g id="edge4" class="edge"><title>4285&#45;&gt;3728</title>
<path fill="none" stroke="red" stroke-width="0.61919" d="M94.0785,-91.5385C105.002,-79.6935 119.537,-63.9317 131.642,-50.8054"/>
<polygon fill="red" stroke="red" stroke-width="0.61919" points="134.236,-53.155 138.443,-43.4309 129.09,-48.4095 134.236,-53.155"/>
</g>
<!-- 6367&#45;&gt;3728 -->
<g id="edge6" class="edge"><title>6367&#45;&gt;3728</title>
<path fill="none" stroke="red" stroke-width="0.242813" d="M208.284,-171.376C202.783,-149.014 193.576,-114.495 182.749,-85.4975 179.12,-75.7801 174.556,-65.4621 170.171,-56.1839"/>
<polygon fill="red" stroke="red" stroke-width="0.242813" points="173.216,-54.4413 165.714,-46.9603 166.914,-57.487 173.216,-54.4413"/>
</g>
</g>
</svg>
