<?xml version="1.0" encoding="utf-8" standalone="no"?>
<!DOCTYPE svg PUBLIC "-//W3C//DTD SVG 1.1//EN"
  "http://www.w3.org/Graphics/SVG/1.1/DTD/svg11.dtd">
<!-- Created with matplotlib (https://matplotlib.org/) -->
<svg height="345.6pt" version="1.1" viewBox="0 0 460.8 345.6" width="460.8pt" xmlns="http://www.w3.org/2000/svg" xmlns:xlink="http://www.w3.org/1999/xlink">
 <defs>
  <style type="text/css">
*{stroke-linecap:butt;stroke-linejoin:round;}
  </style>
 </defs>
 <g id="figure_1">
  <g id="patch_1">
   <path d="M 0 345.6 
L 460.8 345.6 
L 460.8 0 
L 0 0 
z
" style="fill:#ffffff;"/>
  </g>
  <g id="axes_1">
   <g id="patch_2">
    <path d="M 57.6 307.584 
L 414.72 307.584 
L 414.72 41.472 
L 57.6 41.472 
z
" style="fill:#ffffff;"/>
   </g>
   <g id="matplotlib.axis_1">
    <g id="xtick_1">
     <g id="line2d_1">
      <path clip-path="url(#p2ddbe0827c)" d="M 73.832727 307.584 
L 73.832727 41.472 
" style="fill:none;stroke:#b0b0b0;stroke-linecap:square;stroke-width:0.8;"/>
     </g>
     <g id="line2d_2">
      <defs>
       <path d="M 0 0 
L 0 3.5 
" id="m166a5fe19b" style="stroke:#000000;stroke-width:0.8;"/>
      </defs>
      <g>
       <use style="stroke:#000000;stroke-width:0.8;" x="73.832727" xlink:href="#m166a5fe19b" y="307.584"/>
      </g>
     </g>
     <g id="text_1">
      <!-- 0 -->
      <defs>
       <path d="M 31.78125 66.40625 
Q 24.171875 66.40625 20.328125 58.90625 
Q 16.5 51.421875 16.5 36.375 
Q 16.5 21.390625 20.328125 13.890625 
Q 24.171875 6.390625 31.78125 6.390625 
Q 39.453125 6.390625 43.28125 13.890625 
Q 47.125 21.390625 47.125 36.375 
Q 47.125 51.421875 43.28125 58.90625 
Q 39.453125 66.40625 31.78125 66.40625 
z
M 31.78125 74.21875 
Q 44.046875 74.21875 50.515625 64.515625 
Q 56.984375 54.828125 56.984375 36.375 
Q 56.984375 17.96875 50.515625 8.265625 
Q 44.046875 -1.421875 31.78125 -1.421875 
Q 19.53125 -1.421875 13.0625 8.265625 
Q 6.59375 17.96875 6.59375 36.375 
Q 6.59375 54.828125 13.0625 64.515625 
Q 19.53125 74.21875 31.78125 74.21875 
z
" id="DejaVuSans-48"/>
      </defs>
      <g transform="translate(70.651477 322.182437)scale(0.1 -0.1)">
       <use xlink:href="#DejaVuSans-48"/>
      </g>
     </g>
    </g>
    <g id="xtick_2">
     <g id="line2d_3">
      <path clip-path="url(#p2ddbe0827c)" d="M 124.71902 307.584 
L 124.71902 41.472 
" style="fill:none;stroke:#b0b0b0;stroke-linecap:square;stroke-width:0.8;"/>
     </g>
     <g id="line2d_4">
      <g>
       <use style="stroke:#000000;stroke-width:0.8;" x="124.71902" xlink:href="#m166a5fe19b" y="307.584"/>
      </g>
     </g>
     <g id="text_2">
      <!-- 50 -->
      <defs>
       <path d="M 10.796875 72.90625 
L 49.515625 72.90625 
L 49.515625 64.59375 
L 19.828125 64.59375 
L 19.828125 46.734375 
Q 21.96875 47.46875 24.109375 47.828125 
Q 26.265625 48.1875 28.421875 48.1875 
Q 40.625 48.1875 47.75 41.5 
Q 54.890625 34.8125 54.890625 23.390625 
Q 54.890625 11.625 47.5625 5.09375 
Q 40.234375 -1.421875 26.90625 -1.421875 
Q 22.3125 -1.421875 17.546875 -0.640625 
Q 12.796875 0.140625 7.71875 1.703125 
L 7.71875 11.625 
Q 12.109375 9.234375 16.796875 8.0625 
Q 21.484375 6.890625 26.703125 6.890625 
Q 35.15625 6.890625 40.078125 11.328125 
Q 45.015625 15.765625 45.015625 23.390625 
Q 45.015625 31 40.078125 35.4375 
Q 35.15625 39.890625 26.703125 39.890625 
Q 22.75 39.890625 18.8125 39.015625 
Q 14.890625 38.140625 10.796875 36.28125 
z
" id="DejaVuSans-53"/>
      </defs>
      <g transform="translate(118.35652 322.182437)scale(0.1 -0.1)">
       <use xlink:href="#DejaVuSans-53"/>
       <use x="63.623047" xlink:href="#DejaVuSans-48"/>
      </g>
     </g>
    </g>
    <g id="xtick_3">
     <g id="line2d_5">
      <path clip-path="url(#p2ddbe0827c)" d="M 175.605312 307.584 
L 175.605312 41.472 
" style="fill:none;stroke:#b0b0b0;stroke-linecap:square;stroke-width:0.8;"/>
     </g>
     <g id="line2d_6">
      <g>
       <use style="stroke:#000000;stroke-width:0.8;" x="175.605312" xlink:href="#m166a5fe19b" y="307.584"/>
      </g>
     </g>
     <g id="text_3">
      <!-- 100 -->
      <defs>
       <path d="M 12.40625 8.296875 
L 28.515625 8.296875 
L 28.515625 63.921875 
L 10.984375 60.40625 
L 10.984375 69.390625 
L 28.421875 72.90625 
L 38.28125 72.90625 
L 38.28125 8.296875 
L 54.390625 8.296875 
L 54.390625 0 
L 12.40625 0 
z
" id="DejaVuSans-49"/>
      </defs>
      <g transform="translate(166.061562 322.182437)scale(0.1 -0.1)">
       <use xlink:href="#DejaVuSans-49"/>
       <use x="63.623047" xlink:href="#DejaVuSans-48"/>
       <use x="127.246094" xlink:href="#DejaVuSans-48"/>
      </g>
     </g>
    </g>
    <g id="xtick_4">
     <g id="line2d_7">
      <path clip-path="url(#p2ddbe0827c)" d="M 226.491604 307.584 
L 226.491604 41.472 
" style="fill:none;stroke:#b0b0b0;stroke-linecap:square;stroke-width:0.8;"/>
     </g>
     <g id="line2d_8">
      <g>
       <use style="stroke:#000000;stroke-width:0.8;" x="226.491604" xlink:href="#m166a5fe19b" y="307.584"/>
      </g>
     </g>
     <g id="text_4">
      <!-- 150 -->
      <g transform="translate(216.947854 322.182437)scale(0.1 -0.1)">
       <use xlink:href="#DejaVuSans-49"/>
       <use x="63.623047" xlink:href="#DejaVuSans-53"/>
       <use x="127.246094" xlink:href="#DejaVuSans-48"/>
      </g>
     </g>
    </g>
    <g id="xtick_5">
     <g id="line2d_9">
      <path clip-path="url(#p2ddbe0827c)" d="M 277.377897 307.584 
L 277.377897 41.472 
" style="fill:none;stroke:#b0b0b0;stroke-linecap:square;stroke-width:0.8;"/>
     </g>
     <g id="line2d_10">
      <g>
       <use style="stroke:#000000;stroke-width:0.8;" x="277.377897" xlink:href="#m166a5fe19b" y="307.584"/>
      </g>
     </g>
     <g id="text_5">
      <!-- 200 -->
      <defs>
       <path d="M 19.1875 8.296875 
L 53.609375 8.296875 
L 53.609375 0 
L 7.328125 0 
L 7.328125 8.296875 
Q 12.9375 14.109375 22.625 23.890625 
Q 32.328125 33.6875 34.8125 36.53125 
Q 39.546875 41.84375 41.421875 45.53125 
Q 43.3125 49.21875 43.3125 52.78125 
Q 43.3125 58.59375 39.234375 62.25 
Q 35.15625 65.921875 28.609375 65.921875 
Q 23.96875 65.921875 18.8125 64.3125 
Q 13.671875 62.703125 7.8125 59.421875 
L 7.8125 69.390625 
Q 13.765625 71.78125 18.9375 73 
Q 24.125 74.21875 28.421875 74.21875 
Q 39.75 74.21875 46.484375 68.546875 
Q 53.21875 62.890625 53.21875 53.421875 
Q 53.21875 48.921875 51.53125 44.890625 
Q 49.859375 40.875 45.40625 35.40625 
Q 44.1875 33.984375 37.640625 27.21875 
Q 31.109375 20.453125 19.1875 8.296875 
z
" id="DejaVuSans-50"/>
      </defs>
      <g transform="translate(267.834147 322.182437)scale(0.1 -0.1)">
       <use xlink:href="#DejaVuSans-50"/>
       <use x="63.623047" xlink:href="#DejaVuSans-48"/>
       <use x="127.246094" xlink:href="#DejaVuSans-48"/>
      </g>
     </g>
    </g>
    <g id="xtick_6">
     <g id="line2d_11">
      <path clip-path="url(#p2ddbe0827c)" d="M 328.264189 307.584 
L 328.264189 41.472 
" style="fill:none;stroke:#b0b0b0;stroke-linecap:square;stroke-width:0.8;"/>
     </g>
     <g id="line2d_12">
      <g>
       <use style="stroke:#000000;stroke-width:0.8;" x="328.264189" xlink:href="#m166a5fe19b" y="307.584"/>
      </g>
     </g>
     <g id="text_6">
      <!-- 250 -->
      <g transform="translate(318.720439 322.182437)scale(0.1 -0.1)">
       <use xlink:href="#DejaVuSans-50"/>
       <use x="63.623047" xlink:href="#DejaVuSans-53"/>
       <use x="127.246094" xlink:href="#DejaVuSans-48"/>
      </g>
     </g>
    </g>
    <g id="xtick_7">
     <g id="line2d_13">
      <path clip-path="url(#p2ddbe0827c)" d="M 379.150482 307.584 
L 379.150482 41.472 
" style="fill:none;stroke:#b0b0b0;stroke-linecap:square;stroke-width:0.8;"/>
     </g>
     <g id="line2d_14">
      <g>
       <use style="stroke:#000000;stroke-width:0.8;" x="379.150482" xlink:href="#m166a5fe19b" y="307.584"/>
      </g>
     </g>
     <g id="text_7">
      <!-- 300 -->
      <defs>
       <path d="M 40.578125 39.3125 
Q 47.65625 37.796875 51.625 33 
Q 55.609375 28.21875 55.609375 21.1875 
Q 55.609375 10.40625 48.1875 4.484375 
Q 40.765625 -1.421875 27.09375 -1.421875 
Q 22.515625 -1.421875 17.65625 -0.515625 
Q 12.796875 0.390625 7.625 2.203125 
L 7.625 11.71875 
Q 11.71875 9.328125 16.59375 8.109375 
Q 21.484375 6.890625 26.8125 6.890625 
Q 36.078125 6.890625 40.9375 10.546875 
Q 45.796875 14.203125 45.796875 21.1875 
Q 45.796875 27.640625 41.28125 31.265625 
Q 36.765625 34.90625 28.71875 34.90625 
L 20.21875 34.90625 
L 20.21875 43.015625 
L 29.109375 43.015625 
Q 36.375 43.015625 40.234375 45.921875 
Q 44.09375 48.828125 44.09375 54.296875 
Q 44.09375 59.90625 40.109375 62.90625 
Q 36.140625 65.921875 28.71875 65.921875 
Q 24.65625 65.921875 20.015625 65.03125 
Q 15.375 64.15625 9.8125 62.3125 
L 9.8125 71.09375 
Q 15.4375 72.65625 20.34375 73.4375 
Q 25.25 74.21875 29.59375 74.21875 
Q 40.828125 74.21875 47.359375 69.109375 
Q 53.90625 64.015625 53.90625 55.328125 
Q 53.90625 49.265625 50.4375 45.09375 
Q 46.96875 40.921875 40.578125 39.3125 
z
" id="DejaVuSans-51"/>
      </defs>
      <g transform="translate(369.606732 322.182437)scale(0.1 -0.1)">
       <use xlink:href="#DejaVuSans-51"/>
       <use x="63.623047" xlink:href="#DejaVuSans-48"/>
       <use x="127.246094" xlink:href="#DejaVuSans-48"/>
      </g>
     </g>
    </g>
    <g id="text_8">
     <!-- Generations -->
     <defs>
      <path d="M 59.515625 10.40625 
L 59.515625 29.984375 
L 43.40625 29.984375 
L 43.40625 38.09375 
L 69.28125 38.09375 
L 69.28125 6.78125 
Q 63.578125 2.734375 56.6875 0.65625 
Q 49.8125 -1.421875 42 -1.421875 
Q 24.90625 -1.421875 15.25 8.5625 
Q 5.609375 18.5625 5.609375 36.375 
Q 5.609375 54.25 15.25 64.234375 
Q 24.90625 74.21875 42 74.21875 
Q 49.125 74.21875 55.546875 72.453125 
Q 61.96875 70.703125 67.390625 67.28125 
L 67.390625 56.78125 
Q 61.921875 61.421875 55.765625 63.765625 
Q 49.609375 66.109375 42.828125 66.109375 
Q 29.4375 66.109375 22.71875 58.640625 
Q 16.015625 51.171875 16.015625 36.375 
Q 16.015625 21.625 22.71875 14.15625 
Q 29.4375 6.6875 42.828125 6.6875 
Q 48.046875 6.6875 52.140625 7.59375 
Q 56.25 8.5 59.515625 10.40625 
z
" id="DejaVuSans-71"/>
      <path d="M 56.203125 29.59375 
L 56.203125 25.203125 
L 14.890625 25.203125 
Q 15.484375 15.921875 20.484375 11.0625 
Q 25.484375 6.203125 34.421875 6.203125 
Q 39.59375 6.203125 44.453125 7.46875 
Q 49.3125 8.734375 54.109375 11.28125 
L 54.109375 2.78125 
Q 49.265625 0.734375 44.1875 -0.34375 
Q 39.109375 -1.421875 33.890625 -1.421875 
Q 20.796875 -1.421875 13.15625 6.1875 
Q 5.515625 13.8125 5.515625 26.8125 
Q 5.515625 40.234375 12.765625 48.109375 
Q 20.015625 56 32.328125 56 
Q 43.359375 56 49.78125 48.890625 
Q 56.203125 41.796875 56.203125 29.59375 
z
M 47.21875 32.234375 
Q 47.125 39.59375 43.09375 43.984375 
Q 39.0625 48.390625 32.421875 48.390625 
Q 24.90625 48.390625 20.390625 44.140625 
Q 15.875 39.890625 15.1875 32.171875 
z
" id="DejaVuSans-101"/>
      <path d="M 54.890625 33.015625 
L 54.890625 0 
L 45.90625 0 
L 45.90625 32.71875 
Q 45.90625 40.484375 42.875 44.328125 
Q 39.84375 48.1875 33.796875 48.1875 
Q 26.515625 48.1875 22.3125 43.546875 
Q 18.109375 38.921875 18.109375 30.90625 
L 18.109375 0 
L 9.078125 0 
L 9.078125 54.6875 
L 18.109375 54.6875 
L 18.109375 46.1875 
Q 21.34375 51.125 25.703125 53.5625 
Q 30.078125 56 35.796875 56 
Q 45.21875 56 50.046875 50.171875 
Q 54.890625 44.34375 54.890625 33.015625 
z
" id="DejaVuSans-110"/>
      <path d="M 41.109375 46.296875 
Q 39.59375 47.171875 37.8125 47.578125 
Q 36.03125 48 33.890625 48 
Q 26.265625 48 22.1875 43.046875 
Q 18.109375 38.09375 18.109375 28.8125 
L 18.109375 0 
L 9.078125 0 
L 9.078125 54.6875 
L 18.109375 54.6875 
L 18.109375 46.1875 
Q 20.953125 51.171875 25.484375 53.578125 
Q 30.03125 56 36.53125 56 
Q 37.453125 56 38.578125 55.875 
Q 39.703125 55.765625 41.0625 55.515625 
z
" id="DejaVuSans-114"/>
      <path d="M 34.28125 27.484375 
Q 23.390625 27.484375 19.1875 25 
Q 14.984375 22.515625 14.984375 16.5 
Q 14.984375 11.71875 18.140625 8.90625 
Q 21.296875 6.109375 26.703125 6.109375 
Q 34.1875 6.109375 38.703125 11.40625 
Q 43.21875 16.703125 43.21875 25.484375 
L 43.21875 27.484375 
z
M 52.203125 31.203125 
L 52.203125 0 
L 43.21875 0 
L 43.21875 8.296875 
Q 40.140625 3.328125 35.546875 0.953125 
Q 30.953125 -1.421875 24.3125 -1.421875 
Q 15.921875 -1.421875 10.953125 3.296875 
Q 6 8.015625 6 15.921875 
Q 6 25.140625 12.171875 29.828125 
Q 18.359375 34.515625 30.609375 34.515625 
L 43.21875 34.515625 
L 43.21875 35.40625 
Q 43.21875 41.609375 39.140625 45 
Q 35.0625 48.390625 27.6875 48.390625 
Q 23 48.390625 18.546875 47.265625 
Q 14.109375 46.140625 10.015625 43.890625 
L 10.015625 52.203125 
Q 14.9375 54.109375 19.578125 55.046875 
Q 24.21875 56 28.609375 56 
Q 40.484375 56 46.34375 49.84375 
Q 52.203125 43.703125 52.203125 31.203125 
z
" id="DejaVuSans-97"/>
      <path d="M 18.3125 70.21875 
L 18.3125 54.6875 
L 36.8125 54.6875 
L 36.8125 47.703125 
L 18.3125 47.703125 
L 18.3125 18.015625 
Q 18.3125 11.328125 20.140625 9.421875 
Q 21.96875 7.515625 27.59375 7.515625 
L 36.8125 7.515625 
L 36.8125 0 
L 27.59375 0 
Q 17.1875 0 13.234375 3.875 
Q 9.28125 7.765625 9.28125 18.015625 
L 9.28125 47.703125 
L 2.6875 47.703125 
L 2.6875 54.6875 
L 9.28125 54.6875 
L 9.28125 70.21875 
z
" id="DejaVuSans-116"/>
      <path d="M 9.421875 54.6875 
L 18.40625 54.6875 
L 18.40625 0 
L 9.421875 0 
z
M 9.421875 75.984375 
L 18.40625 75.984375 
L 18.40625 64.59375 
L 9.421875 64.59375 
z
" id="DejaVuSans-105"/>
      <path d="M 30.609375 48.390625 
Q 23.390625 48.390625 19.1875 42.75 
Q 14.984375 37.109375 14.984375 27.296875 
Q 14.984375 17.484375 19.15625 11.84375 
Q 23.34375 6.203125 30.609375 6.203125 
Q 37.796875 6.203125 41.984375 11.859375 
Q 46.1875 17.53125 46.1875 27.296875 
Q 46.1875 37.015625 41.984375 42.703125 
Q 37.796875 48.390625 30.609375 48.390625 
z
M 30.609375 56 
Q 42.328125 56 49.015625 48.375 
Q 55.71875 40.765625 55.71875 27.296875 
Q 55.71875 13.875 49.015625 6.21875 
Q 42.328125 -1.421875 30.609375 -1.421875 
Q 18.84375 -1.421875 12.171875 6.21875 
Q 5.515625 13.875 5.515625 27.296875 
Q 5.515625 40.765625 12.171875 48.375 
Q 18.84375 56 30.609375 56 
z
" id="DejaVuSans-111"/>
      <path d="M 44.28125 53.078125 
L 44.28125 44.578125 
Q 40.484375 46.53125 36.375 47.5 
Q 32.28125 48.484375 27.875 48.484375 
Q 21.1875 48.484375 17.84375 46.4375 
Q 14.5 44.390625 14.5 40.28125 
Q 14.5 37.15625 16.890625 35.375 
Q 19.28125 33.59375 26.515625 31.984375 
L 29.59375 31.296875 
Q 39.15625 29.25 43.1875 25.515625 
Q 47.21875 21.78125 47.21875 15.09375 
Q 47.21875 7.46875 41.1875 3.015625 
Q 35.15625 -1.421875 24.609375 -1.421875 
Q 20.21875 -1.421875 15.453125 -0.5625 
Q 10.6875 0.296875 5.421875 2 
L 5.421875 11.28125 
Q 10.40625 8.6875 15.234375 7.390625 
Q 20.0625 6.109375 24.8125 6.109375 
Q 31.15625 6.109375 34.5625 8.28125 
Q 37.984375 10.453125 37.984375 14.40625 
Q 37.984375 18.0625 35.515625 20.015625 
Q 33.0625 21.96875 24.703125 23.78125 
L 21.578125 24.515625 
Q 13.234375 26.265625 9.515625 29.90625 
Q 5.8125 33.546875 5.8125 39.890625 
Q 5.8125 47.609375 11.28125 51.796875 
Q 16.75 56 26.8125 56 
Q 31.78125 56 36.171875 55.265625 
Q 40.578125 54.546875 44.28125 53.078125 
z
" id="DejaVuSans-115"/>
     </defs>
     <g transform="translate(205.662344 335.860562)scale(0.1 -0.1)">
      <use xlink:href="#DejaVuSans-71"/>
      <use x="77.490234" xlink:href="#DejaVuSans-101"/>
      <use x="139.013672" xlink:href="#DejaVuSans-110"/>
      <use x="202.392578" xlink:href="#DejaVuSans-101"/>
      <use x="263.916016" xlink:href="#DejaVuSans-114"/>
      <use x="305.029297" xlink:href="#DejaVuSans-97"/>
      <use x="366.308594" xlink:href="#DejaVuSans-116"/>
      <use x="405.517578" xlink:href="#DejaVuSans-105"/>
      <use x="433.300781" xlink:href="#DejaVuSans-111"/>
      <use x="494.482422" xlink:href="#DejaVuSans-110"/>
      <use x="557.861328" xlink:href="#DejaVuSans-115"/>
     </g>
    </g>
   </g>
   <g id="matplotlib.axis_2">
    <g id="ytick_1">
     <g id="line2d_15">
      <path clip-path="url(#p2ddbe0827c)" d="M 57.6 302.665528 
L 414.72 302.665528 
" style="fill:none;stroke:#b0b0b0;stroke-linecap:square;stroke-width:0.8;"/>
     </g>
     <g id="line2d_16">
      <defs>
       <path d="M 0 0 
L -3.5 0 
" id="m3c3dab9e1e" style="stroke:#000000;stroke-width:0.8;"/>
      </defs>
      <g>
       <use style="stroke:#000000;stroke-width:0.8;" x="57.6" xlink:href="#m3c3dab9e1e" y="302.665528"/>
      </g>
     </g>
     <g id="text_9">
      <!-- −1.5 -->
      <defs>
       <path d="M 10.59375 35.5 
L 73.1875 35.5 
L 73.1875 27.203125 
L 10.59375 27.203125 
z
" id="DejaVuSans-8722"/>
       <path d="M 10.6875 12.40625 
L 21 12.40625 
L 21 0 
L 10.6875 0 
z
" id="DejaVuSans-46"/>
      </defs>
      <g transform="translate(26.317187 306.464747)scale(0.1 -0.1)">
       <use xlink:href="#DejaVuSans-8722"/>
       <use x="83.789062" xlink:href="#DejaVuSans-49"/>
       <use x="147.412109" xlink:href="#DejaVuSans-46"/>
       <use x="179.199219" xlink:href="#DejaVuSans-53"/>
      </g>
     </g>
    </g>
    <g id="ytick_2">
     <g id="line2d_17">
      <path clip-path="url(#p2ddbe0827c)" d="M 57.6 255.350986 
L 414.72 255.350986 
" style="fill:none;stroke:#b0b0b0;stroke-linecap:square;stroke-width:0.8;"/>
     </g>
     <g id="line2d_18">
      <g>
       <use style="stroke:#000000;stroke-width:0.8;" x="57.6" xlink:href="#m3c3dab9e1e" y="255.350986"/>
      </g>
     </g>
     <g id="text_10">
      <!-- −1.0 -->
      <g transform="translate(26.317187 259.150204)scale(0.1 -0.1)">
       <use xlink:href="#DejaVuSans-8722"/>
       <use x="83.789062" xlink:href="#DejaVuSans-49"/>
       <use x="147.412109" xlink:href="#DejaVuSans-46"/>
       <use x="179.199219" xlink:href="#DejaVuSans-48"/>
      </g>
     </g>
    </g>
    <g id="ytick_3">
     <g id="line2d_19">
      <path clip-path="url(#p2ddbe0827c)" d="M 57.6 208.036443 
L 414.72 208.036443 
" style="fill:none;stroke:#b0b0b0;stroke-linecap:square;stroke-width:0.8;"/>
     </g>
     <g id="line2d_20">
      <g>
       <use style="stroke:#000000;stroke-width:0.8;" x="57.6" xlink:href="#m3c3dab9e1e" y="208.036443"/>
      </g>
     </g>
     <g id="text_11">
      <!-- −0.5 -->
      <g transform="translate(26.317187 211.835662)scale(0.1 -0.1)">
       <use xlink:href="#DejaVuSans-8722"/>
       <use x="83.789062" xlink:href="#DejaVuSans-48"/>
       <use x="147.412109" xlink:href="#DejaVuSans-46"/>
       <use x="179.199219" xlink:href="#DejaVuSans-53"/>
      </g>
     </g>
    </g>
    <g id="ytick_4">
     <g id="line2d_21">
      <path clip-path="url(#p2ddbe0827c)" d="M 57.6 160.7219 
L 414.72 160.7219 
" style="fill:none;stroke:#b0b0b0;stroke-linecap:square;stroke-width:0.8;"/>
     </g>
     <g id="line2d_22">
      <g>
       <use style="stroke:#000000;stroke-width:0.8;" x="57.6" xlink:href="#m3c3dab9e1e" y="160.7219"/>
      </g>
     </g>
     <g id="text_12">
      <!-- 0.0 -->
      <g transform="translate(34.696875 164.521119)scale(0.1 -0.1)">
       <use xlink:href="#DejaVuSans-48"/>
       <use x="63.623047" xlink:href="#DejaVuSans-46"/>
       <use x="95.410156" xlink:href="#DejaVuSans-48"/>
      </g>
     </g>
    </g>
    <g id="ytick_5">
     <g id="line2d_23">
      <path clip-path="url(#p2ddbe0827c)" d="M 57.6 113.407357 
L 414.72 113.407357 
" style="fill:none;stroke:#b0b0b0;stroke-linecap:square;stroke-width:0.8;"/>
     </g>
     <g id="line2d_24">
      <g>
       <use style="stroke:#000000;stroke-width:0.8;" x="57.6" xlink:href="#m3c3dab9e1e" y="113.407357"/>
      </g>
     </g>
     <g id="text_13">
      <!-- 0.5 -->
      <g transform="translate(34.696875 117.206576)scale(0.1 -0.1)">
       <use xlink:href="#DejaVuSans-48"/>
       <use x="63.623047" xlink:href="#DejaVuSans-46"/>
       <use x="95.410156" xlink:href="#DejaVuSans-53"/>
      </g>
     </g>
    </g>
    <g id="ytick_6">
     <g id="line2d_25">
      <path clip-path="url(#p2ddbe0827c)" d="M 57.6 66.092815 
L 414.72 66.092815 
" style="fill:none;stroke:#b0b0b0;stroke-linecap:square;stroke-width:0.8;"/>
     </g>
     <g id="line2d_26">
      <g>
       <use style="stroke:#000000;stroke-width:0.8;" x="57.6" xlink:href="#m3c3dab9e1e" y="66.092815"/>
      </g>
     </g>
     <g id="text_14">
      <!-- 1.0 -->
      <g transform="translate(34.696875 69.892033)scale(0.1 -0.1)">
       <use xlink:href="#DejaVuSans-49"/>
       <use x="63.623047" xlink:href="#DejaVuSans-46"/>
       <use x="95.410156" xlink:href="#DejaVuSans-48"/>
      </g>
     </g>
    </g>
    <g id="text_15">
     <!-- Fitness -->
     <defs>
      <path d="M 9.8125 72.90625 
L 51.703125 72.90625 
L 51.703125 64.59375 
L 19.671875 64.59375 
L 19.671875 43.109375 
L 48.578125 43.109375 
L 48.578125 34.8125 
L 19.671875 34.8125 
L 19.671875 0 
L 9.8125 0 
z
" id="DejaVuSans-70"/>
     </defs>
     <g transform="translate(20.2375 192.202219)rotate(-90)scale(0.1 -0.1)">
      <use xlink:href="#DejaVuSans-70"/>
      <use x="57.410156" xlink:href="#DejaVuSans-105"/>
      <use x="85.193359" xlink:href="#DejaVuSans-116"/>
      <use x="124.402344" xlink:href="#DejaVuSans-110"/>
      <use x="187.78125" xlink:href="#DejaVuSans-101"/>
      <use x="249.304688" xlink:href="#DejaVuSans-115"/>
      <use x="301.404297" xlink:href="#DejaVuSans-115"/>
     </g>
    </g>
    <g id="text_16">
     <!-- 1e51 -->
     <g transform="translate(57.6 38.472)scale(0.1 -0.1)">
      <use xlink:href="#DejaVuSans-49"/>
      <use x="63.623047" xlink:href="#DejaVuSans-101"/>
      <use x="125.146484" xlink:href="#DejaVuSans-53"/>
      <use x="188.769531" xlink:href="#DejaVuSans-49"/>
     </g>
    </g>
   </g>
   <g id="line2d_27">
    <path clip-path="url(#p2ddbe0827c)" d="M 73.832727 160.7219 
L 87.063163 160.7219 
L 88.080889 161.999777 
L 89.098615 160.7219 
L 94.187244 160.7219 
L 95.20497 162.393666 
L 96.222696 160.7219 
L 97.240422 164.461733 
L 98.258148 160.7219 
L 102.329051 160.7219 
L 103.346777 161.40299 
L 104.364503 160.7219 
L 106.399954 160.7219 
L 107.41768 169.109164 
L 108.435406 160.7219 
L 109.453132 167.134727 
L 110.470858 160.7219 
L 111.488584 162.133738 
L 112.506309 160.7219 
L 113.524035 160.7219 
L 114.541761 162.572976 
L 115.559487 160.7219 
L 126.754471 160.7219 
L 127.772197 161.619701 
L 128.789923 163.910638 
L 129.807649 160.7219 
L 130.825375 165.434209 
L 131.843101 160.7219 
L 132.860826 160.7219 
L 133.878552 162.044363 
L 134.896278 161.000528 
L 135.914004 168.949463 
L 136.93173 160.7219 
L 137.949456 160.7219 
L 138.967182 160.845735 
L 139.984907 160.7219 
L 141.002633 164.401202 
L 142.020359 160.7219 
L 146.091262 160.7219 
L 147.108988 160.93861 
L 148.126714 163.610624 
L 149.14444 160.7219 
L 151.179892 160.7219 
L 152.197618 161.961882 
L 153.215343 160.7219 
L 154.233069 160.7219 
L 155.250795 163.347831 
L 156.268521 160.7219 
L 158.303973 161.28287 
L 159.321698 160.802724 
L 161.35715 160.7219 
L 162.374876 160.7219 
L 163.392602 160.941519 
L 164.410328 164.866989 
L 165.428054 162.084407 
L 166.445779 160.908936 
L 167.463505 160.7219 
L 169.498957 160.7219 
L 170.516683 161.616974 
L 171.534409 161.282877 
L 172.552135 162.841121 
L 173.56986 160.7219 
L 174.587586 160.7219 
L 175.605312 166.519456 
L 176.623038 160.7219 
L 177.640764 165.189506 
L 178.65849 160.846563 
L 179.676215 160.7219 
L 180.693941 163.809713 
L 181.711667 160.7219 
L 183.747119 160.7219 
L 184.764845 162.529471 
L 185.782571 160.7219 
L 186.800296 160.7219 
L 187.818022 161.22054 
L 188.835748 161.376594 
L 189.853474 160.7219 
L 190.8712 160.722025 
L 191.888926 161.685026 
L 192.906651 162.203009 
L 193.924377 160.7219 
L 194.942103 161.158211 
L 195.959829 160.721921 
L 196.977555 160.815395 
L 199.013007 160.7219 
L 200.030732 160.7219 
L 202.066184 161.166472 
L 203.08391 160.7219 
L 204.101636 160.7219 
L 205.119362 160.877725 
L 206.137087 160.7219 
L 208.172539 161.080465 
L 209.190265 160.7219 
L 210.207991 161.596488 
L 211.225717 160.815395 
L 212.243443 162.841121 
L 213.261168 162.280274 
L 214.278894 160.7219 
L 216.314346 160.7219 
L 217.332072 160.84656 
L 218.349798 160.7219 
L 221.402975 160.7219 
L 227.50933 160.7219 
L 228.527056 161.036621 
L 229.544782 160.7219 
L 230.562508 161.781511 
L 231.580234 160.7219 
L 232.59796 163.532262 
L 234.633411 166.612087 
L 235.651137 160.7219 
L 249.899299 160.7219 
L 250.917025 165.107037 
L 251.934751 160.7219 
L 258.041106 160.7219 
L 259.058832 161.158211 
L 260.076557 160.7219 
L 261.094283 161.610616 
L 262.112009 160.7219 
L 263.129735 160.7219 
L 264.147461 162.562935 
L 265.165187 160.7219 
L 266.182913 160.7219 
L 267.200638 161.71918 
L 268.218364 160.7219 
L 269.23609 160.7219 
L 270.253816 160.84656 
L 271.271542 160.7219 
L 272.289268 167.640533 
L 273.306993 165.708302 
L 274.324719 160.758328 
L 275.342445 162.680488 
L 276.360171 160.940055 
L 277.377897 162.747626 
L 278.395623 168.508591 
L 279.413349 164.773352 
L 280.431074 165.303157 
L 281.4488 164.056646 
L 282.466526 167.023255 
L 283.484252 160.7219 
L 284.501978 168.263833 
L 285.519704 161.451525 
L 286.537429 160.7219 
L 290.608333 160.7219 
L 291.626059 165.993921 
L 292.643785 160.7219 
L 293.66151 164.556801 
L 294.679236 160.7219 
L 297.732414 160.7219 
L 298.75014 165.708302 
L 299.767865 167.386516 
L 300.785591 161.282801 
L 301.803317 160.7219 
L 302.821043 160.7219 
L 303.838769 163.994227 
L 304.856495 160.7219 
L 305.874221 161.456016 
L 306.891946 160.7219 
L 312.998302 160.7219 
L 314.016027 174.528 
L 315.033753 160.7219 
L 316.051479 164.991507 
L 317.069205 160.7219 
L 318.086931 167.142691 
L 319.104657 160.7219 
L 320.122382 161.064715 
L 321.140108 160.7219 
L 322.157834 165.065985 
L 323.17556 160.7219 
L 326.228738 160.7219 
L 329.281915 160.7219 
L 330.299641 161.064729 
L 331.317367 160.7219 
L 332.335093 160.7219 
L 333.352818 165.21562 
L 334.370544 160.7219 
L 335.38827 161.750345 
L 336.405996 161.283192 
L 337.423722 163.104465 
L 338.441448 164.528815 
L 339.459174 160.7219 
L 341.494625 160.7219 
L 342.512351 161.750345 
L 343.530077 160.7219 
L 344.547803 165.086005 
L 345.565529 160.7219 
L 350.654158 160.7219 
L 351.671884 161.733578 
L 352.68961 161.781511 
L 353.707335 165.521668 
L 354.725061 161.314035 
L 355.742787 168.131987 
L 356.760513 166.890752 
L 357.778239 163.574262 
L 358.795965 172.221015 
L 359.813691 163.403707 
L 360.831416 160.7219 
L 361.849142 165.988905 
L 362.866868 160.7219 
L 363.884594 160.7219 
L 364.90232 164.991507 
L 365.920046 160.940145 
L 366.937771 160.7219 
L 367.955497 164.492866 
L 368.973223 160.7219 
L 369.990949 160.7219 
L 371.008675 163.49161 
L 372.026401 168.14133 
L 373.044127 161.292611 
L 374.061852 165.895545 
L 375.079578 160.7219 
L 380.168207 160.7219 
L 381.185933 165.683758 
L 382.203659 164.853144 
L 383.221385 160.7219 
L 386.274563 160.7219 
L 387.292288 172.529233 
L 388.310014 160.7219 
L 389.32774 164.492866 
L 390.345466 160.7219 
L 393.398643 160.7219 
L 394.416369 166.463548 
L 395.434095 160.7219 
L 396.451821 164.245577 
L 397.469547 160.7219 
L 398.487273 160.7219 
L 398.487273 160.7219 
" style="fill:none;stroke:#0000ff;stroke-linecap:square;stroke-width:1.5;"/>
   </g>
   <g id="line2d_28">
    <path clip-path="url(#p2ddbe0827c)" d="M 73.832727 160.7219 
L 87.063163 160.7219 
L 88.080889 175.813792 
L 89.098615 160.7219 
L 94.187244 160.7219 
L 95.20497 182.868528 
L 96.222696 160.7219 
L 97.240422 208.977932 
L 98.258148 160.7219 
L 102.329051 160.7219 
L 103.346777 169.7446 
L 104.364503 160.7219 
L 106.399954 160.7219 
L 107.41768 259.724503 
L 108.435406 160.7219 
L 109.453132 227.861281 
L 110.470858 160.7219 
L 111.488584 179.309485 
L 112.506309 160.7219 
L 113.524035 160.7219 
L 114.541761 185.09229 
L 115.559487 160.7219 
L 126.754471 160.7219 
L 127.772197 172.615468 
L 128.789923 202.964542 
L 129.807649 160.7219 
L 130.825375 206.870773 
L 131.843101 160.7219 
L 132.860826 160.7219 
L 133.878552 178.295058 
L 134.896278 164.413007 
L 135.914004 269.379667 
L 136.93173 160.7219 
L 137.949456 160.7219 
L 138.967182 162.362391 
L 139.984907 160.7219 
L 141.002633 209.161837 
L 142.020359 160.7219 
L 146.091262 160.7219 
L 147.108988 163.592759 
L 148.126714 198.990126 
L 149.14444 160.7219 
L 151.179892 160.7219 
L 152.197618 177.1485 
L 153.215343 160.7219 
L 154.233069 160.7219 
L 155.250795 195.020715 
L 156.268521 160.7219 
L 157.286247 163.825916 
L 158.303973 168.130384 
L 159.321698 161.789306 
L 160.339424 160.7219 
L 162.374876 160.7219 
L 163.392602 163.613303 
L 164.410328 215.46425 
L 165.428054 178.771638 
L 166.445779 163.191995 
L 167.463505 160.7219 
L 169.498957 160.7219 
L 170.516683 172.542742 
L 171.534409 168.130407 
L 172.552135 188.709507 
L 173.56986 160.7219 
L 174.587586 160.7219 
L 175.605312 222.430719 
L 176.623038 160.7219 
L 177.640764 219.72308 
L 178.65849 162.368273 
L 179.676215 160.7219 
L 180.693941 199.613524 
L 181.711667 160.7219 
L 183.747119 160.7219 
L 184.764845 182.427208 
L 185.782571 160.7219 
L 186.800296 160.7219 
L 187.818022 167.307219 
L 188.835748 167.510456 
L 189.853474 160.7219 
L 190.8712 160.723556 
L 191.888926 170.326233 
L 192.906651 173.805928 
L 193.924377 160.7219 
L 194.942103 166.48406 
L 195.959829 160.722172 
L 196.977555 161.956647 
L 197.995281 160.7219 
L 200.030732 160.7219 
L 202.066184 166.593154 
L 203.08391 160.7219 
L 204.101636 160.7219 
L 205.119362 162.443748 
L 206.137087 160.7219 
L 207.154813 163.207174 
L 208.172539 164.142994 
L 209.190265 160.7219 
L 210.207991 170.275577 
L 211.225717 161.956647 
L 212.243443 188.709507 
L 213.261168 181.302648 
L 214.278894 160.7219 
L 216.314346 160.7219 
L 217.332072 162.36823 
L 218.349798 160.7219 
L 219.367524 161.13471 
L 220.385249 160.7219 
L 227.50933 160.7219 
L 228.527056 164.878281 
L 229.544782 160.7219 
L 230.562508 174.715705 
L 231.580234 160.7219 
L 232.59796 193.859432 
L 233.615685 218.343443 
L 234.633411 219.261857 
L 235.651137 160.7219 
L 246.846121 160.7219 
L 247.863847 162.01708 
L 248.881573 160.7219 
L 249.899299 160.7219 
L 250.917025 218.63446 
L 251.934751 160.7219 
L 258.041106 160.7219 
L 259.058832 166.484069 
L 260.076557 160.7219 
L 261.094283 172.458775 
L 262.112009 160.7219 
L 263.129735 160.7219 
L 264.147461 185.035624 
L 265.165187 160.7219 
L 266.182913 160.7219 
L 267.200638 173.892539 
L 268.218364 160.7219 
L 269.23609 160.7219 
L 270.253816 162.36823 
L 271.271542 160.7219 
L 272.289268 227.178895 
L 273.306993 226.575092 
L 274.324719 161.202988 
L 275.342445 186.588103 
L 276.360171 163.602977 
L 277.377897 187.474759 
L 278.395623 242.633326 
L 279.413349 214.227623 
L 280.431074 221.224529 
L 281.4488 204.762403 
L 282.466526 225.625325 
L 283.484252 160.7219 
L 284.501978 260.324854 
L 285.519704 170.357733 
L 286.537429 160.7219 
L 290.608333 160.7219 
L 291.626059 230.347142 
L 292.643785 160.7219 
L 293.66151 202.721112 
L 294.679236 160.7219 
L 297.732414 160.7219 
L 298.75014 226.575092 
L 299.767865 225.280443 
L 300.785591 168.129467 
L 301.803317 160.7219 
L 302.821043 160.7219 
L 303.838769 203.938071 
L 304.856495 160.7219 
L 305.874221 170.417048 
L 306.891946 160.7219 
L 312.998302 160.7219 
L 314.016027 295.488 
L 315.033753 160.7219 
L 316.051479 217.108696 
L 317.069205 160.7219 
L 318.086931 245.518429 
L 319.104657 160.7219 
L 320.122382 165.249307 
L 321.140108 160.7219 
L 322.157834 213.027314 
L 323.17556 160.7219 
L 324.193286 161.133538 
L 325.211012 160.7219 
L 329.281915 160.7219 
L 330.299641 165.249486 
L 331.317367 160.7219 
L 332.335093 160.7219 
L 333.352818 220.068462 
L 334.370544 160.7219 
L 335.38827 174.304121 
L 336.405996 168.13463 
L 337.423722 191.80692 
L 338.441448 210.99813 
L 339.459174 160.7219 
L 341.494625 160.7219 
L 342.512351 174.304121 
L 343.530077 160.7219 
L 344.547803 204.982195 
L 345.565529 160.7219 
L 346.583254 160.7219 
L 347.60098 161.274944 
L 348.618706 160.7219 
L 350.654158 160.7219 
L 351.671884 174.082681 
L 352.68961 174.715707 
L 353.707335 224.110298 
L 354.725061 168.541967 
L 355.742787 232.036008 
L 356.760513 242.191183 
L 357.778239 198.391782 
L 358.795965 272.022558 
L 359.813691 192.231726 
L 360.831416 160.7219 
L 361.849142 230.280898 
L 362.866868 160.7219 
L 363.884594 160.7219 
L 364.90232 217.108696 
L 365.920046 163.604167 
L 366.937771 160.7219 
L 367.955497 210.523377 
L 368.973223 160.7219 
L 369.990949 160.7219 
L 371.008675 197.300229 
L 372.026401 244.911296 
L 373.044127 168.259025 
L 374.061852 229.047933 
L 375.079578 160.7219 
L 380.168207 160.7219 
L 381.185933 226.250956 
L 382.203659 215.281401 
L 383.221385 160.7219 
L 386.274563 160.7219 
L 387.292288 274.344708 
L 388.310014 160.7219 
L 389.32774 210.523377 
L 390.345466 160.7219 
L 393.398643 160.7219 
L 394.416369 222.978368 
L 395.434095 160.7219 
L 396.451821 194.655966 
L 397.469547 160.7219 
L 398.487273 160.7219 
L 398.487273 160.7219 
" style="fill:none;stroke:#008000;stroke-dasharray:9.6,2.4,1.5,2.4;stroke-dashoffset:0;stroke-width:1.5;"/>
   </g>
   <g id="line2d_29">
    <path clip-path="url(#p2ddbe0827c)" d="M 73.832727 160.7219 
L 87.063163 160.7219 
L 88.080889 148.185762 
L 89.098615 160.7219 
L 94.187244 160.7219 
L 95.20497 141.918803 
L 96.222696 160.7219 
L 97.240422 119.945535 
L 98.258148 160.7219 
L 102.329051 160.7219 
L 103.346777 153.061379 
L 104.364503 160.7219 
L 106.399954 160.7219 
L 107.41768 78.493825 
L 108.435406 160.7219 
L 109.453132 106.408173 
L 110.470858 160.7219 
L 111.488584 144.95799 
L 112.506309 160.7219 
L 113.524035 160.7219 
L 114.541761 140.053663 
L 115.559487 160.7219 
L 126.754471 160.7219 
L 127.772197 150.623933 
L 128.789923 124.856734 
L 129.807649 160.7219 
L 130.825375 123.997645 
L 131.843101 160.7219 
L 132.860826 160.7219 
L 133.878552 145.793668 
L 134.896278 157.588049 
L 135.914004 68.519259 
L 136.93173 160.7219 
L 137.949456 160.7219 
L 138.967182 159.329078 
L 139.984907 160.7219 
L 141.002633 119.640567 
L 142.020359 160.7219 
L 146.091262 160.7219 
L 147.108988 158.284462 
L 148.126714 128.231122 
L 149.14444 160.7219 
L 151.179892 160.7219 
L 152.197618 146.775265 
L 153.215343 160.7219 
L 154.233069 160.7219 
L 155.250795 131.674947 
L 156.268521 160.7219 
L 157.286247 158.086505 
L 158.303973 154.435356 
L 159.321698 159.816142 
L 160.339424 160.7219 
L 162.374876 160.7219 
L 163.392602 158.269736 
L 164.410328 114.269728 
L 165.428054 145.397176 
L 166.445779 158.625877 
L 167.463505 160.7219 
L 169.498957 160.7219 
L 170.516683 150.691206 
L 171.534409 154.435347 
L 172.552135 136.972735 
L 173.56986 160.7219 
L 174.587586 160.7219 
L 175.605312 110.608194 
L 176.623038 160.7219 
L 177.640764 110.655932 
L 178.65849 159.324853 
L 179.676215 160.7219 
L 180.693941 128.005902 
L 181.711667 160.7219 
L 183.747119 160.7219 
L 184.764845 142.631734 
L 185.782571 160.7219 
L 186.800296 160.7219 
L 187.818022 155.133861 
L 188.835748 155.242731 
L 189.853474 160.7219 
L 190.8712 160.720495 
L 191.888926 153.043819 
L 192.906651 150.60009 
L 193.924377 160.7219 
L 194.942103 155.832361 
L 195.959829 160.721669 
L 196.977555 159.674143 
L 197.995281 160.7219 
L 200.030732 160.7219 
L 202.066184 155.73979 
L 203.08391 160.7219 
L 204.101636 160.7219 
L 205.119362 159.311702 
L 206.137087 160.7219 
L 207.154813 158.612996 
L 208.172539 158.017935 
L 209.190265 160.7219 
L 210.207991 152.9174 
L 211.225717 159.674143 
L 212.243443 136.972735 
L 213.261168 143.257899 
L 214.278894 160.7219 
L 216.314346 160.7219 
L 217.332072 159.32489 
L 218.349798 160.7219 
L 219.367524 160.371606 
L 220.385249 160.7219 
L 227.50933 160.7219 
L 228.527056 157.194961 
L 229.544782 160.7219 
L 230.562508 148.847316 
L 231.580234 160.7219 
L 232.59796 133.205092 
L 233.615685 111.82656 
L 234.633411 113.962317 
L 235.651137 160.7219 
L 246.846121 160.7219 
L 247.863847 159.622893 
L 248.881573 160.7219 
L 249.899299 160.7219 
L 250.917025 111.579615 
L 251.934751 160.7219 
L 258.041106 160.7219 
L 259.058832 155.832354 
L 260.076557 160.7219 
L 261.094283 150.762457 
L 262.112009 160.7219 
L 263.129735 160.7219 
L 264.147461 140.090245 
L 265.165187 160.7219 
L 266.182913 160.7219 
L 267.200638 149.545822 
L 268.218364 160.7219 
L 269.23609 160.7219 
L 270.253816 159.32489 
L 271.271542 160.7219 
L 272.289268 108.102172 
L 273.306993 104.841511 
L 274.324719 160.313668 
L 275.342445 138.772873 
L 276.360171 158.277133 
L 277.377897 138.020492 
L 278.395623 94.383856 
L 279.413349 115.319081 
L 280.431074 109.381786 
L 281.4488 123.350889 
L 282.466526 108.421185 
L 283.484252 160.7219 
L 284.501978 76.202812 
L 285.519704 152.545317 
L 286.537429 160.7219 
L 290.608333 160.7219 
L 291.626059 101.640701 
L 292.643785 160.7219 
L 293.66151 126.39249 
L 294.679236 160.7219 
L 297.732414 160.7219 
L 298.75014 104.841511 
L 299.767865 109.492589 
L 300.785591 154.436134 
L 301.803317 160.7219 
L 302.821043 160.7219 
L 303.838769 124.050383 
L 304.856495 160.7219 
L 305.874221 152.494985 
L 306.891946 160.7219 
L 312.998302 160.7219 
L 314.016027 53.568 
L 315.033753 160.7219 
L 316.051479 112.874317 
L 317.069205 160.7219 
L 318.086931 88.766953 
L 319.104657 160.7219 
L 320.122382 156.880123 
L 321.140108 160.7219 
L 322.157834 117.104655 
L 323.17556 160.7219 
L 324.193286 160.372601 
L 325.211012 160.7219 
L 329.281915 160.7219 
L 330.299641 156.879972 
L 331.317367 160.7219 
L 332.335093 160.7219 
L 333.352818 110.362778 
L 334.370544 160.7219 
L 335.38827 149.19657 
L 336.405996 154.431753 
L 337.423722 134.402009 
L 338.441448 118.059499 
L 339.459174 160.7219 
L 341.494625 160.7219 
L 342.512351 149.19657 
L 343.530077 160.7219 
L 344.547803 125.189815 
L 345.565529 160.7219 
L 346.583254 160.7219 
L 347.60098 160.252609 
L 348.618706 160.7219 
L 350.654158 160.7219 
L 351.671884 149.384475 
L 352.68961 148.847314 
L 353.707335 106.933038 
L 354.725061 154.086104 
L 355.742787 104.227966 
L 356.760513 91.590321 
L 357.778239 128.756742 
L 358.795965 72.419473 
L 359.813691 134.575687 
L 360.831416 160.7219 
L 361.849142 101.696913 
L 362.866868 160.7219 
L 363.884594 160.7219 
L 364.90232 112.874317 
L 365.920046 158.276124 
L 366.937771 160.7219 
L 367.955497 118.462356 
L 368.973223 160.7219 
L 369.990949 160.7219 
L 371.008675 129.682991 
L 372.026401 91.371365 
L 373.044127 154.326197 
L 374.061852 102.743158 
L 375.079578 160.7219 
L 380.168207 160.7219 
L 381.185933 105.116561 
L 382.203659 114.424887 
L 383.221385 160.7219 
L 386.274563 160.7219 
L 387.292288 70.713758 
L 388.310014 160.7219 
L 389.32774 118.462356 
L 390.345466 160.7219 
L 393.398643 160.7219 
L 394.416369 109.948728 
L 395.434095 160.7219 
L 396.451821 133.835188 
L 397.469547 160.7219 
L 398.487273 160.7219 
L 398.487273 160.7219 
" style="fill:none;stroke:#008000;stroke-dasharray:9.6,2.4,1.5,2.4;stroke-dashoffset:0;stroke-width:1.5;"/>
   </g>
   <g id="line2d_30">
    <path clip-path="url(#p2ddbe0827c)" d="M 73.832727 160.7219 
L 398.487273 160.7219 
L 398.487273 160.7219 
" style="fill:none;stroke:#ff0000;stroke-linecap:square;stroke-width:1.5;"/>
   </g>
   <g id="patch_3">
    <path d="M 57.6 307.584 
L 57.6 41.472 
" style="fill:none;stroke:#000000;stroke-linecap:square;stroke-linejoin:miter;stroke-width:0.8;"/>
   </g>
   <g id="patch_4">
    <path d="M 414.72 307.584 
L 414.72 41.472 
" style="fill:none;stroke:#000000;stroke-linecap:square;stroke-linejoin:miter;stroke-width:0.8;"/>
   </g>
   <g id="patch_5">
    <path d="M 57.6 307.584 
L 414.72 307.584 
" style="fill:none;stroke:#000000;stroke-linecap:square;stroke-linejoin:miter;stroke-width:0.8;"/>
   </g>
   <g id="patch_6">
    <path d="M 57.6 41.472 
L 414.72 41.472 
" style="fill:none;stroke:#000000;stroke-linecap:square;stroke-linejoin:miter;stroke-width:0.8;"/>
   </g>
   <g id="text_17">
    <!-- Population's average and best fitness -->
    <defs>
     <path d="M 19.671875 64.796875 
L 19.671875 37.40625 
L 32.078125 37.40625 
Q 38.96875 37.40625 42.71875 40.96875 
Q 46.484375 44.53125 46.484375 51.125 
Q 46.484375 57.671875 42.71875 61.234375 
Q 38.96875 64.796875 32.078125 64.796875 
z
M 9.8125 72.90625 
L 32.078125 72.90625 
Q 44.34375 72.90625 50.609375 67.359375 
Q 56.890625 61.8125 56.890625 51.125 
Q 56.890625 40.328125 50.609375 34.8125 
Q 44.34375 29.296875 32.078125 29.296875 
L 19.671875 29.296875 
L 19.671875 0 
L 9.8125 0 
z
" id="DejaVuSans-80"/>
     <path d="M 18.109375 8.203125 
L 18.109375 -20.796875 
L 9.078125 -20.796875 
L 9.078125 54.6875 
L 18.109375 54.6875 
L 18.109375 46.390625 
Q 20.953125 51.265625 25.265625 53.625 
Q 29.59375 56 35.59375 56 
Q 45.5625 56 51.78125 48.09375 
Q 58.015625 40.1875 58.015625 27.296875 
Q 58.015625 14.40625 51.78125 6.484375 
Q 45.5625 -1.421875 35.59375 -1.421875 
Q 29.59375 -1.421875 25.265625 0.953125 
Q 20.953125 3.328125 18.109375 8.203125 
z
M 48.6875 27.296875 
Q 48.6875 37.203125 44.609375 42.84375 
Q 40.53125 48.484375 33.40625 48.484375 
Q 26.265625 48.484375 22.1875 42.84375 
Q 18.109375 37.203125 18.109375 27.296875 
Q 18.109375 17.390625 22.1875 11.75 
Q 26.265625 6.109375 33.40625 6.109375 
Q 40.53125 6.109375 44.609375 11.75 
Q 48.6875 17.390625 48.6875 27.296875 
z
" id="DejaVuSans-112"/>
     <path d="M 8.5 21.578125 
L 8.5 54.6875 
L 17.484375 54.6875 
L 17.484375 21.921875 
Q 17.484375 14.15625 20.5 10.265625 
Q 23.53125 6.390625 29.59375 6.390625 
Q 36.859375 6.390625 41.078125 11.03125 
Q 45.3125 15.671875 45.3125 23.6875 
L 45.3125 54.6875 
L 54.296875 54.6875 
L 54.296875 0 
L 45.3125 0 
L 45.3125 8.40625 
Q 42.046875 3.421875 37.71875 1 
Q 33.40625 -1.421875 27.6875 -1.421875 
Q 18.265625 -1.421875 13.375 4.4375 
Q 8.5 10.296875 8.5 21.578125 
z
M 31.109375 56 
z
" id="DejaVuSans-117"/>
     <path d="M 9.421875 75.984375 
L 18.40625 75.984375 
L 18.40625 0 
L 9.421875 0 
z
" id="DejaVuSans-108"/>
     <path d="M 17.921875 72.90625 
L 17.921875 45.796875 
L 9.625 45.796875 
L 9.625 72.90625 
z
" id="DejaVuSans-39"/>
     <path id="DejaVuSans-32"/>
     <path d="M 2.984375 54.6875 
L 12.5 54.6875 
L 29.59375 8.796875 
L 46.6875 54.6875 
L 56.203125 54.6875 
L 35.6875 0 
L 23.484375 0 
z
" id="DejaVuSans-118"/>
     <path d="M 45.40625 27.984375 
Q 45.40625 37.75 41.375 43.109375 
Q 37.359375 48.484375 30.078125 48.484375 
Q 22.859375 48.484375 18.828125 43.109375 
Q 14.796875 37.75 14.796875 27.984375 
Q 14.796875 18.265625 18.828125 12.890625 
Q 22.859375 7.515625 30.078125 7.515625 
Q 37.359375 7.515625 41.375 12.890625 
Q 45.40625 18.265625 45.40625 27.984375 
z
M 54.390625 6.78125 
Q 54.390625 -7.171875 48.1875 -13.984375 
Q 42 -20.796875 29.203125 -20.796875 
Q 24.46875 -20.796875 20.265625 -20.09375 
Q 16.0625 -19.390625 12.109375 -17.921875 
L 12.109375 -9.1875 
Q 16.0625 -11.328125 19.921875 -12.34375 
Q 23.78125 -13.375 27.78125 -13.375 
Q 36.625 -13.375 41.015625 -8.765625 
Q 45.40625 -4.15625 45.40625 5.171875 
L 45.40625 9.625 
Q 42.625 4.78125 38.28125 2.390625 
Q 33.9375 0 27.875 0 
Q 17.828125 0 11.671875 7.65625 
Q 5.515625 15.328125 5.515625 27.984375 
Q 5.515625 40.671875 11.671875 48.328125 
Q 17.828125 56 27.875 56 
Q 33.9375 56 38.28125 53.609375 
Q 42.625 51.21875 45.40625 46.390625 
L 45.40625 54.6875 
L 54.390625 54.6875 
z
" id="DejaVuSans-103"/>
     <path d="M 45.40625 46.390625 
L 45.40625 75.984375 
L 54.390625 75.984375 
L 54.390625 0 
L 45.40625 0 
L 45.40625 8.203125 
Q 42.578125 3.328125 38.25 0.953125 
Q 33.9375 -1.421875 27.875 -1.421875 
Q 17.96875 -1.421875 11.734375 6.484375 
Q 5.515625 14.40625 5.515625 27.296875 
Q 5.515625 40.1875 11.734375 48.09375 
Q 17.96875 56 27.875 56 
Q 33.9375 56 38.25 53.625 
Q 42.578125 51.265625 45.40625 46.390625 
z
M 14.796875 27.296875 
Q 14.796875 17.390625 18.875 11.75 
Q 22.953125 6.109375 30.078125 6.109375 
Q 37.203125 6.109375 41.296875 11.75 
Q 45.40625 17.390625 45.40625 27.296875 
Q 45.40625 37.203125 41.296875 42.84375 
Q 37.203125 48.484375 30.078125 48.484375 
Q 22.953125 48.484375 18.875 42.84375 
Q 14.796875 37.203125 14.796875 27.296875 
z
" id="DejaVuSans-100"/>
     <path d="M 48.6875 27.296875 
Q 48.6875 37.203125 44.609375 42.84375 
Q 40.53125 48.484375 33.40625 48.484375 
Q 26.265625 48.484375 22.1875 42.84375 
Q 18.109375 37.203125 18.109375 27.296875 
Q 18.109375 17.390625 22.1875 11.75 
Q 26.265625 6.109375 33.40625 6.109375 
Q 40.53125 6.109375 44.609375 11.75 
Q 48.6875 17.390625 48.6875 27.296875 
z
M 18.109375 46.390625 
Q 20.953125 51.265625 25.265625 53.625 
Q 29.59375 56 35.59375 56 
Q 45.5625 56 51.78125 48.09375 
Q 58.015625 40.1875 58.015625 27.296875 
Q 58.015625 14.40625 51.78125 6.484375 
Q 45.5625 -1.421875 35.59375 -1.421875 
Q 29.59375 -1.421875 25.265625 0.953125 
Q 20.953125 3.328125 18.109375 8.203125 
L 18.109375 0 
L 9.078125 0 
L 9.078125 75.984375 
L 18.109375 75.984375 
z
" id="DejaVuSans-98"/>
     <path d="M 37.109375 75.984375 
L 37.109375 68.5 
L 28.515625 68.5 
Q 23.6875 68.5 21.796875 66.546875 
Q 19.921875 64.59375 19.921875 59.515625 
L 19.921875 54.6875 
L 34.71875 54.6875 
L 34.71875 47.703125 
L 19.921875 47.703125 
L 19.921875 0 
L 10.890625 0 
L 10.890625 47.703125 
L 2.296875 47.703125 
L 2.296875 54.6875 
L 10.890625 54.6875 
L 10.890625 58.5 
Q 10.890625 67.625 15.140625 71.796875 
Q 19.390625 75.984375 28.609375 75.984375 
z
" id="DejaVuSans-102"/>
    </defs>
    <g transform="translate(123.315 35.472)scale(0.12 -0.12)">
     <use xlink:href="#DejaVuSans-80"/>
     <use x="60.255859" xlink:href="#DejaVuSans-111"/>
     <use x="121.4375" xlink:href="#DejaVuSans-112"/>
     <use x="184.914062" xlink:href="#DejaVuSans-117"/>
     <use x="248.292969" xlink:href="#DejaVuSans-108"/>
     <use x="276.076172" xlink:href="#DejaVuSans-97"/>
     <use x="337.355469" xlink:href="#DejaVuSans-116"/>
     <use x="376.564453" xlink:href="#DejaVuSans-105"/>
     <use x="404.347656" xlink:href="#DejaVuSans-111"/>
     <use x="465.529297" xlink:href="#DejaVuSans-110"/>
     <use x="528.908203" xlink:href="#DejaVuSans-39"/>
     <use x="556.398438" xlink:href="#DejaVuSans-115"/>
     <use x="608.498047" xlink:href="#DejaVuSans-32"/>
     <use x="640.285156" xlink:href="#DejaVuSans-97"/>
     <use x="701.564453" xlink:href="#DejaVuSans-118"/>
     <use x="760.744141" xlink:href="#DejaVuSans-101"/>
     <use x="822.267578" xlink:href="#DejaVuSans-114"/>
     <use x="863.380859" xlink:href="#DejaVuSans-97"/>
     <use x="924.660156" xlink:href="#DejaVuSans-103"/>
     <use x="988.136719" xlink:href="#DejaVuSans-101"/>
     <use x="1049.660156" xlink:href="#DejaVuSans-32"/>
     <use x="1081.447266" xlink:href="#DejaVuSans-97"/>
     <use x="1142.726562" xlink:href="#DejaVuSans-110"/>
     <use x="1206.105469" xlink:href="#DejaVuSans-100"/>
     <use x="1269.582031" xlink:href="#DejaVuSans-32"/>
     <use x="1301.369141" xlink:href="#DejaVuSans-98"/>
     <use x="1364.845703" xlink:href="#DejaVuSans-101"/>
     <use x="1426.369141" xlink:href="#DejaVuSans-115"/>
     <use x="1478.46875" xlink:href="#DejaVuSans-116"/>
     <use x="1517.677734" xlink:href="#DejaVuSans-32"/>
     <use x="1549.464844" xlink:href="#DejaVuSans-102"/>
     <use x="1584.669922" xlink:href="#DejaVuSans-105"/>
     <use x="1612.453125" xlink:href="#DejaVuSans-116"/>
     <use x="1651.662109" xlink:href="#DejaVuSans-110"/>
     <use x="1715.041016" xlink:href="#DejaVuSans-101"/>
     <use x="1776.564453" xlink:href="#DejaVuSans-115"/>
     <use x="1828.664062" xlink:href="#DejaVuSans-115"/>
    </g>
   </g>
   <g id="legend_1">
    <g id="patch_7">
     <path d="M 199.689687 302.584 
L 272.630313 302.584 
Q 274.630313 302.584 274.630313 300.584 
L 274.630313 242.8715 
Q 274.630313 240.8715 272.630313 240.8715 
L 199.689687 240.8715 
Q 197.689687 240.8715 197.689687 242.8715 
L 197.689687 300.584 
Q 197.689687 302.584 199.689687 302.584 
z
" style="fill:#ffffff;opacity:0.8;stroke:#cccccc;stroke-linejoin:miter;"/>
    </g>
    <g id="line2d_31">
     <path d="M 201.689687 248.969937 
L 221.689687 248.969937 
" style="fill:none;stroke:#0000ff;stroke-linecap:square;stroke-width:1.5;"/>
    </g>
    <g id="line2d_32"/>
    <g id="text_18">
     <!-- average -->
     <g transform="translate(229.689687 252.469937)scale(0.1 -0.1)">
      <use xlink:href="#DejaVuSans-97"/>
      <use x="61.279297" xlink:href="#DejaVuSans-118"/>
      <use x="120.458984" xlink:href="#DejaVuSans-101"/>
      <use x="181.982422" xlink:href="#DejaVuSans-114"/>
      <use x="223.095703" xlink:href="#DejaVuSans-97"/>
      <use x="284.375" xlink:href="#DejaVuSans-103"/>
      <use x="347.851562" xlink:href="#DejaVuSans-101"/>
     </g>
    </g>
    <g id="line2d_33">
     <path d="M 201.689687 263.648062 
L 221.689687 263.648062 
" style="fill:none;stroke:#008000;stroke-dasharray:9.6,2.4,1.5,2.4;stroke-dashoffset:0;stroke-width:1.5;"/>
    </g>
    <g id="line2d_34"/>
    <g id="text_19">
     <!-- -1 sd -->
     <defs>
      <path d="M 4.890625 31.390625 
L 31.203125 31.390625 
L 31.203125 23.390625 
L 4.890625 23.390625 
z
" id="DejaVuSans-45"/>
     </defs>
     <g transform="translate(229.689687 267.148062)scale(0.1 -0.1)">
      <use xlink:href="#DejaVuSans-45"/>
      <use x="36.083984" xlink:href="#DejaVuSans-49"/>
      <use x="99.707031" xlink:href="#DejaVuSans-32"/>
      <use x="131.494141" xlink:href="#DejaVuSans-115"/>
      <use x="183.59375" xlink:href="#DejaVuSans-100"/>
     </g>
    </g>
    <g id="line2d_35">
     <path d="M 201.689687 278.326187 
L 221.689687 278.326187 
" style="fill:none;stroke:#008000;stroke-dasharray:9.6,2.4,1.5,2.4;stroke-dashoffset:0;stroke-width:1.5;"/>
    </g>
    <g id="line2d_36"/>
    <g id="text_20">
     <!-- +1 sd -->
     <defs>
      <path d="M 46 62.703125 
L 46 35.5 
L 73.1875 35.5 
L 73.1875 27.203125 
L 46 27.203125 
L 46 0 
L 37.796875 0 
L 37.796875 27.203125 
L 10.59375 27.203125 
L 10.59375 35.5 
L 37.796875 35.5 
L 37.796875 62.703125 
z
" id="DejaVuSans-43"/>
     </defs>
     <g transform="translate(229.689687 281.826187)scale(0.1 -0.1)">
      <use xlink:href="#DejaVuSans-43"/>
      <use x="83.789062" xlink:href="#DejaVuSans-49"/>
      <use x="147.412109" xlink:href="#DejaVuSans-32"/>
      <use x="179.199219" xlink:href="#DejaVuSans-115"/>
      <use x="231.298828" xlink:href="#DejaVuSans-100"/>
     </g>
    </g>
    <g id="line2d_37">
     <path d="M 201.689687 293.004312 
L 221.689687 293.004312 
" style="fill:none;stroke:#ff0000;stroke-linecap:square;stroke-width:1.5;"/>
    </g>
    <g id="line2d_38"/>
    <g id="text_21">
     <!-- best -->
     <g transform="translate(229.689687 296.504312)scale(0.1 -0.1)">
      <use xlink:href="#DejaVuSans-98"/>
      <use x="63.476562" xlink:href="#DejaVuSans-101"/>
      <use x="125" xlink:href="#DejaVuSans-115"/>
      <use x="177.099609" xlink:href="#DejaVuSans-116"/>
     </g>
    </g>
   </g>
  </g>
 </g>
 <defs>
  <clipPath id="p2ddbe0827c">
   <rect height="266.112" width="357.12" x="57.6" y="41.472"/>
  </clipPath>
 </defs>
</svg>
