<?xml version="1.0" encoding="UTF-8" standalone="no"?>
<!DOCTYPE svg PUBLIC "-//W3C//DTD SVG 1.1//EN"
 "http://www.w3.org/Graphics/SVG/1.1/DTD/svg11.dtd">
<!-- Generated by graphviz version 2.38.0 (20140413.2041)
 -->
<!-- Title: %3 Pages: 1 -->
<svg width="589pt" height="234pt"
 viewBox="0.00 0.00 588.50 234.15" xmlns="http://www.w3.org/2000/svg" xmlns:xlink="http://www.w3.org/1999/xlink">
<g id="graph0" class="graph" transform="scale(1 1) rotate(0) translate(4 230.149)">
<title>%3</title>
<polygon fill="white" stroke="none" points="-4,4 -4,-230.149 584.5,-230.149 584.5,4 -4,4"/>
<!-- Cylinders -->
<g id="node1" class="node"><title>Cylinders</title>
<polygon fill="lightgray" stroke="black" points="52,-122.075 0,-122.075 0,-104.075 52,-104.075 52,-122.075"/>
<text text-anchor="middle" x="26" y="-110.875" font-family="Times New Roman,serif" font-size="9.00">Cylinders</text>
</g>
<!-- 1647 -->
<g id="node13" class="node"><title>1647</title>
<ellipse fill="white" stroke="black" cx="175" cy="-24.7487" rx="25" ry="25"/>
<text text-anchor="middle" x="175" y="-22.5487" font-family="Times New Roman,serif" font-size="9.00">1647</text>
</g>
<!-- Cylinders&#45;&gt;1647 -->
<g id="edge6" class="edge"><title>Cylinders&#45;&gt;1647</title>
<path fill="none" stroke="green" stroke-width="0.111755" d="M35.7893,-103.94C42.6372,-98.4265 52.1136,-91.1447 61,-85.4975 87.8524,-68.4332 120.1,-51.868 143.435,-40.5253"/>
<polygon fill="green" stroke="green" stroke-width="0.111755" points="145.041,-43.6366 152.535,-36.1468 142.006,-37.3287 145.041,-43.6366"/>
</g>
<!-- Displacement -->
<g id="node2" class="node"><title>Displacement</title>
<polygon fill="lightgray" stroke="black" points="386,-210.401 320,-210.401 320,-192.401 386,-192.401 386,-210.401"/>
<text text-anchor="middle" x="353" y="-199.201" font-family="Times New Roman,serif" font-size="9.00">Displacement</text>
</g>
<!-- Horsepower -->
<g id="node3" class="node"><title>Horsepower</title>
<polygon fill="lightgray" stroke="black" points="132,-122.075 70,-122.075 70,-104.075 132,-104.075 132,-122.075"/>
<text text-anchor="middle" x="101" y="-110.875" font-family="Times New Roman,serif" font-size="9.00">Horsepower</text>
</g>
<!-- Horsepower&#45;&gt;1647 -->
<g id="edge7" class="edge"><title>Horsepower&#45;&gt;1647</title>
<path fill="none" stroke="red" stroke-width="0.465398" d="M108.095,-103.797C118.259,-91.9403 137.416,-69.5928 152.635,-51.8392"/>
<polygon fill="red" stroke="red" stroke-width="0.465398" points="155.453,-53.9297 159.304,-44.0595 150.138,-49.374 155.453,-53.9297"/>
</g>
<!-- Weight -->
<g id="node4" class="node"><title>Weight</title>
<polygon fill="lightgray" stroke="black" points="100,-210.401 58,-210.401 58,-192.401 100,-192.401 100,-210.401"/>
<text text-anchor="middle" x="79" y="-199.201" font-family="Times New Roman,serif" font-size="9.00">Weight</text>
</g>
<!-- MPG -->
<g id="node10" class="node"><title>MPG</title>
<ellipse fill="lightblue" stroke="black" cx="177" cy="-113.075" rx="26.7407" ry="26.7407"/>
<text text-anchor="middle" x="177" y="-110.875" font-family="Times New Roman,serif" font-size="9.00">MPG</text>
</g>
<!-- Weight&#45;&gt;MPG -->
<g id="edge1" class="edge"><title>Weight&#45;&gt;MPG</title>
<path fill="none" stroke="red" stroke-width="0.185314" d="M88.3967,-192.123C102.269,-179.904 128.79,-156.542 149.216,-138.549"/>
<polygon fill="red" stroke="red" stroke-width="0.185314" points="151.793,-140.943 156.984,-131.707 147.166,-135.69 151.793,-140.943"/>
</g>
<!-- Acceleration -->
<g id="node5" class="node"><title>Acceleration</title>
<polygon fill="lightgray" stroke="black" points="466,-210.401 404,-210.401 404,-192.401 466,-192.401 466,-210.401"/>
<text text-anchor="middle" x="435" y="-199.201" font-family="Times New Roman,serif" font-size="9.00">Acceleration</text>
</g>
<!-- Model Year -->
<g id="node6" class="node"><title>Model Year</title>
<polygon fill="lightgray" stroke="black" points="177.5,-210.401 118.5,-210.401 118.5,-192.401 177.5,-192.401 177.5,-210.401"/>
<text text-anchor="middle" x="148" y="-199.201" font-family="Times New Roman,serif" font-size="9.00">Model Year</text>
</g>
<!-- Model Year&#45;&gt;MPG -->
<g id="edge2" class="edge"><title>Model Year&#45;&gt;MPG</title>
<path fill="none" stroke="green" stroke-width="0.14218" d="M150.781,-192.123C154.162,-182.058 160.082,-164.435 165.443,-148.478"/>
<polygon fill="green" stroke="green" stroke-width="0.14218" points="168.813,-149.435 168.68,-138.841 162.178,-147.206 168.813,-149.435"/>
</g>
<!-- USA -->
<g id="node7" class="node"><title>USA</title>
<polygon fill="lightgray" stroke="black" points="519.5,-210.401 484.5,-210.401 484.5,-192.401 519.5,-192.401 519.5,-210.401"/>
<text text-anchor="middle" x="502" y="-199.201" font-family="Times New Roman,serif" font-size="9.00">USA</text>
</g>
<!-- Europe -->
<g id="node8" class="node"><title>Europe</title>
<polygon fill="lightgray" stroke="black" points="580.5,-210.401 537.5,-210.401 537.5,-192.401 580.5,-192.401 580.5,-210.401"/>
<text text-anchor="middle" x="559" y="-199.201" font-family="Times New Roman,serif" font-size="9.00">Europe</text>
</g>
<!-- Japan -->
<g id="node9" class="node"><title>Japan</title>
<polygon fill="lightgray" stroke="black" points="234,-210.401 196,-210.401 196,-192.401 234,-192.401 234,-210.401"/>
<text text-anchor="middle" x="215" y="-199.201" font-family="Times New Roman,serif" font-size="9.00">Japan</text>
</g>
<!-- Japan&#45;&gt;MPG -->
<g id="edge3" class="edge"><title>Japan&#45;&gt;MPG</title>
<path fill="none" stroke="green" stroke-width="0.437914" stroke-dasharray="1,5" d="M211.356,-192.123C206.822,-181.822 198.802,-163.604 191.651,-147.358"/>
<polygon fill="green" stroke="green" stroke-width="0.437914" points="194.806,-145.839 187.574,-138.096 188.4,-148.659 194.806,-145.839"/>
</g>
<!-- 18681 -->
<g id="node11" class="node"><title>18681</title>
<ellipse fill="white" stroke="black" cx="249" cy="-113.075" rx="27.6545" ry="27.6545"/>
<text text-anchor="middle" x="249" y="-110.875" font-family="Times New Roman,serif" font-size="9.00">18681</text>
</g>
<!-- 18681&#45;&gt;1647 -->
<g id="edge9" class="edge"><title>18681&#45;&gt;1647</title>
<path fill="none" stroke="green" stroke-width="0.484898" d="M231.463,-91.6166C221.199,-79.6427 208.141,-64.4099 197.168,-51.6097"/>
<polygon fill="green" stroke="green" stroke-width="0.484898" points="199.815,-49.3195 190.65,-44.0051 194.501,-53.8753 199.815,-49.3195"/>
</g>
<!-- 1234 -->
<g id="node12" class="node"><title>1234</title>
<ellipse fill="white" stroke="black" cx="277" cy="-201.401" rx="25" ry="25"/>
<text text-anchor="middle" x="277" y="-199.201" font-family="Times New Roman,serif" font-size="9.00">1234</text>
</g>
<!-- 1234&#45;&gt;MPG -->
<g id="edge4" class="edge"><title>1234&#45;&gt;MPG</title>
<path fill="none" stroke="green" stroke-width="0.249644" stroke-dasharray="1,5" d="M258.658,-184.567C243.637,-171.6 222.14,-153.042 204.972,-138.222"/>
<polygon fill="green" stroke="green" stroke-width="0.249644" points="206.797,-135.173 196.94,-131.288 202.223,-140.472 206.797,-135.173"/>
</g>
<!-- 1234&#45;&gt;18681 -->
<g id="edge8" class="edge"><title>1234&#45;&gt;18681</title>
<path fill="none" stroke="green" stroke-width="0.179733" d="M269.643,-177.719C266.829,-169.044 263.549,-158.931 260.443,-149.354"/>
<polygon fill="green" stroke="green" stroke-width="0.179733" points="263.71,-148.083 257.296,-139.65 257.052,-150.242 263.71,-148.083"/>
</g>
<!-- 1234&#45;&gt;1647 -->
<g id="edge5" class="edge"><title>1234&#45;&gt;1647</title>
<path fill="none" stroke="green" stroke-width="0.419459" stroke-dasharray="1,5" d="M286.022,-177.91C294.299,-153.381 302.932,-113.841 286,-85.4975 269.453,-57.7983 235.151,-42.1868 209.031,-33.927"/>
<polygon fill="green" stroke="green" stroke-width="0.419459" points="209.704,-30.4769 199.123,-31.0153 207.731,-37.1929 209.704,-30.4769"/>
</g>
</g>
</svg>
