<?xml version="1.0" encoding="UTF-8" standalone="no"?>
<!DOCTYPE svg PUBLIC "-//W3C//DTD SVG 1.1//EN"
 "http://www.w3.org/Graphics/SVG/1.1/DTD/svg11.dtd">
<!-- Generated by graphviz version 2.38.0 (20140413.2041)
 -->
<!-- Title: %3 Pages: 1 -->
<svg width="811pt" height="422pt"
 viewBox="0.00 0.00 811.33 422.11" xmlns="http://www.w3.org/2000/svg" xmlns:xlink="http://www.w3.org/1999/xlink">
<g id="graph0" class="graph" transform="scale(1 1) rotate(0) translate(4 418.115)">
<title>%3</title>
<polygon fill="white" stroke="none" points="-4,4 -4,-418.115 807.326,-418.115 807.326,4 -4,4"/>
<!-- Cylinders -->
<g id="node1" class="node"><title>Cylinders</title>
<polygon fill="lightgray" stroke="black" points="109.577,-395.538 57.5772,-395.538 57.5772,-377.538 109.577,-377.538 109.577,-395.538"/>
<text text-anchor="middle" x="83.5772" y="-384.338" font-family="Times New Roman,serif" font-size="9.00">Cylinders</text>
</g>
<!-- 10044 -->
<g id="node17" class="node"><title>10044</title>
<ellipse fill="white" stroke="black" cx="83.5772" cy="-295.383" rx="27.6545" ry="27.6545"/>
<text text-anchor="middle" x="83.5772" y="-293.183" font-family="Times New Roman,serif" font-size="9.00">10044</text>
</g>
<!-- Cylinders&#45;&gt;10044 -->
<g id="edge10" class="edge"><title>Cylinders&#45;&gt;10044</title>
<path fill="none" stroke="red" stroke-width="0.372241" d="M83.5772,-377.31C83.5772,-367.338 83.5772,-349.857 83.5772,-333.688"/>
<polygon fill="red" stroke="red" stroke-width="0.372241" points="87.0773,-333.344 83.5772,-323.344 80.0773,-333.344 87.0773,-333.344"/>
</g>
<!-- Displacement -->
<g id="node2" class="node"><title>Displacement</title>
<polygon fill="lightgray" stroke="black" points="193.577,-395.538 127.577,-395.538 127.577,-377.538 193.577,-377.538 193.577,-395.538"/>
<text text-anchor="middle" x="160.577" y="-384.338" font-family="Times New Roman,serif" font-size="9.00">Displacement</text>
</g>
<!-- Horsepower -->
<g id="node3" class="node"><title>Horsepower</title>
<polygon fill="lightgray" stroke="black" points="273.577,-395.538 211.577,-395.538 211.577,-377.538 273.577,-377.538 273.577,-395.538"/>
<text text-anchor="middle" x="242.577" y="-384.338" font-family="Times New Roman,serif" font-size="9.00">Horsepower</text>
</g>
<!-- Weight -->
<g id="node4" class="node"><title>Weight</title>
<polygon fill="lightgray" stroke="black" points="333.577,-395.538 291.577,-395.538 291.577,-377.538 333.577,-377.538 333.577,-395.538"/>
<text text-anchor="middle" x="312.577" y="-384.338" font-family="Times New Roman,serif" font-size="9.00">Weight</text>
</g>
<!-- MPG -->
<g id="node10" class="node"><title>MPG</title>
<ellipse fill="lightblue" stroke="black" cx="313.577" cy="-295.383" rx="26.7407" ry="26.7407"/>
<text text-anchor="middle" x="313.577" y="-293.183" font-family="Times New Roman,serif" font-size="9.00">MPG</text>
</g>
<!-- Weight&#45;&gt;MPG -->
<g id="edge1" class="edge"><title>Weight&#45;&gt;MPG</title>
<path fill="none" stroke="red" stroke-width="0.183683" d="M312.669,-377.31C312.783,-367.197 312.983,-349.36 313.166,-333.001"/>
<polygon fill="red" stroke="red" stroke-width="0.183683" points="316.671,-332.599 313.284,-322.56 309.672,-332.52 316.671,-332.599"/>
</g>
<!-- Acceleration -->
<g id="node5" class="node"><title>Acceleration</title>
<polygon fill="lightgray" stroke="black" points="491.577,-395.538 429.577,-395.538 429.577,-377.538 491.577,-377.538 491.577,-395.538"/>
<text text-anchor="middle" x="460.577" y="-384.338" font-family="Times New Roman,serif" font-size="9.00">Acceleration</text>
</g>
<!-- Model Year -->
<g id="node6" class="node"><title>Model Year</title>
<polygon fill="lightgray" stroke="black" points="411.077,-395.538 352.077,-395.538 352.077,-377.538 411.077,-377.538 411.077,-395.538"/>
<text text-anchor="middle" x="381.577" y="-384.338" font-family="Times New Roman,serif" font-size="9.00">Model Year</text>
</g>
<!-- Model Year&#45;&gt;MPG -->
<g id="edge6" class="edge"><title>Model Year&#45;&gt;MPG</title>
<path fill="none" stroke="green" stroke-width="0.147828" d="M375.302,-377.31C366.349,-365.572 349.461,-343.43 335.61,-325.27"/>
<polygon fill="green" stroke="green" stroke-width="0.147828" points="338.346,-323.086 329.499,-317.258 332.78,-327.332 338.346,-323.086"/>
</g>
<!-- 991 -->
<g id="node18" class="node"><title>991</title>
<ellipse fill="white" stroke="black" cx="381.577" cy="-295.383" rx="21.4286" ry="21.4286"/>
<text text-anchor="middle" x="381.577" y="-293.183" font-family="Times New Roman,serif" font-size="9.00">991</text>
</g>
<!-- Model Year&#45;&gt;991 -->
<g id="edge2" class="edge"><title>Model Year&#45;&gt;991</title>
<path fill="none" stroke="red" stroke-width="0.355418" d="M381.577,-377.31C381.577,-365.923 381.577,-344.744 381.577,-326.909"/>
<polygon fill="red" stroke="red" stroke-width="0.355418" points="385.077,-326.893 381.577,-316.893 378.077,-326.893 385.077,-326.893"/>
</g>
<!-- USA -->
<g id="node7" class="node"><title>USA</title>
<polygon fill="lightgray" stroke="black" points="545.077,-395.538 510.077,-395.538 510.077,-377.538 545.077,-377.538 545.077,-395.538"/>
<text text-anchor="middle" x="527.577" y="-384.338" font-family="Times New Roman,serif" font-size="9.00">USA</text>
</g>
<!-- 1446 -->
<g id="node13" class="node"><title>1446</title>
<ellipse fill="white" stroke="black" cx="527.577" cy="-295.383" rx="25" ry="25"/>
<text text-anchor="middle" x="527.577" y="-293.183" font-family="Times New Roman,serif" font-size="9.00">1446</text>
</g>
<!-- USA&#45;&gt;1446 -->
<g id="edge7" class="edge"><title>USA&#45;&gt;1446</title>
<path fill="none" stroke="red" stroke-width="0.545792" d="M527.577,-377.31C527.577,-366.672 527.577,-347.488 527.577,-330.468"/>
<polygon fill="red" stroke="red" stroke-width="0.545792" points="531.077,-330.246 527.577,-320.246 524.077,-330.246 531.077,-330.246"/>
</g>
<!-- Europe -->
<g id="node8" class="node"><title>Europe</title>
<polygon fill="lightgray" stroke="black" points="606.077,-395.538 563.077,-395.538 563.077,-377.538 606.077,-377.538 606.077,-395.538"/>
<text text-anchor="middle" x="584.577" y="-384.338" font-family="Times New Roman,serif" font-size="9.00">Europe</text>
</g>
<!-- Japan -->
<g id="node9" class="node"><title>Japan</title>
<polygon fill="lightgray" stroke="black" points="662.577,-395.538 624.577,-395.538 624.577,-377.538 662.577,-377.538 662.577,-395.538"/>
<text text-anchor="middle" x="643.577" y="-384.338" font-family="Times New Roman,serif" font-size="9.00">Japan</text>
</g>
<!-- 10656 -->
<g id="node11" class="node"><title>10656</title>
<ellipse fill="white" stroke="black" cx="708.577" cy="-386.538" rx="27.6545" ry="27.6545"/>
<text text-anchor="middle" x="708.577" y="-384.338" font-family="Times New Roman,serif" font-size="9.00">10656</text>
</g>
<!-- 11076 -->
<g id="node12" class="node"><title>11076</title>
<ellipse fill="white" stroke="black" cx="27.5772" cy="-204.229" rx="27.6545" ry="27.6545"/>
<text text-anchor="middle" x="27.5772" y="-202.029" font-family="Times New Roman,serif" font-size="9.00">11076</text>
</g>
<!-- 10509 -->
<g id="node14" class="node"><title>10509</title>
<ellipse fill="white" stroke="black" cx="65.5772" cy="-113.075" rx="27.6545" ry="27.6545"/>
<text text-anchor="middle" x="65.5772" y="-110.875" font-family="Times New Roman,serif" font-size="9.00">10509</text>
</g>
<!-- 11076&#45;&gt;10509 -->
<g id="edge9" class="edge"><title>11076&#45;&gt;10509</title>
<path fill="none" stroke="green" stroke-width="0.10522" d="M38.1623,-178.395C42.1564,-169.024 46.7722,-158.194 51.0641,-148.125"/>
<polygon fill="green" stroke="green" stroke-width="0.10522" points="54.3475,-149.348 55.0488,-138.776 47.908,-146.603 54.3475,-149.348"/>
</g>
<!-- 1134 -->
<g id="node15" class="node"><title>1134</title>
<ellipse fill="white" stroke="black" cx="93.5772" cy="-24.7487" rx="25" ry="25"/>
<text text-anchor="middle" x="93.5772" y="-22.5487" font-family="Times New Roman,serif" font-size="9.00">1134</text>
</g>
<!-- 10509&#45;&gt;1134 -->
<g id="edge5" class="edge"><title>10509&#45;&gt;1134</title>
<path fill="none" stroke="green" stroke-width="0.214204" stroke-dasharray="1,5" d="M73.8266,-86.6409C76.6935,-77.8022 79.9498,-67.7629 82.9797,-58.4215"/>
<polygon fill="green" stroke="green" stroke-width="0.214204" points="86.3934,-59.2408 86.1495,-48.6488 79.7349,-57.0811 86.3934,-59.2408"/>
</g>
<!-- 1370 -->
<g id="node16" class="node"><title>1370</title>
<ellipse fill="white" stroke="black" cx="778.577" cy="-386.538" rx="25" ry="25"/>
<text text-anchor="middle" x="778.577" y="-384.338" font-family="Times New Roman,serif" font-size="9.00">1370</text>
</g>
<!-- 10044&#45;&gt;11076 -->
<g id="edge8" class="edge"><title>10044&#45;&gt;11076</title>
<path fill="none" stroke="red" stroke-width="0.330195" stroke-dasharray="1,5" d="M69.1558,-271.424C62.5584,-260.921 54.634,-248.305 47.4809,-236.917"/>
<polygon fill="red" stroke="red" stroke-width="0.330195" points="50.2326,-234.717 41.9497,-228.111 44.3049,-238.44 50.2326,-234.717"/>
</g>
<!-- 10044&#45;&gt;10509 -->
<g id="edge4" class="edge"><title>10044&#45;&gt;10509</title>
<path fill="none" stroke="red" stroke-width="0.124178" stroke-dasharray="1,5" d="M80.9212,-267.778C77.8371,-236.884 72.7306,-185.732 69.2634,-151"/>
<polygon fill="red" stroke="red" stroke-width="0.124178" points="72.7202,-150.392 68.244,-140.789 65.7548,-151.087 72.7202,-150.392"/>
</g>
<!-- 10044&#45;&gt;1134 -->
<g id="edge3" class="edge"><title>10044&#45;&gt;1134</title>
<path fill="none" stroke="green" stroke-width="0.272971" stroke-dasharray="1,5" d="M88.7815,-268.026C95.9634,-228.43 107.5,-151.224 102.577,-85.4975 101.937,-76.945 100.787,-67.7612 99.5194,-59.2216"/>
<polygon fill="green" stroke="green" stroke-width="0.272971" points="102.956,-58.543 97.9404,-49.2105 96.0412,-59.6337 102.956,-58.543"/>
</g>
</g>
</svg>
