<?xml version="1.0" encoding="UTF-8" standalone="no"?>
<!DOCTYPE svg PUBLIC "-//W3C//DTD SVG 1.1//EN"
 "http://www.w3.org/Graphics/SVG/1.1/DTD/svg11.dtd">
<!-- Generated by graphviz version 2.38.0 (20140413.2041)
 -->
<!-- Title: %3 Pages: 1 -->
<svg width="972pt" height="737pt"
 viewBox="0.00 0.00 971.61 736.59" xmlns="http://www.w3.org/2000/svg" xmlns:xlink="http://www.w3.org/1999/xlink">
<g id="graph0" class="graph" transform="scale(1 1) rotate(0) translate(4 732.59)">
<title>%3</title>
<polygon fill="white" stroke="none" points="-4,4 -4,-732.59 967.613,-732.59 967.613,4 -4,4"/>
<!-- Cylinders -->
<g id="node1" class="node"><title>Cylinders</title>
<polygon fill="lightgray" stroke="black" points="116.113,-618.858 64.1127,-618.858 64.1127,-600.858 116.113,-600.858 116.113,-618.858"/>
<text text-anchor="middle" x="90.1127" y="-607.658" font-family="Times New Roman,serif" font-size="9.00">Cylinders</text>
</g>
<!-- 13755 -->
<g id="node24" class="node"><title>13755</title>
<ellipse fill="white" stroke="black" cx="157.113" cy="-27.5772" rx="27.6545" ry="27.6545"/>
<text text-anchor="middle" x="157.113" y="-25.3772" font-family="Times New Roman,serif" font-size="9.00">13755</text>
</g>
<!-- Cylinders&#45;&gt;13755 -->
<g id="edge2" class="edge"><title>Cylinders&#45;&gt;13755</title>
<path fill="none" stroke="red" stroke-width="0.1285" stroke-dasharray="1,5" d="M90.1127,-600.856C90.1127,-574.627 90.1127,-488.874 90.1127,-417.943 90.1127,-417.943 90.1127,-417.943 90.1127,-219.492 90.1127,-160.88 118.577,-97.5664 138.399,-60.5807"/>
<polygon fill="red" stroke="red" stroke-width="0.1285" points="141.495,-62.2154 143.23,-51.7637 135.356,-58.8518 141.495,-62.2154"/>
</g>
<!-- 21831 -->
<g id="node27" class="node"><title>21831</title>
<ellipse fill="white" stroke="black" cx="200.113" cy="-515.169" rx="27.6545" ry="27.6545"/>
<text text-anchor="middle" x="200.113" y="-512.969" font-family="Times New Roman,serif" font-size="9.00">21831</text>
</g>
<!-- Cylinders&#45;&gt;21831 -->
<g id="edge47" class="edge"><title>Cylinders&#45;&gt;21831</title>
<path fill="none" stroke="red" stroke-width="0.439019" d="M99.8745,-600.633C115.772,-587.237 147.849,-560.207 171.453,-540.318"/>
<polygon fill="red" stroke="red" stroke-width="0.439019" points="174.017,-542.735 179.408,-533.615 169.506,-537.382 174.017,-542.735"/>
</g>
<!-- Displacement -->
<g id="node2" class="node"><title>Displacement</title>
<polygon fill="lightgray" stroke="black" points="772.113,-618.858 706.113,-618.858 706.113,-600.858 772.113,-600.858 772.113,-618.858"/>
<text text-anchor="middle" x="739.113" y="-607.658" font-family="Times New Roman,serif" font-size="9.00">Displacement</text>
</g>
<!-- 44012 -->
<g id="node39" class="node"><title>44012</title>
<ellipse fill="white" stroke="black" cx="739.113" cy="-515.169" rx="27.6545" ry="27.6545"/>
<text text-anchor="middle" x="739.113" y="-512.969" font-family="Times New Roman,serif" font-size="9.00">44012</text>
</g>
<!-- Displacement&#45;&gt;44012 -->
<g id="edge4" class="edge"><title>Displacement&#45;&gt;44012</title>
<path fill="none" stroke="red" stroke-width="0.315255" stroke-dasharray="1,5" d="M739.113,-600.633C739.113,-589.892 739.113,-570.387 739.113,-552.825"/>
<polygon fill="red" stroke="red" stroke-width="0.315255" points="742.613,-552.79 739.113,-542.79 735.613,-552.79 742.613,-552.79"/>
</g>
<!-- Horsepower -->
<g id="node3" class="node"><title>Horsepower</title>
<polygon fill="lightgray" stroke="black" points="799.113,-710.013 737.113,-710.013 737.113,-692.013 799.113,-692.013 799.113,-710.013"/>
<text text-anchor="middle" x="768.113" y="-698.813" font-family="Times New Roman,serif" font-size="9.00">Horsepower</text>
</g>
<!-- Weight -->
<g id="node4" class="node"><title>Weight</title>
<polygon fill="lightgray" stroke="black" points="406.113,-524.169 364.113,-524.169 364.113,-506.169 406.113,-506.169 406.113,-524.169"/>
<text text-anchor="middle" x="385.113" y="-512.969" font-family="Times New Roman,serif" font-size="9.00">Weight</text>
</g>
<!-- MPG -->
<g id="node10" class="node"><title>MPG</title>
<ellipse fill="lightblue" stroke="black" cx="319.113" cy="-318.718" rx="26.7407" ry="26.7407"/>
<text text-anchor="middle" x="319.113" y="-316.518" font-family="Times New Roman,serif" font-size="9.00">MPG</text>
</g>
<!-- Weight&#45;&gt;MPG -->
<g id="edge1" class="edge"><title>Weight&#45;&gt;MPG</title>
<path fill="none" stroke="red" stroke-width="0.140976" d="M387.314,-505.935C392.492,-484.918 403.733,-427.972 386.113,-385.831 381.887,-375.724 363.713,-358.072 347.358,-343.549"/>
<polygon fill="red" stroke="red" stroke-width="0.140976" points="349.377,-340.665 339.545,-336.717 344.769,-345.935 349.377,-340.665"/>
</g>
<!-- 118029 -->
<g id="node15" class="node"><title>118029</title>
<ellipse fill="white" stroke="black" cx="243.113" cy="-318.718" rx="31.2258" ry="31.2258"/>
<text text-anchor="middle" x="243.113" y="-316.518" font-family="Times New Roman,serif" font-size="9.00">118029</text>
</g>
<!-- Weight&#45;&gt;118029 -->
<g id="edge25" class="edge"><title>Weight&#45;&gt;118029</title>
<path fill="none" stroke="green" stroke-width="0.856641" d="M385.289,-505.958C385.336,-484.003 382.633,-423.086 353.113,-385.831 331.386,-358.411 312.75,-368.418 283.113,-349.831 280.545,-348.22 277.934,-346.489 275.34,-344.701"/>
<polygon fill="green" stroke="green" stroke-width="0.856641" points="277.354,-341.839 267.183,-338.871 273.283,-347.534 277.354,-341.839"/>
</g>
<!-- 118565 -->
<g id="node19" class="node"><title>118565</title>
<ellipse fill="white" stroke="black" cx="313.113" cy="-416.943" rx="31.2258" ry="31.2258"/>
<text text-anchor="middle" x="313.113" y="-414.743" font-family="Times New Roman,serif" font-size="9.00">118565</text>
</g>
<!-- Weight&#45;&gt;118565 -->
<g id="edge26" class="edge"><title>Weight&#45;&gt;118565</title>
<path fill="none" stroke="green" stroke-width="0.227962" d="M378.974,-505.964C369.869,-493.795 352.275,-470.282 337.561,-450.618"/>
<polygon fill="green" stroke="green" stroke-width="0.227962" points="340.258,-448.38 331.465,-442.47 334.653,-452.574 340.258,-448.38"/>
</g>
<!-- Acceleration -->
<g id="node5" class="node"><title>Acceleration</title>
<polygon fill="lightgray" stroke="black" points="910.113,-710.013 848.113,-710.013 848.113,-692.013 910.113,-692.013 910.113,-710.013"/>
<text text-anchor="middle" x="879.113" y="-698.813" font-family="Times New Roman,serif" font-size="9.00">Acceleration</text>
</g>
<!-- 81996 -->
<g id="node30" class="node"><title>81996</title>
<ellipse fill="white" stroke="black" cx="879.113" cy="-609.858" rx="27.6545" ry="27.6545"/>
<text text-anchor="middle" x="879.113" y="-607.658" font-family="Times New Roman,serif" font-size="9.00">81996</text>
</g>
<!-- Acceleration&#45;&gt;81996 -->
<g id="edge50" class="edge"><title>Acceleration&#45;&gt;81996</title>
<path fill="none" stroke="red" stroke-width="0.133294" d="M879.113,-691.785C879.113,-681.813 879.113,-664.332 879.113,-648.163"/>
<polygon fill="red" stroke="red" stroke-width="0.133294" points="882.613,-647.819 879.113,-637.819 875.613,-647.819 882.613,-647.819"/>
</g>
<!-- Model Year -->
<g id="node6" class="node"><title>Model Year</title>
<polygon fill="lightgray" stroke="black" points="571.613,-524.169 512.613,-524.169 512.613,-506.169 571.613,-506.169 571.613,-524.169"/>
<text text-anchor="middle" x="542.113" y="-512.969" font-family="Times New Roman,serif" font-size="9.00">Model Year</text>
</g>
<!-- 9797 -->
<g id="node26" class="node"><title>9797</title>
<ellipse fill="white" stroke="black" cx="549.113" cy="-318.718" rx="25" ry="25"/>
<text text-anchor="middle" x="549.113" y="-316.518" font-family="Times New Roman,serif" font-size="9.00">9797</text>
</g>
<!-- Model Year&#45;&gt;9797 -->
<g id="edge3" class="edge"><title>Model Year&#45;&gt;9797</title>
<path fill="none" stroke="red" stroke-width="0.21716" stroke-dasharray="1,5" d="M542.413,-505.813C543.346,-479.916 546.224,-399.962 547.889,-353.714"/>
<polygon fill="red" stroke="red" stroke-width="0.21716" points="551.392,-353.681 548.254,-343.561 544.397,-353.429 551.392,-353.681"/>
</g>
<!-- 82763 -->
<g id="node29" class="node"><title>82763</title>
<ellipse fill="white" stroke="black" cx="475.113" cy="-416.943" rx="27.6545" ry="27.6545"/>
<text text-anchor="middle" x="475.113" y="-414.743" font-family="Times New Roman,serif" font-size="9.00">82763</text>
</g>
<!-- Model Year&#45;&gt;82763 -->
<g id="edge11" class="edge"><title>Model Year&#45;&gt;82763</title>
<path fill="none" stroke="green" stroke-width="0.212314" d="M536.4,-505.964C527.595,-493.318 510.259,-468.421 496.266,-448.323"/>
<polygon fill="green" stroke="green" stroke-width="0.212314" points="499.094,-446.26 490.507,-440.053 493.349,-450.26 499.094,-446.26"/>
</g>
<!-- USA -->
<g id="node7" class="node"><title>USA</title>
<polygon fill="lightgray" stroke="black" points="963.613,-710.013 928.613,-710.013 928.613,-692.013 963.613,-692.013 963.613,-710.013"/>
<text text-anchor="middle" x="946.113" y="-698.813" font-family="Times New Roman,serif" font-size="9.00">USA</text>
</g>
<!-- Europe -->
<g id="node8" class="node"><title>Europe</title>
<polygon fill="lightgray" stroke="black" points="833.613,-618.858 790.613,-618.858 790.613,-600.858 833.613,-600.858 833.613,-618.858"/>
<text text-anchor="middle" x="812.113" y="-607.658" font-family="Times New Roman,serif" font-size="9.00">Europe</text>
</g>
<!-- Europe&#45;&gt;44012 -->
<g id="edge41" class="edge"><title>Europe&#45;&gt;44012</title>
<path fill="none" stroke="green" stroke-width="0.336242" d="M805.634,-600.633C795.925,-588.305 777.122,-564.43 761.977,-545.2"/>
<polygon fill="green" stroke="green" stroke-width="0.336242" points="764.684,-542.981 755.747,-537.29 759.185,-547.312 764.684,-542.981"/>
</g>
<!-- 13809 -->
<g id="node40" class="node"><title>13809</title>
<ellipse fill="white" stroke="black" cx="812.113" cy="-515.169" rx="27.6545" ry="27.6545"/>
<text text-anchor="middle" x="812.113" y="-512.969" font-family="Times New Roman,serif" font-size="9.00">13809</text>
</g>
<!-- Europe&#45;&gt;13809 -->
<g id="edge5" class="edge"><title>Europe&#45;&gt;13809</title>
<path fill="none" stroke="red" stroke-width="0.432823" stroke-dasharray="1,5" d="M812.113,-600.633C812.113,-589.892 812.113,-570.387 812.113,-552.825"/>
<polygon fill="red" stroke="red" stroke-width="0.432823" points="815.613,-552.79 812.113,-542.79 808.613,-552.79 815.613,-552.79"/>
</g>
<!-- Japan -->
<g id="node9" class="node"><title>Japan</title>
<polygon fill="lightgray" stroke="black" points="334.113,-618.858 296.113,-618.858 296.113,-600.858 334.113,-600.858 334.113,-618.858"/>
<text text-anchor="middle" x="315.113" y="-607.658" font-family="Times New Roman,serif" font-size="9.00">Japan</text>
</g>
<!-- 82048 -->
<g id="node11" class="node"><title>82048</title>
<ellipse fill="white" stroke="black" cx="156.113" cy="-416.943" rx="27.6545" ry="27.6545"/>
<text text-anchor="middle" x="156.113" y="-414.743" font-family="Times New Roman,serif" font-size="9.00">82048</text>
</g>
<!-- Japan&#45;&gt;82048 -->
<g id="edge10" class="edge"><title>Japan&#45;&gt;82048</title>
<path fill="none" stroke="green" stroke-width="0.311437" stroke-dasharray="1,5" d="M309.882,-600.792C302.19,-588.905 287.411,-565.964 275.113,-546.281 257.941,-518.8 258.413,-508.477 237.113,-484.056 236.546,-483.406 208.07,-460.199 185.043,-441.464"/>
<polygon fill="green" stroke="green" stroke-width="0.311437" points="187.146,-438.663 177.18,-435.068 182.729,-444.093 187.146,-438.663"/>
</g>
<!-- 118205 -->
<g id="node25" class="node"><title>118205</title>
<ellipse fill="white" stroke="black" cx="315.113" cy="-515.169" rx="31.2258" ry="31.2258"/>
<text text-anchor="middle" x="315.113" y="-512.969" font-family="Times New Roman,serif" font-size="9.00">118205</text>
</g>
<!-- Japan&#45;&gt;118205 -->
<g id="edge20" class="edge"><title>Japan&#45;&gt;118205</title>
<path fill="none" stroke="red" stroke-width="0.138045" d="M315.113,-600.633C315.113,-590.653 315.113,-573.106 315.113,-556.582"/>
<polygon fill="red" stroke="red" stroke-width="0.138045" points="318.613,-556.503 315.113,-546.503 311.613,-556.503 318.613,-556.503"/>
</g>
<!-- Japan&#45;&gt;44012 -->
<g id="edge22" class="edge"><title>Japan&#45;&gt;44012</title>
<path fill="none" stroke="red" stroke-width="0.391993" d="M334.45,-603.519C356.314,-597.638 393.046,-588.229 425.113,-582.281 546.744,-559.722 587.168,-594.444 701.113,-546.281 704.573,-544.819 707.981,-542.951 711.251,-540.864"/>
<polygon fill="red" stroke="red" stroke-width="0.391993" points="713.42,-543.616 719.522,-534.955 709.35,-537.92 713.42,-543.616"/>
</g>
<!-- 12394 -->
<g id="node38" class="node"><title>12394</title>
<ellipse fill="white" stroke="black" cx="340.113" cy="-220.492" rx="27.6545" ry="27.6545"/>
<text text-anchor="middle" x="340.113" y="-218.292" font-family="Times New Roman,serif" font-size="9.00">12394</text>
</g>
<!-- MPG&#45;&gt;12394 -->
<g id="edge13" class="edge"><title>MPG&#45;&gt;12394</title>
<path fill="none" stroke="green" stroke-width="0.792411" stroke-dasharray="1,5" d="M324.685,-292.184C327.016,-281.504 329.766,-268.905 332.293,-257.323"/>
<polygon fill="green" stroke="green" stroke-width="0.792411" points="335.728,-257.997 334.441,-247.481 328.889,-256.505 335.728,-257.997"/>
</g>
<!-- 82048&#45;&gt;118029 -->
<g id="edge17" class="edge"><title>82048&#45;&gt;118029</title>
<path fill="none" stroke="red" stroke-width="0.205058" d="M174.139,-396.005C186.176,-382.692 202.231,-364.935 215.822,-349.902"/>
<polygon fill="red" stroke="red" stroke-width="0.205058" points="218.56,-352.093 222.67,-342.328 213.368,-347.398 218.56,-352.093"/>
</g>
<!-- 82048&#45;&gt;13755 -->
<g id="edge7" class="edge"><title>82048&#45;&gt;13755</title>
<path fill="none" stroke="green" stroke-width="0.576762" stroke-dasharray="1,5" d="M153.458,-389.371C148.337,-333.875 138.34,-201.65 147.113,-91.1543 147.787,-82.6554 148.97,-73.5679 150.291,-65.0269"/>
<polygon fill="green" stroke="green" stroke-width="0.576762" points="153.778,-65.3913 151.946,-54.956 146.871,-64.2559 153.778,-65.3913"/>
</g>
<!-- 118153 -->
<g id="node12" class="node"><title>118153</title>
<ellipse fill="white" stroke="black" cx="642.113" cy="-122.267" rx="31.2258" ry="31.2258"/>
<text text-anchor="middle" x="642.113" y="-120.067" font-family="Times New Roman,serif" font-size="9.00">118153</text>
</g>
<!-- 82828 -->
<g id="node14" class="node"><title>82828</title>
<ellipse fill="white" stroke="black" cx="603.113" cy="-27.5772" rx="27.6545" ry="27.6545"/>
<text text-anchor="middle" x="603.113" y="-25.3772" font-family="Times New Roman,serif" font-size="9.00">82828</text>
</g>
<!-- 118153&#45;&gt;82828 -->
<g id="edge34" class="edge"><title>118153&#45;&gt;82828</title>
<path fill="none" stroke="red" stroke-width="0.210537" stroke-dasharray="1,5" d="M630.306,-93.2055C626.262,-83.5953 621.693,-72.7361 617.47,-62.7003"/>
<polygon fill="red" stroke="red" stroke-width="0.210537" points="620.661,-61.2582 613.556,-53.3983 614.209,-63.973 620.661,-61.2582"/>
</g>
<!-- 119307 -->
<g id="node13" class="node"><title>119307</title>
<ellipse fill="white" stroke="black" cx="661.113" cy="-515.169" rx="31.2258" ry="31.2258"/>
<text text-anchor="middle" x="661.113" y="-512.969" font-family="Times New Roman,serif" font-size="9.00">119307</text>
</g>
<!-- 119117 -->
<g id="node31" class="node"><title>119117</title>
<ellipse fill="white" stroke="black" cx="661.113" cy="-416.943" rx="31.2258" ry="31.2258"/>
<text text-anchor="middle" x="661.113" y="-414.743" font-family="Times New Roman,serif" font-size="9.00">119117</text>
</g>
<!-- 119307&#45;&gt;119117 -->
<g id="edge42" class="edge"><title>119307&#45;&gt;119117</title>
<path fill="none" stroke="red" stroke-width="0.126564" d="M661.113,-483.986C661.113,-475.914 661.113,-467.057 661.113,-458.523"/>
<polygon fill="red" stroke="red" stroke-width="0.126564" points="664.613,-458.349 661.113,-448.349 657.613,-458.349 664.613,-458.349"/>
</g>
<!-- 118029&#45;&gt;13755 -->
<g id="edge18" class="edge"><title>118029&#45;&gt;13755</title>
<path fill="none" stroke="green" stroke-width="0.203519" stroke-dasharray="1,5" d="M248.848,-287.805C255.99,-242.034 263.242,-153.391 227.113,-91.1543 217.624,-74.81 202.373,-60.4351 188.525,-49.598"/>
<polygon fill="green" stroke="green" stroke-width="0.203519" points="190.249,-46.5167 180.148,-43.3216 186.052,-52.1187 190.249,-46.5167"/>
</g>
<!-- 119773 -->
<g id="node37" class="node"><title>119773</title>
<ellipse fill="white" stroke="black" cx="187.113" cy="-122.267" rx="31.2258" ry="31.2258"/>
<text text-anchor="middle" x="187.113" y="-120.067" font-family="Times New Roman,serif" font-size="9.00">119773</text>
</g>
<!-- 118029&#45;&gt;119773 -->
<g id="edge39" class="edge"><title>118029&#45;&gt;119773</title>
<path fill="none" stroke="green" stroke-width="0.336319" stroke-dasharray="1,5" d="M242.877,-287.349C241.846,-260.821 238.303,-221.622 227.113,-189.38 223.166,-178.009 217.073,-166.488 210.822,-156.319"/>
<polygon fill="green" stroke="green" stroke-width="0.336319" points="213.683,-154.297 205.339,-147.768 207.791,-158.075 213.683,-154.297"/>
</g>
<!-- 132984 -->
<g id="node42" class="node"><title>132984</title>
<ellipse fill="white" stroke="black" cx="187.113" cy="-220.492" rx="31.2258" ry="31.2258"/>
<text text-anchor="middle" x="187.113" y="-218.292" font-family="Times New Roman,serif" font-size="9.00">132984</text>
</g>
<!-- 118029&#45;&gt;132984 -->
<g id="edge45" class="edge"><title>118029&#45;&gt;132984</title>
<path fill="none" stroke="red" stroke-width="0.281286" stroke-dasharray="1,5" d="M227.81,-291.424C221.576,-280.71 214.275,-268.166 207.592,-256.682"/>
<polygon fill="red" stroke="red" stroke-width="0.281286" points="210.451,-254.637 202.396,-247.755 204.401,-258.158 210.451,-254.637"/>
</g>
<!-- 11668 -->
<g id="node16" class="node"><title>11668</title>
<ellipse fill="white" stroke="black" cx="535.113" cy="-609.858" rx="27.6545" ry="27.6545"/>
<text text-anchor="middle" x="535.113" y="-607.658" font-family="Times New Roman,serif" font-size="9.00">11668</text>
</g>
<!-- 65049 -->
<g id="node17" class="node"><title>65049</title>
<ellipse fill="white" stroke="black" cx="535.113" cy="-701.013" rx="27.6545" ry="27.6545"/>
<text text-anchor="middle" x="535.113" y="-698.813" font-family="Times New Roman,serif" font-size="9.00">65049</text>
</g>
<!-- 65049&#45;&gt;11668 -->
<g id="edge9" class="edge"><title>65049&#45;&gt;11668</title>
<path fill="none" stroke="red" stroke-width="0.25511" d="M535.113,-673.264C535.113,-665.241 535.113,-656.297 535.113,-647.742"/>
<polygon fill="red" stroke="red" stroke-width="0.25511" points="538.613,-647.589 535.113,-637.589 531.613,-647.589 538.613,-647.589"/>
</g>
<!-- 10148 -->
<g id="node18" class="node"><title>10148</title>
<ellipse fill="white" stroke="black" cx="462.113" cy="-515.169" rx="27.6545" ry="27.6545"/>
<text text-anchor="middle" x="462.113" y="-512.969" font-family="Times New Roman,serif" font-size="9.00">10148</text>
</g>
<!-- 118565&#45;&gt;118029 -->
<g id="edge27" class="edge"><title>118565&#45;&gt;118029</title>
<path fill="none" stroke="green" stroke-width="0.333764" d="M295.268,-391.413C286.776,-379.74 276.496,-365.608 267.314,-352.986"/>
<polygon fill="green" stroke="green" stroke-width="0.333764" points="269.882,-350.566 261.169,-344.538 264.221,-354.684 269.882,-350.566"/>
</g>
<!-- 44084 -->
<g id="node20" class="node"><title>44084</title>
<ellipse fill="white" stroke="black" cx="660.113" cy="-609.858" rx="27.6545" ry="27.6545"/>
<text text-anchor="middle" x="660.113" y="-607.658" font-family="Times New Roman,serif" font-size="9.00">44084</text>
</g>
<!-- 44084&#45;&gt;119307 -->
<g id="edge38" class="edge"><title>44084&#45;&gt;119307</title>
<path fill="none" stroke="green" stroke-width="0.224454" d="M660.402,-582.049C660.487,-574.142 660.583,-565.308 660.675,-556.74"/>
<polygon fill="green" stroke="green" stroke-width="0.224454" points="664.177,-556.54 660.785,-546.503 657.178,-556.464 664.177,-556.54"/>
</g>
<!-- 118453 -->
<g id="node21" class="node"><title>118453</title>
<ellipse fill="white" stroke="black" cx="395.113" cy="-318.718" rx="31.2258" ry="31.2258"/>
<text text-anchor="middle" x="395.113" y="-316.518" font-family="Times New Roman,serif" font-size="9.00">118453</text>
</g>
<!-- 21589 -->
<g id="node35" class="node"><title>21589</title>
<ellipse fill="white" stroke="black" cx="565.113" cy="-122.267" rx="27.6545" ry="27.6545"/>
<text text-anchor="middle" x="565.113" y="-120.067" font-family="Times New Roman,serif" font-size="9.00">21589</text>
</g>
<!-- 118453&#45;&gt;21589 -->
<g id="edge28" class="edge"><title>118453&#45;&gt;21589</title>
<path fill="none" stroke="green" stroke-width="0.346643" d="M419.419,-298.922C424.545,-295.099 429.963,-291.161 435.113,-287.605 459.769,-270.58 471.42,-273.275 492.113,-251.605 518.399,-224.077 538.752,-185.304 551.211,-157.593"/>
<polygon fill="green" stroke="green" stroke-width="0.346643" points="554.48,-158.854 555.285,-148.29 548.068,-156.046 554.48,-158.854"/>
</g>
<!-- 142065 -->
<g id="node41" class="node"><title>142065</title>
<ellipse fill="white" stroke="black" cx="452.113" cy="-220.492" rx="31.2258" ry="31.2258"/>
<text text-anchor="middle" x="452.113" y="-218.292" font-family="Times New Roman,serif" font-size="9.00">142065</text>
</g>
<!-- 118453&#45;&gt;142065 -->
<g id="edge48" class="edge"><title>118453&#45;&gt;142065</title>
<path fill="none" stroke="green" stroke-width="0.193402" d="M410.538,-291.678C417.001,-280.767 424.61,-267.922 431.539,-256.224"/>
<polygon fill="green" stroke="green" stroke-width="0.193402" points="434.59,-257.941 436.675,-247.553 428.567,-254.373 434.59,-257.941"/>
</g>
<!-- 82872 -->
<g id="node22" class="node"><title>82872</title>
<ellipse fill="white" stroke="black" cx="462.113" cy="-701.013" rx="27.6545" ry="27.6545"/>
<text text-anchor="middle" x="462.113" y="-698.813" font-family="Times New Roman,serif" font-size="9.00">82872</text>
</g>
<!-- 82872&#45;&gt;82048 -->
<g id="edge16" class="edge"><title>82872&#45;&gt;82048</title>
<path fill="none" stroke="red" stroke-width="0.351771" stroke-dasharray="1,5" d="M434.835,-696.144C372.174,-685.575 219.054,-649.739 163.113,-546.281 147.934,-518.21 147.53,-481.449 150.13,-454.469"/>
<polygon fill="red" stroke="red" stroke-width="0.351771" points="153.636,-454.618 151.296,-444.285 146.681,-453.821 153.636,-454.618"/>
</g>
<!-- 82872&#45;&gt;11668 -->
<g id="edge33" class="edge"><title>82872&#45;&gt;11668</title>
<path fill="none" stroke="green" stroke-width="0.487275" d="M479.413,-678.884C488.958,-667.226 500.954,-652.577 511.365,-639.861"/>
<polygon fill="green" stroke="green" stroke-width="0.487275" points="514.31,-641.79 517.937,-631.835 508.894,-637.355 514.31,-641.79"/>
</g>
<!-- 82175 -->
<g id="node43" class="node"><title>82175</title>
<ellipse fill="white" stroke="black" cx="462.113" cy="-609.858" rx="27.6545" ry="27.6545"/>
<text text-anchor="middle" x="462.113" y="-607.658" font-family="Times New Roman,serif" font-size="9.00">82175</text>
</g>
<!-- 82872&#45;&gt;82175 -->
<g id="edge43" class="edge"><title>82872&#45;&gt;82175</title>
<path fill="none" stroke="green" stroke-width="0.200045" d="M462.113,-673.264C462.113,-665.241 462.113,-656.297 462.113,-647.742"/>
<polygon fill="green" stroke="green" stroke-width="0.200045" points="465.613,-647.589 462.113,-637.589 458.613,-647.589 465.613,-647.589"/>
</g>
<!-- 126265 -->
<g id="node23" class="node"><title>126265</title>
<ellipse fill="white" stroke="black" cx="475.113" cy="-318.718" rx="31.2258" ry="31.2258"/>
<text text-anchor="middle" x="475.113" y="-316.518" font-family="Times New Roman,serif" font-size="9.00">126265</text>
</g>
<!-- 118205&#45;&gt;82048 -->
<g id="edge21" class="edge"><title>118205&#45;&gt;82048</title>
<path fill="none" stroke="red" stroke-width="0.481439" stroke-dasharray="1,5" d="M289.838,-496.279C283.514,-492.076 276.663,-487.75 270.113,-484.056 237.208,-465.497 225.115,-468.13 193.113,-448.056 190.306,-446.296 187.474,-444.35 184.691,-442.32"/>
<polygon fill="red" stroke="red" stroke-width="0.481439" points="186.634,-439.399 176.572,-436.079 182.368,-444.949 186.634,-439.399"/>
</g>
<!-- 118871 -->
<g id="node36" class="node"><title>118871</title>
<ellipse fill="white" stroke="black" cx="233.113" cy="-416.943" rx="31.2258" ry="31.2258"/>
<text text-anchor="middle" x="233.113" y="-414.743" font-family="Times New Roman,serif" font-size="9.00">118871</text>
</g>
<!-- 118205&#45;&gt;118871 -->
<g id="edge29" class="edge"><title>118205&#45;&gt;118871</title>
<path fill="none" stroke="green" stroke-width="0.518375" stroke-dasharray="1,5" d="M295.263,-490.875C284.565,-478.321 271.221,-462.663 259.643,-449.077"/>
<polygon fill="green" stroke="green" stroke-width="0.518375" points="262.214,-446.697 253.064,-441.356 256.886,-451.237 262.214,-446.697"/>
</g>
<!-- 65097 -->
<g id="node28" class="node"><title>65097</title>
<ellipse fill="white" stroke="black" cx="602.113" cy="-220.492" rx="27.6545" ry="27.6545"/>
<text text-anchor="middle" x="602.113" y="-218.292" font-family="Times New Roman,serif" font-size="9.00">65097</text>
</g>
<!-- 65097&#45;&gt;21589 -->
<g id="edge15" class="edge"><title>65097&#45;&gt;21589</title>
<path fill="none" stroke="green" stroke-width="0.287845" stroke-dasharray="1,5" d="M592.488,-194.462C588.163,-183.213 582.989,-169.758 578.31,-157.59"/>
<polygon fill="green" stroke="green" stroke-width="0.287845" points="581.545,-156.25 574.689,-148.173 575.011,-158.763 581.545,-156.25"/>
</g>
<!-- 82763&#45;&gt;MPG -->
<g id="edge31" class="edge"><title>82763&#45;&gt;MPG</title>
<path fill="none" stroke="green" stroke-width="0.141583" d="M451.903,-401.892C443.239,-396.739 433.281,-390.924 424.113,-385.831 393.876,-369.031 383.879,-369.038 355.113,-349.831 352.334,-347.975 349.523,-345.942 346.759,-343.835"/>
<polygon fill="green" stroke="green" stroke-width="0.141583" points="348.696,-340.903 338.697,-337.399 344.328,-346.373 348.696,-340.903"/>
</g>
<!-- 82763&#45;&gt;118453 -->
<g id="edge24" class="edge"><title>82763&#45;&gt;118453</title>
<path fill="none" stroke="red" stroke-width="0.192478" d="M457.754,-395.064C447.052,-382.192 433.127,-365.442 421.124,-351.005"/>
<polygon fill="red" stroke="red" stroke-width="0.192478" points="423.77,-348.713 414.686,-343.261 418.388,-353.188 423.77,-348.713"/>
</g>
<!-- 82763&#45;&gt;126265 -->
<g id="edge44" class="edge"><title>82763&#45;&gt;126265</title>
<path fill="none" stroke="red" stroke-width="0.204308" d="M475.113,-389.139C475.113,-380.236 475.113,-370.114 475.113,-360.404"/>
<polygon fill="red" stroke="red" stroke-width="0.204308" points="478.613,-360.108 475.113,-350.108 471.613,-360.108 478.613,-360.108"/>
</g>
<!-- 82763&#45;&gt;9797 -->
<g id="edge12" class="edge"><title>82763&#45;&gt;9797</title>
<path fill="none" stroke="red" stroke-width="0.176676" stroke-dasharray="1,5" d="M491.536,-394.588C502.386,-380.479 516.697,-361.869 528.337,-346.733"/>
<polygon fill="red" stroke="red" stroke-width="0.176676" points="531.168,-348.793 534.49,-338.732 525.619,-344.526 531.168,-348.793"/>
</g>
<!-- 119251 -->
<g id="node34" class="node"><title>119251</title>
<ellipse fill="white" stroke="black" cx="661.113" cy="-318.718" rx="31.2258" ry="31.2258"/>
<text text-anchor="middle" x="661.113" y="-316.518" font-family="Times New Roman,serif" font-size="9.00">119251</text>
</g>
<!-- 119117&#45;&gt;119251 -->
<g id="edge35" class="edge"><title>119117&#45;&gt;119251</title>
<path fill="none" stroke="red" stroke-width="0.737345" d="M661.113,-385.761C661.113,-377.689 661.113,-368.831 661.113,-360.298"/>
<polygon fill="red" stroke="red" stroke-width="0.737345" points="664.613,-360.124 661.113,-350.124 657.613,-360.124 664.613,-360.124"/>
</g>
<!-- 119117&#45;&gt;21589 -->
<g id="edge32" class="edge"><title>119117&#45;&gt;21589</title>
<path fill="none" stroke="green" stroke-width="0.459712" stroke-dasharray="1,5" d="M679.954,-392.008C688.178,-380.058 696.895,-364.949 701.113,-349.831 708.544,-323.192 706.188,-314.791 701.113,-287.605 692.522,-241.591 693.389,-225.079 663.113,-189.38 642.751,-165.371 627.949,-171.366 602.113,-153.38 599.394,-151.487 596.621,-149.45 593.878,-147.361"/>
<polygon fill="green" stroke="green" stroke-width="0.459712" points="595.845,-144.456 585.821,-141.028 591.52,-149.959 595.845,-144.456"/>
</g>
<!-- 118991 -->
<g id="node32" class="node"><title>118991</title>
<ellipse fill="white" stroke="black" cx="31.1127" cy="-122.267" rx="31.2258" ry="31.2258"/>
<text text-anchor="middle" x="31.1127" y="-120.067" font-family="Times New Roman,serif" font-size="9.00">118991</text>
</g>
<!-- 118991&#45;&gt;13755 -->
<g id="edge30" class="edge"><title>118991&#45;&gt;13755</title>
<path fill="none" stroke="green" stroke-width="0.311111" stroke-dasharray="1,5" d="M55.7059,-103.175C76.0644,-88.1991 105.076,-66.8574 126.856,-50.8351"/>
<polygon fill="green" stroke="green" stroke-width="0.311111" points="129.129,-53.5081 135.11,-44.7631 124.981,-47.8695 129.129,-53.5081"/>
</g>
<!-- 11601 -->
<g id="node33" class="node"><title>11601</title>
<ellipse fill="white" stroke="black" cx="660.113" cy="-701.013" rx="27.6545" ry="27.6545"/>
<text text-anchor="middle" x="660.113" y="-698.813" font-family="Times New Roman,serif" font-size="9.00">11601</text>
</g>
<!-- 11601&#45;&gt;44084 -->
<g id="edge23" class="edge"><title>11601&#45;&gt;44084</title>
<path fill="none" stroke="red" stroke-width="0.496924" d="M660.113,-673.264C660.113,-665.241 660.113,-656.297 660.113,-647.742"/>
<polygon fill="red" stroke="red" stroke-width="0.496924" points="663.613,-647.589 660.113,-637.589 656.613,-647.589 663.613,-647.589"/>
</g>
<!-- 119251&#45;&gt;65097 -->
<g id="edge52" class="edge"><title>119251&#45;&gt;65097</title>
<path fill="none" stroke="green" stroke-width="0.351757" d="M645.146,-291.678C637.842,-279.764 629.123,-265.545 621.45,-253.031"/>
<polygon fill="green" stroke="green" stroke-width="0.351757" points="624.294,-250.972 616.083,-244.276 618.326,-254.631 624.294,-250.972"/>
</g>
<!-- 119251&#45;&gt;21589 -->
<g id="edge36" class="edge"><title>119251&#45;&gt;21589</title>
<path fill="none" stroke="red" stroke-width="0.138923" d="M661.459,-287.601C660.542,-260.353 656.032,-219.934 639.113,-189.38 636.124,-183.982 613.306,-163.921 593.788,-147.299"/>
<polygon fill="red" stroke="red" stroke-width="0.138923" points="595.86,-144.467 585.969,-140.671 591.334,-149.807 595.86,-144.467"/>
</g>
<!-- 21589&#45;&gt;82828 -->
<g id="edge14" class="edge"><title>21589&#45;&gt;82828</title>
<path fill="none" stroke="red" stroke-width="0.262498" d="M575.296,-96.4278C579.513,-86.142 584.474,-74.0401 589.031,-62.9265"/>
<polygon fill="red" stroke="red" stroke-width="0.262498" points="592.346,-64.0652 592.901,-53.4849 585.87,-61.4099 592.346,-64.0652"/>
</g>
<!-- 21589&#45;&gt;13755 -->
<g id="edge6" class="edge"><title>21589&#45;&gt;13755</title>
<path fill="none" stroke="green" stroke-width="0.464834" d="M538.343,-115.185C467.448,-99.0794 274.734,-55.2984 193.742,-36.8986"/>
<polygon fill="green" stroke="green" stroke-width="0.464834" points="194.508,-33.4836 183.981,-34.6812 192.957,-40.3097 194.508,-33.4836"/>
</g>
<!-- 119773&#45;&gt;13755 -->
<g id="edge40" class="edge"><title>119773&#45;&gt;13755</title>
<path fill="none" stroke="green" stroke-width="0.309409" d="M177.785,-92.4475C174.823,-83.2969 171.516,-73.0773 168.43,-63.5427"/>
<polygon fill="green" stroke="green" stroke-width="0.309409" points="171.727,-62.3643 165.318,-53.9281 165.067,-64.5199 171.727,-62.3643"/>
</g>
<!-- 142065&#45;&gt;21589 -->
<g id="edge49" class="edge"><title>142065&#45;&gt;21589</title>
<path fill="none" stroke="red" stroke-width="0.915081" d="M475.526,-199.554C493.288,-184.43 517.784,-163.57 536.673,-147.485"/>
<polygon fill="red" stroke="red" stroke-width="0.915081" points="539.044,-150.063 544.389,-140.914 534.506,-144.733 539.044,-150.063"/>
</g>
<!-- 132984&#45;&gt;119773 -->
<g id="edge46" class="edge"><title>132984&#45;&gt;119773</title>
<path fill="none" stroke="green" stroke-width="0.156435" d="M187.113,-189.31C187.113,-181.238 187.113,-172.38 187.113,-163.847"/>
<polygon fill="green" stroke="green" stroke-width="0.156435" points="190.613,-163.673 187.113,-153.673 183.613,-163.673 190.613,-163.673"/>
</g>
<!-- 82175&#45;&gt;119307 -->
<g id="edge37" class="edge"><title>82175&#45;&gt;119307</title>
<path fill="none" stroke="green" stroke-width="0.709749" d="M483.04,-591.576C487.802,-588.175 492.977,-584.864 498.113,-582.281 547.096,-557.644 566.573,-569.781 616.113,-546.281 620.139,-544.371 624.217,-542.136 628.19,-539.762"/>
<polygon fill="green" stroke="green" stroke-width="0.709749" points="630.072,-542.713 636.658,-534.413 626.334,-536.794 630.072,-542.713"/>
</g>
<!-- 82175&#45;&gt;10148 -->
<g id="edge19" class="edge"><title>82175&#45;&gt;10148</title>
<path fill="none" stroke="green" stroke-width="0.487094" stroke-dasharray="1,5" d="M462.113,-582.049C462.113,-573.018 462.113,-562.776 462.113,-553.104"/>
<polygon fill="green" stroke="green" stroke-width="0.487094" points="465.613,-552.918 462.113,-542.918 458.613,-552.918 465.613,-552.918"/>
</g>
<!-- 82175&#45;&gt;21831 -->
<g id="edge8" class="edge"><title>82175&#45;&gt;21831</title>
<path fill="none" stroke="green" stroke-width="0.273558" stroke-dasharray="1,5" d="M435.927,-600.633C399.608,-589.103 331.985,-567.194 275.113,-546.281 261.785,-541.381 247.274,-535.649 234.598,-530.508"/>
<polygon fill="green" stroke="green" stroke-width="0.273558" points="235.893,-527.257 225.312,-526.717 233.247,-533.737 235.893,-527.257"/>
</g>
<!-- 82175&#45;&gt;65097 -->
<g id="edge51" class="edge"><title>82175&#45;&gt;65097</title>
<path fill="none" stroke="green" stroke-width="0.446561" d="M483.284,-592.027C488.031,-588.598 493.138,-585.162 498.113,-582.281 532.558,-562.338 557.234,-578.851 580.113,-546.281 612.005,-500.88 607.918,-334.068 604.281,-258.788"/>
<polygon fill="green" stroke="green" stroke-width="0.446561" points="607.755,-258.18 603.752,-248.371 600.764,-258.535 607.755,-258.18"/>
</g>
</g>
</svg>
